STARTFONT 2.1
FONT uni16m
SIZE 16 75 75
FONTBOUNDINGBOX 39 40 -14 -12
COMMENT "Generated by fontforge, http://fontforge.sourceforge.net"
COMMENT "uni16m v1.1 1996 by Wilhelm Chao (wchao@hrz.uni-bielefeld.de) from:"
COMMENT "8x16.bdf Copyright 1989 by Sony Corp."
COMMENT "misc16.bdf from cnd.org"
COMMENT "misc.unihan.16.bdf from kth.se"
COMMENT "taipei16.bdf from X font `taipei16' by getbdf"
COMMENT "hanglm16.bdf Copyright (c) 1987, 1988 Daewoo Electronics Co.,Ltd"
COMMENT "jiskan16.bdf from JIS X 9051-1984"
COMMENT "etl16-greek.bdf by Takahashi N. <ntakahas@etl.go.jp>"
COMMENT "etl16-cyrillic.bdf by Takahashi N. <ntakahas@etl.go.jp>"
COMMENT "etl16-hebrew.bdf by Takahashi N. <ntakahas@etl.go.jp>"
COMMENT "etl16-arabic.bdf by Takahashi N. <ntakahas@etl.go.jp>"
COMMENT "metafonts: cac5 tel10 mm12 thairz10 tib tibsp"
COMMENT ""
COMMENT "TO DO matafonts: dvng8 grmk8 wntml10 mxedc10"
COMMENT "SEE ALSO uni24.bdf misc24.bdf at ifcss.org"
COMMENT ""
STARTPROPERTIES 12
FONT_ASCENT 14
FONT_DESCENT 2
DEFAULT_CHAR 32
COPYRIGHT "Public Domain"
PIXEL_SIZE 16
POINT_SIZE 120
FONT "-misc-fixed-medium-r-normal--16-120-75-75-C-80-unicode-0"
WEIGHT 10
RESOLUTION 103
RESOLUTION_X 75
RESOLUTION_Y 75
QUAD_WIDTH 16
ENDPROPERTIES
CHARS 23896
STARTCHAR space
ENCODING 32
SWIDTH 512 0
DWIDTH 8 0
BBX 0 0 0 0
BITMAP
ENDCHAR
STARTCHAR exclam
ENCODING 33
SWIDTH 512 0
DWIDTH 8 0
BBX 3 15 2 -2
BITMAP
E0
E0
E0
E0
E0
E0
40
40
40
40
00
00
40
E0
40
ENDCHAR
STARTCHAR quotedbl
ENCODING 34
SWIDTH 512 0
DWIDTH 8 0
BBX 5 5 1 9
BITMAP
D8
D8
48
48
90
ENDCHAR
STARTCHAR numbersign
ENCODING 35
SWIDTH 512 0
DWIDTH 8 0
BBX 8 14 0 -1
BITMAP
12
12
12
7F
24
24
24
24
24
FE
48
48
48
48
ENDCHAR
STARTCHAR dollar
ENCODING 36
SWIDTH 512 0
DWIDTH 8 0
BBX 7 16 0 -2
BITMAP
10
38
54
92
92
90
50
38
14
12
92
92
54
38
10
10
ENDCHAR
STARTCHAR percent
ENCODING 37
SWIDTH 512 0
DWIDTH 8 0
BBX 7 16 0 -2
BITMAP
02
62
94
94
94
98
68
10
10
2C
32
52
52
52
8C
80
ENDCHAR
STARTCHAR ampersand
ENCODING 38
SWIDTH 512 0
DWIDTH 8 0
BBX 7 13 0 0
BITMAP
30
48
48
48
50
20
2E
54
54
94
88
8C
72
ENDCHAR
STARTCHAR quotesingle
ENCODING 39
SWIDTH 512 0
DWIDTH 8 0
BBX 3 5 0 9
BITMAP
E0
E0
20
20
C0
ENDCHAR
STARTCHAR parenleft
ENCODING 40
SWIDTH 512 0
DWIDTH 8 0
BBX 4 16 3 -2
BITMAP
10
20
40
40
80
80
80
80
80
80
80
80
40
40
20
10
ENDCHAR
STARTCHAR parenright
ENCODING 41
SWIDTH 512 0
DWIDTH 8 0
BBX 4 16 0 -2
BITMAP
80
40
20
20
10
10
10
10
10
10
10
10
20
20
40
80
ENDCHAR
STARTCHAR asterisk
ENCODING 42
SWIDTH 512 0
DWIDTH 8 0
BBX 7 9 0 2
BITMAP
10
38
92
D6
38
D6
92
38
10
ENDCHAR
STARTCHAR plus
ENCODING 43
SWIDTH 512 0
DWIDTH 8 0
BBX 7 9 0 2
BITMAP
10
10
10
10
FE
10
10
10
10
ENDCHAR
STARTCHAR comma
ENCODING 44
SWIDTH 512 0
DWIDTH 8 0
BBX 3 5 0 -2
BITMAP
E0
E0
20
20
C0
ENDCHAR
STARTCHAR hyphen
ENCODING 45
SWIDTH 512 0
DWIDTH 8 0
BBX 7 1 0 6
BITMAP
FE
ENDCHAR
STARTCHAR period
ENCODING 46
SWIDTH 512 0
DWIDTH 8 0
BBX 3 4 0 -1
BITMAP
40
E0
E0
40
ENDCHAR
STARTCHAR slash
ENCODING 47
SWIDTH 512 0
DWIDTH 8 0
BBX 7 16 0 -2
BITMAP
02
02
04
04
08
08
08
10
10
10
20
20
40
40
80
80
ENDCHAR
STARTCHAR zero
ENCODING 48
SWIDTH 512 0
DWIDTH 8 0
BBX 6 13 1 0
BITMAP
30
48
48
84
84
84
84
84
84
84
48
48
30
ENDCHAR
STARTCHAR one
ENCODING 49
SWIDTH 512 0
DWIDTH 8 0
BBX 5 13 1 0
BITMAP
20
E0
20
20
20
20
20
20
20
20
20
20
F8
ENDCHAR
STARTCHAR two
ENCODING 50
SWIDTH 512 0
DWIDTH 8 0
BBX 7 13 0 0
BITMAP
38
44
82
C2
02
04
08
10
20
40
80
82
FE
ENDCHAR
STARTCHAR three
ENCODING 51
SWIDTH 512 0
DWIDTH 8 0
BBX 7 13 0 0
BITMAP
38
44
82
82
02
04
38
04
02
82
82
44
38
ENDCHAR
STARTCHAR four
ENCODING 52
SWIDTH 512 0
DWIDTH 8 0
BBX 7 13 0 0
BITMAP
08
18
28
28
48
48
88
88
FE
08
08
08
3C
ENDCHAR
STARTCHAR five
ENCODING 53
SWIDTH 512 0
DWIDTH 8 0
BBX 7 13 0 0
BITMAP
FE
80
80
80
B8
C4
82
02
02
C2
82
44
38
ENDCHAR
STARTCHAR six
ENCODING 54
SWIDTH 512 0
DWIDTH 8 0
BBX 7 13 0 0
BITMAP
3C
42
46
80
80
B8
C4
82
82
82
82
44
38
ENDCHAR
STARTCHAR seven
ENCODING 55
SWIDTH 512 0
DWIDTH 8 0
BBX 7 14 0 -1
BITMAP
FE
82
82
04
04
04
08
08
08
08
10
10
10
10
ENDCHAR
STARTCHAR eight
ENCODING 56
SWIDTH 512 0
DWIDTH 8 0
BBX 7 13 0 0
BITMAP
38
44
82
82
82
44
38
44
82
82
82
44
38
ENDCHAR
STARTCHAR nine
ENCODING 57
SWIDTH 512 0
DWIDTH 8 0
BBX 7 13 0 0
BITMAP
38
44
82
82
82
82
46
3A
02
02
82
44
38
ENDCHAR
STARTCHAR colon
ENCODING 58
SWIDTH 512 0
DWIDTH 8 0
BBX 3 9 2 0
BITMAP
E0
E0
00
00
00
00
00
E0
E0
ENDCHAR
STARTCHAR semicolon
ENCODING 59
SWIDTH 512 0
DWIDTH 8 0
BBX 3 11 2 -2
BITMAP
E0
E0
00
00
00
00
E0
E0
60
40
C0
ENDCHAR
STARTCHAR less
ENCODING 60
SWIDTH 512 0
DWIDTH 8 0
BBX 5 16 2 -2
BITMAP
08
10
10
20
20
40
40
80
80
40
40
20
20
10
10
08
ENDCHAR
STARTCHAR equal
ENCODING 61
SWIDTH 512 0
DWIDTH 8 0
BBX 7 5 0 4
BITMAP
FE
00
00
00
FE
ENDCHAR
STARTCHAR greater
ENCODING 62
SWIDTH 512 0
DWIDTH 8 0
BBX 5 16 0 -2
BITMAP
80
40
40
20
20
10
10
08
08
10
10
20
20
40
40
80
ENDCHAR
STARTCHAR question
ENCODING 63
SWIDTH 512 0
DWIDTH 8 0
BBX 7 15 0 -2
BITMAP
38
44
82
C2
02
04
04
08
10
10
00
00
10
38
10
ENDCHAR
STARTCHAR at
ENCODING 64
SWIDTH 512 0
DWIDTH 8 0
BBX 7 13 0 0
BITMAP
3C
42
82
9A
A6
A2
A2
A2
A6
9A
80
42
3C
ENDCHAR
STARTCHAR A
ENCODING 65
SWIDTH 512 0
DWIDTH 8 0
BBX 7 13 0 0
BITMAP
10
28
28
28
44
44
44
44
7C
82
82
82
C6
ENDCHAR
STARTCHAR B
ENCODING 66
SWIDTH 512 0
DWIDTH 8 0
BBX 7 13 0 0
BITMAP
F8
44
42
42
42
44
78
44
42
42
42
42
FC
ENDCHAR
STARTCHAR C
ENCODING 67
SWIDTH 512 0
DWIDTH 8 0
BBX 7 13 0 0
BITMAP
3A
46
42
80
80
80
80
80
80
82
42
42
3C
ENDCHAR
STARTCHAR D
ENCODING 68
SWIDTH 512 0
DWIDTH 8 0
BBX 7 13 0 0
BITMAP
F8
44
44
42
42
42
42
42
42
42
44
44
F8
ENDCHAR
STARTCHAR E
ENCODING 69
SWIDTH 512 0
DWIDTH 8 0
BBX 7 13 0 0
BITMAP
FE
42
42
40
48
48
78
48
48
42
42
42
FE
ENDCHAR
STARTCHAR F
ENCODING 70
SWIDTH 512 0
DWIDTH 8 0
BBX 7 13 0 0
BITMAP
FE
42
42
40
48
48
78
48
48
40
40
40
F0
ENDCHAR
STARTCHAR G
ENCODING 71
SWIDTH 512 0
DWIDTH 8 0
BBX 8 13 0 0
BITMAP
1A
26
42
40
80
80
8F
82
82
82
42
66
1A
ENDCHAR
STARTCHAR H
ENCODING 72
SWIDTH 512 0
DWIDTH 8 0
BBX 8 13 0 0
BITMAP
E7
42
42
42
42
7E
42
42
42
42
42
42
E7
ENDCHAR
STARTCHAR I
ENCODING 73
SWIDTH 512 0
DWIDTH 8 0
BBX 7 13 0 0
BITMAP
FE
10
10
10
10
10
10
10
10
10
10
10
FE
ENDCHAR
STARTCHAR J
ENCODING 74
SWIDTH 512 0
DWIDTH 8 0
BBX 8 13 0 0
BITMAP
1F
02
02
02
02
02
02
02
82
82
82
44
38
ENDCHAR
STARTCHAR K
ENCODING 75
SWIDTH 512 0
DWIDTH 8 0
BBX 8 13 0 0
BITMAP
E3
42
44
48
48
70
50
48
48
44
44
42
E3
ENDCHAR
STARTCHAR L
ENCODING 76
SWIDTH 512 0
DWIDTH 8 0
BBX 7 13 0 0
BITMAP
F0
40
40
40
40
40
40
40
40
42
42
42
FE
ENDCHAR
STARTCHAR M
ENCODING 77
SWIDTH 512 0
DWIDTH 8 0
BBX 7 13 0 0
BITMAP
82
C6
AA
AA
AA
92
92
92
82
82
82
82
C6
ENDCHAR
STARTCHAR N
ENCODING 78
SWIDTH 512 0
DWIDTH 8 0
BBX 8 13 0 0
BITMAP
87
C2
A2
A2
A2
92
92
92
8A
8A
8A
86
C2
ENDCHAR
STARTCHAR O
ENCODING 79
SWIDTH 512 0
DWIDTH 8 0
BBX 7 13 0 0
BITMAP
38
44
82
82
82
82
82
82
82
82
82
44
38
ENDCHAR
STARTCHAR P
ENCODING 80
SWIDTH 512 0
DWIDTH 8 0
BBX 7 13 0 0
BITMAP
F8
44
42
42
42
42
44
78
40
40
40
40
F0
ENDCHAR
STARTCHAR Q
ENCODING 81
SWIDTH 512 0
DWIDTH 8 0
BBX 7 15 0 -2
BITMAP
38
44
44
82
82
82
82
82
82
BA
44
44
38
08
06
ENDCHAR
STARTCHAR R
ENCODING 82
SWIDTH 512 0
DWIDTH 8 0
BBX 8 13 0 0
BITMAP
F8
44
42
42
42
44
78
48
44
44
44
42
E3
ENDCHAR
STARTCHAR S
ENCODING 83
SWIDTH 512 0
DWIDTH 8 0
BBX 7 13 0 0
BITMAP
34
4C
84
80
80
60
18
04
82
82
82
C4
B8
ENDCHAR
STARTCHAR T
ENCODING 84
SWIDTH 512 0
DWIDTH 8 0
BBX 7 13 0 0
BITMAP
FE
92
92
10
10
10
10
10
10
10
10
10
7C
ENDCHAR
STARTCHAR U
ENCODING 85
SWIDTH 512 0
DWIDTH 8 0
BBX 8 13 0 0
BITMAP
E7
42
42
42
42
42
42
42
42
42
42
42
3C
ENDCHAR
STARTCHAR V
ENCODING 86
SWIDTH 512 0
DWIDTH 8 0
BBX 7 13 0 0
BITMAP
C6
82
82
82
82
44
44
44
44
28
28
10
10
ENDCHAR
STARTCHAR W
ENCODING 87
SWIDTH 512 0
DWIDTH 8 0
BBX 7 13 0 0
BITMAP
C6
82
82
82
92
92
92
AA
AA
AA
44
44
44
ENDCHAR
STARTCHAR X
ENCODING 88
SWIDTH 512 0
DWIDTH 8 0
BBX 7 13 0 0
BITMAP
EE
44
44
28
28
10
28
28
28
44
44
82
C6
ENDCHAR
STARTCHAR Y
ENCODING 89
SWIDTH 512 0
DWIDTH 8 0
BBX 7 13 0 0
BITMAP
C6
82
44
44
44
28
28
10
10
10
10
10
7C
ENDCHAR
STARTCHAR Z
ENCODING 90
SWIDTH 512 0
DWIDTH 8 0
BBX 7 13 0 0
BITMAP
FE
84
88
08
10
10
10
20
20
42
42
82
FE
ENDCHAR
STARTCHAR bracketleft
ENCODING 91
SWIDTH 512 0
DWIDTH 8 0
BBX 4 16 3 -2
BITMAP
F0
80
80
80
80
80
80
80
80
80
80
80
80
80
80
F0
ENDCHAR
STARTCHAR backslash
ENCODING 92
SWIDTH 512 0
DWIDTH 8 0
BBX 7 14 0 -1
BITMAP
80
80
40
40
20
20
10
10
08
08
04
04
02
02
ENDCHAR
STARTCHAR bracketright
ENCODING 93
SWIDTH 512 0
DWIDTH 8 0
BBX 4 16 0 -2
BITMAP
F0
10
10
10
10
10
10
10
10
10
10
10
10
10
10
F0
ENDCHAR
STARTCHAR asciicircum
ENCODING 94
SWIDTH 512 0
DWIDTH 8 0
BBX 7 4 0 10
BITMAP
10
28
44
82
ENDCHAR
STARTCHAR underscore
ENCODING 95
SWIDTH 512 0
DWIDTH 8 0
BBX 7 1 0 -2
BITMAP
FE
ENDCHAR
STARTCHAR grave
ENCODING 96
SWIDTH 512 0
DWIDTH 8 0
BBX 2 5 2 9
BITMAP
C0
C0
80
80
40
ENDCHAR
STARTCHAR a
ENCODING 97
SWIDTH 512 0
DWIDTH 8 0
BBX 8 9 0 0
BITMAP
3C
42
02
3E
42
82
82
86
7B
ENDCHAR
STARTCHAR b
ENCODING 98
SWIDTH 512 0
DWIDTH 8 0
BBX 7 13 0 0
BITMAP
C0
40
40
40
78
44
42
42
42
42
42
44
78
ENDCHAR
STARTCHAR c
ENCODING 99
SWIDTH 512 0
DWIDTH 8 0
BBX 7 9 0 0
BITMAP
3A
46
82
80
80
80
82
42
3C
ENDCHAR
STARTCHAR d
ENCODING 100
SWIDTH 512 0
DWIDTH 8 0
BBX 7 13 0 0
BITMAP
06
04
04
04
3C
44
84
84
84
84
84
44
3E
ENDCHAR
STARTCHAR e
ENCODING 101
SWIDTH 512 0
DWIDTH 8 0
BBX 7 9 0 0
BITMAP
38
44
82
FE
80
80
82
42
3C
ENDCHAR
STARTCHAR f
ENCODING 102
SWIDTH 512 0
DWIDTH 8 0
BBX 8 13 0 0
BITMAP
0E
11
10
10
FE
10
10
10
10
10
10
10
7C
ENDCHAR
STARTCHAR g
ENCODING 103
SWIDTH 512 0
DWIDTH 8 0
BBX 8 11 0 -2
BITMAP
3B
44
44
44
38
40
78
84
82
82
7C
ENDCHAR
STARTCHAR h
ENCODING 104
SWIDTH 512 0
DWIDTH 8 0
BBX 8 13 0 0
BITMAP
C0
40
40
40
5C
62
42
42
42
42
42
42
E7
ENDCHAR
STARTCHAR i
ENCODING 105
SWIDTH 512 0
DWIDTH 8 0
BBX 8 14 0 0
BITMAP
18
18
00
00
00
78
08
08
08
08
08
08
08
FF
ENDCHAR
STARTCHAR j
ENCODING 106
SWIDTH 512 0
DWIDTH 8 0
BBX 7 16 0 -2
BITMAP
06
06
00
00
00
3E
02
02
02
02
02
02
82
82
44
38
ENDCHAR
STARTCHAR k
ENCODING 107
SWIDTH 512 0
DWIDTH 8 0
BBX 8 13 0 0
BITMAP
C0
40
40
40
46
44
48
58
64
44
42
42
E3
ENDCHAR
STARTCHAR l
ENCODING 108
SWIDTH 512 0
DWIDTH 8 0
BBX 8 13 0 0
BITMAP
78
08
08
08
08
08
08
08
08
08
08
08
FF
ENDCHAR
STARTCHAR m
ENCODING 109
SWIDTH 512 0
DWIDTH 8 0
BBX 8 9 0 0
BITMAP
6C
92
92
92
92
92
92
92
DB
ENDCHAR
STARTCHAR n
ENCODING 110
SWIDTH 512 0
DWIDTH 8 0
BBX 8 9 0 0
BITMAP
DC
62
42
42
42
42
42
42
E7
ENDCHAR
STARTCHAR o
ENCODING 111
SWIDTH 512 0
DWIDTH 8 0
BBX 7 9 0 0
BITMAP
38
44
82
82
82
82
82
44
38
ENDCHAR
STARTCHAR p
ENCODING 112
SWIDTH 512 0
DWIDTH 8 0
BBX 7 11 0 -2
BITMAP
F8
44
42
42
42
42
44
78
40
40
F0
ENDCHAR
STARTCHAR q
ENCODING 113
SWIDTH 512 0
DWIDTH 8 0
BBX 7 11 0 -2
BITMAP
3E
44
84
84
84
84
44
3C
04
04
1E
ENDCHAR
STARTCHAR r
ENCODING 114
SWIDTH 512 0
DWIDTH 8 0
BBX 7 9 0 0
BITMAP
EC
32
22
20
20
20
20
20
FC
ENDCHAR
STARTCHAR s
ENCODING 115
SWIDTH 512 0
DWIDTH 8 0
BBX 7 9 0 0
BITMAP
3A
46
42
40
3C
02
82
C2
BC
ENDCHAR
STARTCHAR t
ENCODING 116
SWIDTH 512 0
DWIDTH 8 0
BBX 7 12 0 0
BITMAP
20
20
20
FC
20
20
20
20
20
22
22
1C
ENDCHAR
STARTCHAR u
ENCODING 117
SWIDTH 512 0
DWIDTH 8 0
BBX 8 9 0 0
BITMAP
C6
42
42
42
42
42
42
46
39
ENDCHAR
STARTCHAR v
ENCODING 118
SWIDTH 512 0
DWIDTH 8 0
BBX 7 9 0 0
BITMAP
C6
82
82
44
44
44
28
28
10
ENDCHAR
STARTCHAR w
ENCODING 119
SWIDTH 512 0
DWIDTH 8 0
BBX 7 9 0 0
BITMAP
92
92
92
92
AA
AA
44
44
44
ENDCHAR
STARTCHAR x
ENCODING 120
SWIDTH 512 0
DWIDTH 8 0
BBX 7 9 0 0
BITMAP
EE
44
28
28
10
28
28
44
EE
ENDCHAR
STARTCHAR y
ENCODING 121
SWIDTH 512 0
DWIDTH 8 0
BBX 8 11 0 -2
BITMAP
E7
42
22
24
14
08
08
10
10
20
C0
ENDCHAR
STARTCHAR z
ENCODING 122
SWIDTH 512 0
DWIDTH 8 0
BBX 7 9 0 0
BITMAP
7E
44
08
08
10
10
22
42
FE
ENDCHAR
STARTCHAR braceleft
ENCODING 123
SWIDTH 512 0
DWIDTH 8 0
BBX 5 16 2 -2
BITMAP
18
20
20
20
20
20
40
80
40
20
20
20
20
20
20
18
ENDCHAR
STARTCHAR bar
ENCODING 124
SWIDTH 512 0
DWIDTH 8 0
BBX 1 16 3 -2
BITMAP
80
80
80
80
80
80
80
80
80
80
80
80
80
80
80
80
ENDCHAR
STARTCHAR braceright
ENCODING 125
SWIDTH 512 0
DWIDTH 8 0
BBX 5 16 0 -2
BITMAP
C0
20
20
20
20
20
10
08
10
20
20
20
20
20
20
C0
ENDCHAR
STARTCHAR asciitilde
ENCODING 126
SWIDTH 512 0
DWIDTH 8 0
BBX 7 3 0 11
BITMAP
60
92
0C
ENDCHAR
STARTCHAR exclamdown
ENCODING 161
SWIDTH 512 0
DWIDTH 8 0
BBX 3 15 2 -2
BITMAP
40
E0
40
00
00
40
40
40
40
E0
E0
E0
E0
E0
E0
ENDCHAR
STARTCHAR cent
ENCODING 162
SWIDTH 512 0
DWIDTH 8 0
BBX 7 13 0 -1
BITMAP
10
3C
52
92
90
90
90
90
90
92
52
3C
10
ENDCHAR
STARTCHAR sterling
ENCODING 163
SWIDTH 512 0
DWIDTH 8 0
BBX 6 11 1 -1
BITMAP
18
24
20
20
20
F8
20
20
78
A4
40
ENDCHAR
STARTCHAR currency
ENCODING 164
SWIDTH 512 0
DWIDTH 8 0
BBX 6 6 1 3
BITMAP
84
78
48
48
78
84
ENDCHAR
STARTCHAR yen
ENCODING 165
SWIDTH 512 0
DWIDTH 8 0
BBX 7 14 0 0
BITMAP
82
82
44
44
FE
28
10
FE
10
10
10
10
10
38
ENDCHAR
STARTCHAR brokenbar
ENCODING 166
SWIDTH 512 0
DWIDTH 8 0
BBX 1 13 3 0
BITMAP
80
80
80
80
80
00
00
00
80
80
80
80
80
ENDCHAR
STARTCHAR section
ENCODING 167
SWIDTH 512 0
DWIDTH 8 0
BBX 6 13 1 0
BITMAP
78
84
80
40
78
84
84
84
78
08
04
84
78
ENDCHAR
STARTCHAR dieresis
ENCODING 168
SWIDTH 512 0
DWIDTH 8 0
BBX 4 3 2 10
BITMAP
90
90
90
ENDCHAR
STARTCHAR copyright
ENCODING 169
SWIDTH 512 0
DWIDTH 8 0
BBX 8 13 0 0
BITMAP
3C
42
99
A5
C3
C1
C1
C1
C3
A5
99
42
3C
ENDCHAR
STARTCHAR ordfeminine
ENCODING 170
SWIDTH 512 0
DWIDTH 8 0
BBX 5 8 2 5
BITMAP
70
88
78
88
98
68
00
F8
ENDCHAR
STARTCHAR guillemotleft
ENCODING 171
SWIDTH 512 0
DWIDTH 8 0
BBX 8 10 0 1
BITMAP
09
12
24
48
90
90
48
24
12
09
ENDCHAR
STARTCHAR logicalnot
ENCODING 172
SWIDTH 512 0
DWIDTH 8 0
BBX 7 4 0 3
BITMAP
FE
FE
06
06
ENDCHAR
STARTCHAR uni00AD
ENCODING 173
SWIDTH 512 0
DWIDTH 8 0
BBX 7 2 0 5
BITMAP
FE
FE
ENDCHAR
STARTCHAR registered
ENCODING 174
SWIDTH 512 0
DWIDTH 8 0
BBX 8 13 0 0
BITMAP
3C
42
81
B9
A5
A5
B9
A5
A5
A5
81
42
3C
ENDCHAR
STARTCHAR macron
ENCODING 175
SWIDTH 512 0
DWIDTH 8 0
BBX 7 1 0 11
BITMAP
FE
ENDCHAR
STARTCHAR degree
ENCODING 176
SWIDTH 512 0
DWIDTH 8 0
BBX 5 5 1 8
BITMAP
70
88
88
88
70
ENDCHAR
STARTCHAR plusminus
ENCODING 177
SWIDTH 512 0
DWIDTH 8 0
BBX 7 9 0 1
BITMAP
10
10
10
FE
10
10
10
00
FE
ENDCHAR
STARTCHAR uni00B2
ENCODING 178
SWIDTH 512 0
DWIDTH 8 0
BBX 4 7 1 6
BITMAP
60
90
10
20
40
80
F0
ENDCHAR
STARTCHAR uni00B3
ENCODING 179
SWIDTH 512 0
DWIDTH 8 0
BBX 4 7 1 6
BITMAP
60
90
10
60
10
90
60
ENDCHAR
STARTCHAR acute
ENCODING 180
SWIDTH 512 0
DWIDTH 8 0
BBX 4 3 2 10
BITMAP
30
60
C0
ENDCHAR
STARTCHAR mu
ENCODING 181
SWIDTH 512 0
DWIDTH 8 0
BBX 7 9 0 -2
BITMAP
22
22
22
44
44
6C
54
82
80
ENDCHAR
STARTCHAR paragraph
ENCODING 182
SWIDTH 512 0
DWIDTH 8 0
BBX 8 13 0 0
BITMAP
7F
FA
FA
FA
FA
FA
7A
0A
0A
0A
0A
0A
1B
ENDCHAR
STARTCHAR periodcentered
ENCODING 183
SWIDTH 512 0
DWIDTH 8 0
BBX 2 2 3 6
BITMAP
C0
C0
ENDCHAR
STARTCHAR cedilla
ENCODING 184
SWIDTH 512 0
DWIDTH 8 0
BBX 3 3 3 -2
BITMAP
60
40
80
ENDCHAR
STARTCHAR uni00B9
ENCODING 185
SWIDTH 512 0
DWIDTH 8 0
BBX 3 7 1 6
BITMAP
20
60
A0
20
20
20
20
ENDCHAR
STARTCHAR ordmasculine
ENCODING 186
SWIDTH 512 0
DWIDTH 8 0
BBX 4 8 2 5
BITMAP
60
90
90
90
90
60
00
F0
ENDCHAR
STARTCHAR guillemotright
ENCODING 187
SWIDTH 512 0
DWIDTH 8 0
BBX 8 10 0 0
BITMAP
90
48
24
12
09
09
12
24
48
90
ENDCHAR
STARTCHAR onequarter
ENCODING 188
SWIDTH 512 0
DWIDTH 8 0
BBX 8 13 0 0
BITMAP
20
60
20
20
21
26
08
32
C6
0A
12
1F
02
ENDCHAR
STARTCHAR onehalf
ENCODING 189
SWIDTH 512 0
DWIDTH 8 0
BBX 8 13 0 0
BITMAP
20
60
20
20
21
26
08
36
C9
01
06
08
0F
ENDCHAR
STARTCHAR threequarters
ENCODING 190
SWIDTH 512 0
DWIDTH 8 0
BBX 8 13 0 0
BITMAP
60
90
10
60
11
96
68
32
C6
0A
12
1F
02
ENDCHAR
STARTCHAR questiondown
ENCODING 191
SWIDTH 512 0
DWIDTH 8 0
BBX 7 15 0 -1
BITMAP
10
38
10
00
10
10
10
20
40
40
80
86
82
44
38
ENDCHAR
STARTCHAR Agrave
ENCODING 192
SWIDTH 512 0
DWIDTH 8 0
BBX 7 14 0 0
BITMAP
30
10
08
10
28
28
44
44
44
7C
82
82
82
C6
ENDCHAR
STARTCHAR Aacute
ENCODING 193
SWIDTH 512 0
DWIDTH 8 0
BBX 7 14 0 0
BITMAP
18
10
20
10
28
28
44
44
44
7C
82
82
82
C6
ENDCHAR
STARTCHAR Acircumflex
ENCODING 194
SWIDTH 512 0
DWIDTH 8 0
BBX 7 14 0 0
BITMAP
10
28
44
10
28
28
44
44
44
7C
82
82
82
C6
ENDCHAR
STARTCHAR Atilde
ENCODING 195
SWIDTH 512 0
DWIDTH 8 0
BBX 7 14 0 0
BITMAP
34
48
00
10
28
28
44
44
44
7C
82
82
82
C6
ENDCHAR
STARTCHAR Adieresis
ENCODING 196
SWIDTH 512 0
DWIDTH 8 0
BBX 7 14 0 0
BITMAP
44
44
00
10
28
28
44
44
44
7C
82
82
82
C6
ENDCHAR
STARTCHAR Aring
ENCODING 197
SWIDTH 512 0
DWIDTH 8 0
BBX 7 14 0 0
BITMAP
38
44
38
10
28
28
44
44
44
7C
82
82
82
C6
ENDCHAR
STARTCHAR AE
ENCODING 198
SWIDTH 512 0
DWIDTH 8 0
BBX 8 13 0 0
BITMAP
1F
29
28
48
48
48
4E
F8
88
88
88
89
CF
ENDCHAR
STARTCHAR Ccedilla
ENCODING 199
SWIDTH 512 0
DWIDTH 8 0
BBX 7 15 0 -2
BITMAP
3C
42
40
80
80
80
80
80
80
40
42
3C
08
08
10
ENDCHAR
STARTCHAR Egrave
ENCODING 200
SWIDTH 512 0
DWIDTH 8 0
BBX 7 14 0 0
BITMAP
30
10
08
FE
42
42
40
48
78
48
40
42
42
FE
ENDCHAR
STARTCHAR Eacute
ENCODING 201
SWIDTH 512 0
DWIDTH 8 0
BBX 7 14 0 0
BITMAP
18
10
20
FE
42
42
40
48
78
48
40
42
42
FE
ENDCHAR
STARTCHAR Ecircumflex
ENCODING 202
SWIDTH 512 0
DWIDTH 8 0
BBX 7 14 0 0
BITMAP
30
48
00
FE
42
42
40
48
78
48
40
42
42
FE
ENDCHAR
STARTCHAR Edieresis
ENCODING 203
SWIDTH 512 0
DWIDTH 8 0
BBX 7 14 0 0
BITMAP
44
44
00
FE
42
42
40
48
78
48
40
42
42
FE
ENDCHAR
STARTCHAR Igrave
ENCODING 204
SWIDTH 512 0
DWIDTH 8 0
BBX 7 14 0 0
BITMAP
30
10
08
FE
10
10
10
10
10
10
10
10
10
FE
ENDCHAR
STARTCHAR Iacute
ENCODING 205
SWIDTH 512 0
DWIDTH 8 0
BBX 7 14 0 0
BITMAP
18
10
20
FE
10
10
10
10
10
10
10
10
10
FE
ENDCHAR
STARTCHAR Icircumflex
ENCODING 206
SWIDTH 512 0
DWIDTH 8 0
BBX 7 14 0 0
BITMAP
10
28
44
FE
10
10
10
10
10
10
10
10
10
FE
ENDCHAR
STARTCHAR Idieresis
ENCODING 207
SWIDTH 512 0
DWIDTH 8 0
BBX 7 14 0 0
BITMAP
44
44
00
FE
10
10
10
10
10
10
10
10
10
FE
ENDCHAR
STARTCHAR Eth
ENCODING 208
SWIDTH 512 0
DWIDTH 8 0
BBX 7 13 0 0
BITMAP
F8
44
44
42
42
42
F2
42
42
42
44
44
F8
ENDCHAR
STARTCHAR Ntilde
ENCODING 209
SWIDTH 512 0
DWIDTH 8 0
BBX 8 14 0 0
BITMAP
34
48
00
87
C2
A2
A2
92
92
92
8A
8A
86
C2
ENDCHAR
STARTCHAR Ograve
ENCODING 210
SWIDTH 512 0
DWIDTH 8 0
BBX 7 14 0 0
BITMAP
30
10
08
38
44
82
82
82
82
82
82
82
44
38
ENDCHAR
STARTCHAR Oacute
ENCODING 211
SWIDTH 512 0
DWIDTH 8 0
BBX 7 14 0 0
BITMAP
18
10
20
38
44
82
82
82
82
82
82
82
44
38
ENDCHAR
STARTCHAR Ocircumflex
ENCODING 212
SWIDTH 512 0
DWIDTH 8 0
BBX 7 14 0 0
BITMAP
38
44
00
38
44
82
82
82
82
82
82
82
44
38
ENDCHAR
STARTCHAR Otilde
ENCODING 213
SWIDTH 512 0
DWIDTH 8 0
BBX 7 14 0 0
BITMAP
34
48
00
38
44
82
82
82
82
82
82
82
44
38
ENDCHAR
STARTCHAR Odieresis
ENCODING 214
SWIDTH 512 0
DWIDTH 8 0
BBX 7 14 0 0
BITMAP
44
44
00
38
44
82
82
82
82
82
82
82
44
38
ENDCHAR
STARTCHAR multiply
ENCODING 215
SWIDTH 512 0
DWIDTH 8 0
BBX 8 8 0 2
BITMAP
81
42
24
18
18
24
42
81
ENDCHAR
STARTCHAR Oslash
ENCODING 216
SWIDTH 512 0
DWIDTH 8 0
BBX 7 16 0 -2
BITMAP
02
02
3C
44
86
8A
8A
92
92
A2
A2
C2
44
78
80
80
ENDCHAR
STARTCHAR Ugrave
ENCODING 217
SWIDTH 512 0
DWIDTH 8 0
BBX 8 14 0 0
BITMAP
30
10
08
E7
42
42
42
42
42
42
42
42
42
3C
ENDCHAR
STARTCHAR Uacute
ENCODING 218
SWIDTH 512 0
DWIDTH 8 0
BBX 8 14 0 0
BITMAP
0C
08
10
E7
42
42
42
42
42
42
42
42
42
3C
ENDCHAR
STARTCHAR Ucircumflex
ENCODING 219
SWIDTH 512 0
DWIDTH 8 0
BBX 8 14 0 0
BITMAP
18
24
00
E7
42
42
42
42
42
42
42
42
42
3C
ENDCHAR
STARTCHAR Udieresis
ENCODING 220
SWIDTH 512 0
DWIDTH 8 0
BBX 8 14 0 0
BITMAP
24
24
00
E7
42
42
42
42
42
42
42
42
42
3C
ENDCHAR
STARTCHAR Yacute
ENCODING 221
SWIDTH 512 0
DWIDTH 8 0
BBX 7 14 0 0
BITMAP
0C
08
10
C6
82
44
44
28
28
10
10
10
10
7C
ENDCHAR
STARTCHAR Thorn
ENCODING 222
SWIDTH 512 0
DWIDTH 8 0
BBX 7 14 0 0
BITMAP
E0
40
78
44
42
42
42
44
78
40
40
40
40
F0
ENDCHAR
STARTCHAR germandbls
ENCODING 223
SWIDTH 512 0
DWIDTH 8 0
BBX 6 13 0 0
BITMAP
30
48
84
84
84
88
B0
88
84
84
84
84
B8
ENDCHAR
STARTCHAR agrave
ENCODING 224
SWIDTH 512 0
DWIDTH 8 0
BBX 8 13 0 0
BITMAP
30
10
08
00
3C
42
02
3E
42
82
82
86
7B
ENDCHAR
STARTCHAR aacute
ENCODING 225
SWIDTH 512 0
DWIDTH 8 0
BBX 8 13 0 0
BITMAP
18
10
20
00
3C
42
02
3E
42
82
82
86
7B
ENDCHAR
STARTCHAR acircumflex
ENCODING 226
SWIDTH 512 0
DWIDTH 8 0
BBX 8 13 0 0
BITMAP
18
24
42
00
3C
42
02
3E
42
82
82
86
7B
ENDCHAR
STARTCHAR atilde
ENCODING 227
SWIDTH 512 0
DWIDTH 8 0
BBX 8 13 0 0
BITMAP
32
4C
00
00
3C
42
02
3E
42
82
82
86
7B
ENDCHAR
STARTCHAR adieresis
ENCODING 228
SWIDTH 512 0
DWIDTH 8 0
BBX 8 13 0 0
BITMAP
24
24
00
00
3C
42
02
3E
42
82
82
86
7B
ENDCHAR
STARTCHAR aring
ENCODING 229
SWIDTH 512 0
DWIDTH 8 0
BBX 8 13 0 0
BITMAP
18
24
18
00
3C
42
02
3E
42
82
82
86
7B
ENDCHAR
STARTCHAR ae
ENCODING 230
SWIDTH 512 0
DWIDTH 8 0
BBX 7 9 0 0
BITMAP
6C
92
12
3E
50
90
92
92
6C
ENDCHAR
STARTCHAR ccedilla
ENCODING 231
SWIDTH 512 0
DWIDTH 8 0
BBX 7 12 0 -2
BITMAP
3A
46
82
80
80
80
82
42
3C
10
10
20
ENDCHAR
STARTCHAR egrave
ENCODING 232
SWIDTH 512 0
DWIDTH 8 0
BBX 7 13 0 0
BITMAP
30
10
08
00
38
44
82
FE
80
80
82
42
3C
ENDCHAR
STARTCHAR eacute
ENCODING 233
SWIDTH 512 0
DWIDTH 8 0
BBX 7 13 0 0
BITMAP
18
10
20
00
38
44
82
FE
80
80
82
42
3C
ENDCHAR
STARTCHAR ecircumflex
ENCODING 234
SWIDTH 512 0
DWIDTH 8 0
BBX 7 13 0 0
BITMAP
38
44
82
00
38
44
82
FE
80
80
82
42
3C
ENDCHAR
STARTCHAR edieresis
ENCODING 235
SWIDTH 512 0
DWIDTH 8 0
BBX 7 13 0 0
BITMAP
44
44
00
00
38
44
82
FE
80
80
82
42
3C
ENDCHAR
STARTCHAR igrave
ENCODING 236
SWIDTH 512 0
DWIDTH 8 0
BBX 8 13 0 0
BITMAP
30
10
08
00
78
08
08
08
08
08
08
08
FF
ENDCHAR
STARTCHAR iacute
ENCODING 237
SWIDTH 512 0
DWIDTH 8 0
BBX 8 13 0 0
BITMAP
18
10
20
00
78
08
08
08
08
08
08
08
FF
ENDCHAR
STARTCHAR icircumflex
ENCODING 238
SWIDTH 512 0
DWIDTH 8 0
BBX 8 13 0 0
BITMAP
18
24
42
00
78
08
08
08
08
08
08
08
FF
ENDCHAR
STARTCHAR idieresis
ENCODING 239
SWIDTH 512 0
DWIDTH 8 0
BBX 8 13 0 0
BITMAP
24
24
00
00
78
08
08
08
08
08
08
08
FF
ENDCHAR
STARTCHAR eth
ENCODING 240
SWIDTH 512 0
DWIDTH 8 0
BBX 7 13 0 0
BITMAP
64
18
18
24
44
3A
42
82
82
82
82
42
3C
ENDCHAR
STARTCHAR ntilde
ENCODING 241
SWIDTH 512 0
DWIDTH 8 0
BBX 8 13 0 0
BITMAP
32
4C
00
00
DC
62
42
42
42
42
42
42
E7
ENDCHAR
STARTCHAR ograve
ENCODING 242
SWIDTH 512 0
DWIDTH 8 0
BBX 7 13 0 0
BITMAP
30
10
08
00
38
44
82
82
82
82
82
44
38
ENDCHAR
STARTCHAR oacute
ENCODING 243
SWIDTH 512 0
DWIDTH 8 0
BBX 7 13 0 0
BITMAP
18
10
20
00
38
44
82
82
82
82
82
44
38
ENDCHAR
STARTCHAR ocircumflex
ENCODING 244
SWIDTH 512 0
DWIDTH 8 0
BBX 7 13 0 0
BITMAP
10
28
44
00
38
44
82
82
82
82
82
44
38
ENDCHAR
STARTCHAR otilde
ENCODING 245
SWIDTH 512 0
DWIDTH 8 0
BBX 7 13 0 0
BITMAP
34
48
00
00
38
44
82
82
82
82
82
44
38
ENDCHAR
STARTCHAR odieresis
ENCODING 246
SWIDTH 512 0
DWIDTH 8 0
BBX 7 13 0 0
BITMAP
44
44
00
00
38
44
82
82
82
82
82
44
38
ENDCHAR
STARTCHAR divide
ENCODING 247
SWIDTH 512 0
DWIDTH 8 0
BBX 7 7 0 2
BITMAP
10
10
00
FE
00
10
10
ENDCHAR
STARTCHAR oslash
ENCODING 248
SWIDTH 512 0
DWIDTH 8 0
BBX 7 9 0 0
BITMAP
3A
44
8A
8A
92
A2
A2
44
B8
ENDCHAR
STARTCHAR ugrave
ENCODING 249
SWIDTH 512 0
DWIDTH 8 0
BBX 8 13 0 0
BITMAP
30
10
08
00
C6
42
42
42
42
42
42
46
39
ENDCHAR
STARTCHAR uacute
ENCODING 250
SWIDTH 512 0
DWIDTH 8 0
BBX 8 13 0 0
BITMAP
18
10
20
00
C6
42
42
42
42
42
42
46
39
ENDCHAR
STARTCHAR ucircumflex
ENCODING 251
SWIDTH 512 0
DWIDTH 8 0
BBX 8 13 0 0
BITMAP
10
28
44
00
C6
42
42
42
42
42
42
46
39
ENDCHAR
STARTCHAR udieresis
ENCODING 252
SWIDTH 512 0
DWIDTH 8 0
BBX 8 13 0 0
BITMAP
24
24
00
00
C6
42
42
42
42
42
42
46
39
ENDCHAR
STARTCHAR yacute
ENCODING 253
SWIDTH 512 0
DWIDTH 8 0
BBX 8 15 0 -2
BITMAP
0C
08
10
00
E7
42
22
24
14
08
08
10
10
20
C0
ENDCHAR
STARTCHAR thorn
ENCODING 254
SWIDTH 512 0
DWIDTH 8 0
BBX 7 14 0 -2
BITMAP
C0
40
40
78
44
42
42
42
42
44
78
40
40
F0
ENDCHAR
STARTCHAR ydieresis
ENCODING 255
SWIDTH 512 0
DWIDTH 8 0
BBX 8 15 0 -2
BITMAP
24
24
00
00
E7
42
22
24
14
08
08
10
10
20
C0
ENDCHAR
STARTCHAR Amacron
ENCODING 256
SWIDTH 512 0
DWIDTH 8 0
BBX 7 13 0 0
BITMAP
7C
00
10
28
28
44
44
44
7C
82
82
82
C6
ENDCHAR
STARTCHAR amacron
ENCODING 257
SWIDTH 512 0
DWIDTH 8 0
BBX 8 12 0 0
BITMAP
7C
00
00
3C
42
02
3E
42
82
82
86
7B
ENDCHAR
STARTCHAR Abreve
ENCODING 258
SWIDTH 512 0
DWIDTH 8 0
BBX 7 14 0 0
BITMAP
44
28
10
10
28
28
44
44
44
7C
82
82
82
C6
ENDCHAR
STARTCHAR abreve
ENCODING 259
SWIDTH 512 0
DWIDTH 8 0
BBX 8 13 0 0
BITMAP
44
28
10
00
3C
42
02
3E
42
82
82
86
7B
ENDCHAR
STARTCHAR Aogonek
ENCODING 260
SWIDTH 512 0
DWIDTH 8 0
BBX 7 15 0 -2
BITMAP
10
28
28
28
44
44
44
7C
82
82
82
C6
04
04
08
ENDCHAR
STARTCHAR aogonek
ENCODING 261
SWIDTH 512 0
DWIDTH 8 0
BBX 8 12 0 -2
BITMAP
3C
42
02
3E
42
82
82
86
7B
08
08
10
ENDCHAR
STARTCHAR Cacute
ENCODING 262
SWIDTH 512 0
DWIDTH 8 0
BBX 7 14 0 0
BITMAP
0C
08
10
3A
46
42
80
80
80
80
82
42
42
3C
ENDCHAR
STARTCHAR cacute
ENCODING 263
SWIDTH 512 0
DWIDTH 8 0
BBX 7 13 0 0
BITMAP
0C
08
10
00
3A
46
82
80
80
80
82
42
3C
ENDCHAR
STARTCHAR Ccircumflex
ENCODING 264
SWIDTH 512 0
DWIDTH 8 0
BBX 7 14 0 0
BITMAP
18
24
00
3A
46
42
80
80
80
80
82
42
42
3C
ENDCHAR
STARTCHAR ccircumflex
ENCODING 265
SWIDTH 512 0
DWIDTH 8 0
BBX 7 13 0 0
BITMAP
10
28
44
00
3A
46
82
80
80
80
82
42
3C
ENDCHAR
STARTCHAR Cdotaccent
ENCODING 266
SWIDTH 512 0
DWIDTH 8 0
BBX 7 14 0 0
BITMAP
18
18
00
3A
46
42
80
80
80
80
82
42
42
3C
ENDCHAR
STARTCHAR cdotaccent
ENCODING 267
SWIDTH 512 0
DWIDTH 8 0
BBX 7 12 0 0
BITMAP
18
18
00
3A
46
82
80
80
80
82
42
3C
ENDCHAR
STARTCHAR Ccaron
ENCODING 268
SWIDTH 512 0
DWIDTH 8 0
BBX 7 14 0 0
BITMAP
24
18
00
3A
46
42
80
80
80
80
82
42
42
3C
ENDCHAR
STARTCHAR ccaron
ENCODING 269
SWIDTH 512 0
DWIDTH 8 0
BBX 7 13 0 0
BITMAP
44
28
10
00
3A
46
82
80
80
80
82
42
3C
ENDCHAR
STARTCHAR Dcaron
ENCODING 270
SWIDTH 512 0
DWIDTH 8 0
BBX 7 14 0 0
BITMAP
48
30
00
F8
44
44
42
42
42
42
42
44
44
F8
ENDCHAR
STARTCHAR dcaron
ENCODING 271
SWIDTH 512 0
DWIDTH 8 0
BBX 8 13 0 0
BITMAP
06
05
05
05
3C
44
84
84
84
84
84
44
3E
ENDCHAR
STARTCHAR Dcroat
ENCODING 272
SWIDTH 512 0
DWIDTH 8 0
BBX 7 13 0 0
BITMAP
F8
44
44
42
42
42
F2
42
42
42
44
44
F8
ENDCHAR
STARTCHAR dcroat
ENCODING 273
SWIDTH 512 0
DWIDTH 8 0
BBX 8 13 0 0
BITMAP
06
04
1F
04
3C
44
84
84
84
84
84
44
3E
ENDCHAR
STARTCHAR Emacron
ENCODING 274
SWIDTH 512 0
DWIDTH 8 0
BBX 7 14 0 0
BITMAP
7C
00
00
FE
42
42
40
48
78
48
42
42
42
FE
ENDCHAR
STARTCHAR emacron
ENCODING 275
SWIDTH 512 0
DWIDTH 8 0
BBX 7 12 0 0
BITMAP
7C
00
00
38
44
82
FE
80
80
82
42
3C
ENDCHAR
STARTCHAR Ebreve
ENCODING 276
SWIDTH 512 0
DWIDTH 8 0
BBX 7 14 0 0
BITMAP
48
30
00
FE
42
42
40
48
78
48
42
42
42
FE
ENDCHAR
STARTCHAR ebreve
ENCODING 277
SWIDTH 512 0
DWIDTH 8 0
BBX 7 13 0 0
BITMAP
44
28
10
00
38
44
82
FE
80
80
82
42
3C
ENDCHAR
STARTCHAR Edotaccent
ENCODING 278
SWIDTH 512 0
DWIDTH 8 0
BBX 7 14 0 0
BITMAP
30
30
00
FE
42
42
40
48
78
48
42
42
42
FE
ENDCHAR
STARTCHAR edotaccent
ENCODING 279
SWIDTH 512 0
DWIDTH 8 0
BBX 7 12 0 0
BITMAP
30
30
00
38
44
82
FE
80
80
82
42
3C
ENDCHAR
STARTCHAR Eogonek
ENCODING 280
SWIDTH 512 0
DWIDTH 8 0
BBX 7 15 0 -2
BITMAP
FE
42
42
40
48
78
48
40
42
42
42
FE
08
08
10
ENDCHAR
STARTCHAR eogonek
ENCODING 281
SWIDTH 512 0
DWIDTH 8 0
BBX 7 12 0 -2
BITMAP
38
44
82
FE
80
80
82
42
3C
08
08
10
ENDCHAR
STARTCHAR Ecaron
ENCODING 282
SWIDTH 512 0
DWIDTH 8 0
BBX 7 14 0 0
BITMAP
48
30
00
FE
42
42
40
48
78
48
42
42
42
FE
ENDCHAR
STARTCHAR ecaron
ENCODING 283
SWIDTH 512 0
DWIDTH 8 0
BBX 7 13 0 0
BITMAP
44
28
10
00
38
44
82
FE
80
80
82
42
3C
ENDCHAR
STARTCHAR Gcircumflex
ENCODING 284
SWIDTH 512 0
DWIDTH 8 0
BBX 8 14 0 0
BITMAP
18
24
00
1A
26
42
80
80
8F
82
82
82
66
1A
ENDCHAR
STARTCHAR gcircumflex
ENCODING 285
SWIDTH 512 0
DWIDTH 8 0
BBX 8 15 0 -2
BITMAP
10
28
44
00
3B
44
44
44
38
40
78
84
82
82
7C
ENDCHAR
STARTCHAR Gbreve
ENCODING 286
SWIDTH 512 0
DWIDTH 8 0
BBX 8 14 0 0
BITMAP
24
18
00
1A
26
42
80
80
8F
82
82
82
66
1A
ENDCHAR
STARTCHAR gbreve
ENCODING 287
SWIDTH 512 0
DWIDTH 8 0
BBX 8 15 0 -2
BITMAP
44
28
10
00
3B
44
44
44
38
40
78
84
82
82
7C
ENDCHAR
STARTCHAR Gdotaccent
ENCODING 288
SWIDTH 512 0
DWIDTH 8 0
BBX 8 14 0 0
BITMAP
18
18
00
1A
26
42
80
80
8F
82
82
82
66
1A
ENDCHAR
STARTCHAR gdotaccent
ENCODING 289
SWIDTH 512 0
DWIDTH 8 0
BBX 8 14 0 -2
BITMAP
18
18
00
3B
44
44
44
38
40
78
84
82
82
7C
ENDCHAR
STARTCHAR uni0122
ENCODING 290
SWIDTH 512 0
DWIDTH 8 0
BBX 8 15 0 -2
BITMAP
1A
26
42
40
80
80
8F
82
82
42
66
1A
08
08
10
ENDCHAR
STARTCHAR uni0123
ENCODING 291
SWIDTH 512 0
DWIDTH 8 0
BBX 8 14 0 -2
BITMAP
20
20
10
3B
44
44
44
38
40
78
84
82
82
7C
ENDCHAR
STARTCHAR Hcircumflex
ENCODING 292
SWIDTH 512 0
DWIDTH 8 0
BBX 8 14 0 0
BITMAP
18
24
00
E7
42
42
42
7E
42
42
42
42
42
E7
ENDCHAR
STARTCHAR hcircumflex
ENCODING 293
SWIDTH 512 0
DWIDTH 8 0
BBX 8 13 0 0
BITMAP
60
90
40
40
40
5C
62
42
42
42
42
42
E7
ENDCHAR
STARTCHAR Hbar
ENCODING 294
SWIDTH 512 0
DWIDTH 8 0
BBX 8 13 0 0
BITMAP
E7
42
FF
42
42
7E
42
42
42
42
42
42
E7
ENDCHAR
STARTCHAR hbar
ENCODING 295
SWIDTH 512 0
DWIDTH 8 0
BBX 8 13 0 0
BITMAP
C0
40
F0
40
5C
62
42
42
42
42
42
42
E7
ENDCHAR
STARTCHAR Itilde
ENCODING 296
SWIDTH 512 0
DWIDTH 8 0
BBX 7 14 0 0
BITMAP
34
48
00
FE
10
10
10
10
10
10
10
10
10
FE
ENDCHAR
STARTCHAR itilde
ENCODING 297
SWIDTH 512 0
DWIDTH 8 0
BBX 8 13 0 0
BITMAP
34
48
00
00
78
08
08
08
08
08
08
08
FF
ENDCHAR
STARTCHAR Imacron
ENCODING 298
SWIDTH 512 0
DWIDTH 8 0
BBX 7 14 0 0
BITMAP
7C
00
00
FE
10
10
10
10
10
10
10
10
10
FE
ENDCHAR
STARTCHAR imacron
ENCODING 299
SWIDTH 512 0
DWIDTH 8 0
BBX 8 13 0 0
BITMAP
7C
00
00
00
78
08
08
08
08
08
08
08
FF
ENDCHAR
STARTCHAR Ibreve
ENCODING 300
SWIDTH 512 0
DWIDTH 8 0
BBX 7 14 0 0
BITMAP
44
38
00
FE
10
10
10
10
10
10
10
10
10
FE
ENDCHAR
STARTCHAR ibreve
ENCODING 301
SWIDTH 512 0
DWIDTH 8 0
BBX 8 13 0 0
BITMAP
44
28
10
00
78
08
08
08
08
08
08
08
FF
ENDCHAR
STARTCHAR Iogonek
ENCODING 302
SWIDTH 512 0
DWIDTH 8 0
BBX 7 15 0 -2
BITMAP
FE
10
10
10
10
10
10
10
10
10
10
FE
08
08
10
ENDCHAR
STARTCHAR iogonek
ENCODING 303
SWIDTH 512 0
DWIDTH 8 0
BBX 7 15 0 -2
BITMAP
18
18
00
00
78
08
08
08
08
08
08
FE
04
04
08
ENDCHAR
STARTCHAR Idotaccent
ENCODING 304
SWIDTH 512 0
DWIDTH 8 0
BBX 7 14 0 0
BITMAP
10
10
00
FE
10
10
10
10
10
10
10
10
10
FE
ENDCHAR
STARTCHAR dotlessi
ENCODING 305
SWIDTH 512 0
DWIDTH 8 0
BBX 8 9 0 0
BITMAP
78
08
08
08
08
08
08
08
FF
ENDCHAR
STARTCHAR IJ
ENCODING 306
SWIDTH 512 0
DWIDTH 8 0
BBX 8 13 0 0
BITMAP
EF
42
42
42
42
42
42
42
42
42
52
52
EC
ENDCHAR
STARTCHAR ij
ENCODING 307
SWIDTH 512 0
DWIDTH 8 0
BBX 8 16 0 -2
BITMAP
63
63
00
00
00
EF
21
21
21
21
21
21
21
F1
09
06
ENDCHAR
STARTCHAR Jcircumflex
ENCODING 308
SWIDTH 512 0
DWIDTH 8 0
BBX 8 14 0 0
BITMAP
06
09
00
1F
02
02
02
02
02
82
82
82
44
38
ENDCHAR
STARTCHAR jcircumflex
ENCODING 309
SWIDTH 512 0
DWIDTH 8 0
BBX 7 15 0 -2
BITMAP
0C
12
00
00
3E
02
02
02
02
02
02
82
82
44
38
ENDCHAR
STARTCHAR uni0136
ENCODING 310
SWIDTH 512 0
DWIDTH 8 0
BBX 8 14 0 -1
BITMAP
E3
42
44
48
48
70
50
48
48
44
42
E3
18
18
ENDCHAR
STARTCHAR uni0137
ENCODING 311
SWIDTH 512 0
DWIDTH 8 0
BBX 8 14 0 -1
BITMAP
C0
40
40
46
44
48
58
64
44
42
42
E3
18
18
ENDCHAR
STARTCHAR kgreenlandic
ENCODING 312
SWIDTH 512 0
DWIDTH 8 0
BBX 8 9 0 0
BITMAP
C6
44
48
58
64
44
42
42
E3
ENDCHAR
STARTCHAR Lacute
ENCODING 313
SWIDTH 512 0
DWIDTH 8 0
BBX 7 14 0 0
BITMAP
18
10
20
E0
40
40
40
40
40
40
42
42
42
FE
ENDCHAR
STARTCHAR lacute
ENCODING 314
SWIDTH 512 0
DWIDTH 8 0
BBX 8 14 0 0
BITMAP
0C
08
10
78
08
08
08
08
08
08
08
08
08
FF
ENDCHAR
STARTCHAR uni013B
ENCODING 315
SWIDTH 512 0
DWIDTH 8 0
BBX 7 14 0 -1
BITMAP
F0
40
40
40
40
40
40
42
42
42
FE
08
08
10
ENDCHAR
STARTCHAR uni013C
ENCODING 316
SWIDTH 512 0
DWIDTH 8 0
BBX 8 14 0 -1
BITMAP
78
08
08
08
08
08
08
08
08
08
FF
04
04
08
ENDCHAR
STARTCHAR Lcaron
ENCODING 317
SWIDTH 512 0
DWIDTH 8 0
BBX 7 13 0 0
BITMAP
F6
42
44
40
40
40
40
40
40
42
42
42
FE
ENDCHAR
STARTCHAR lcaron
ENCODING 318
SWIDTH 512 0
DWIDTH 8 0
BBX 8 13 0 0
BITMAP
7B
09
0A
08
08
08
08
08
08
08
08
08
FF
ENDCHAR
STARTCHAR Ldot
ENCODING 319
SWIDTH 512 0
DWIDTH 8 0
BBX 7 13 0 0
BITMAP
F0
40
40
40
40
4C
4C
40
40
42
42
42
FE
ENDCHAR
STARTCHAR ldot
ENCODING 320
SWIDTH 512 0
DWIDTH 8 0
BBX 8 13 0 0
BITMAP
78
08
08
08
08
0B
0B
08
08
08
08
08
FF
ENDCHAR
STARTCHAR Lslash
ENCODING 321
SWIDTH 512 0
DWIDTH 8 0
BBX 7 13 0 0
BITMAP
F0
40
40
48
50
60
40
C0
40
42
42
42
FE
ENDCHAR
STARTCHAR lslash
ENCODING 322
SWIDTH 512 0
DWIDTH 8 0
BBX 8 13 0 0
BITMAP
78
08
08
0A
0C
08
18
28
08
08
08
08
FF
ENDCHAR
STARTCHAR Nacute
ENCODING 323
SWIDTH 512 0
DWIDTH 8 0
BBX 8 14 0 0
BITMAP
18
10
20
87
C2
A2
A2
92
92
92
8A
8A
86
C2
ENDCHAR
STARTCHAR nacute
ENCODING 324
SWIDTH 512 0
DWIDTH 8 0
BBX 8 13 0 0
BITMAP
18
10
20
00
DC
62
42
42
42
42
42
42
E7
ENDCHAR
STARTCHAR uni0145
ENCODING 325
SWIDTH 512 0
DWIDTH 8 0
BBX 8 14 0 -1
BITMAP
87
C2
A2
A2
A2
92
92
8A
8A
8A
86
CA
08
10
ENDCHAR
STARTCHAR uni0146
ENCODING 326
SWIDTH 512 0
DWIDTH 8 0
BBX 8 10 0 -1
BITMAP
DC
62
42
42
42
42
42
E7
04
08
ENDCHAR
STARTCHAR Ncaron
ENCODING 327
SWIDTH 512 0
DWIDTH 8 0
BBX 8 14 0 0
BITMAP
44
28
10
87
C2
A2
A2
92
92
92
8A
8A
86
C2
ENDCHAR
STARTCHAR ncaron
ENCODING 328
SWIDTH 512 0
DWIDTH 8 0
BBX 8 12 0 0
BITMAP
24
18
00
DC
62
42
42
42
42
42
42
E7
ENDCHAR
STARTCHAR napostrophe
ENCODING 329
SWIDTH 512 0
DWIDTH 8 0
BBX 8 13 0 0
BITMAP
C0
40
80
00
DC
62
42
42
42
42
42
42
E7
ENDCHAR
STARTCHAR Eng
ENCODING 330
SWIDTH 512 0
DWIDTH 8 0
BBX 8 15 0 -2
BITMAP
87
C2
A2
A2
A2
92
92
8A
8A
8A
86
C2
04
04
08
ENDCHAR
STARTCHAR eng
ENCODING 331
SWIDTH 512 0
DWIDTH 8 0
BBX 8 12 0 -2
BITMAP
DC
62
42
42
42
42
42
42
E7
04
04
08
ENDCHAR
STARTCHAR Omacron
ENCODING 332
SWIDTH 512 0
DWIDTH 8 0
BBX 7 14 0 0
BITMAP
7C
00
00
38
44
82
82
82
82
82
82
82
44
38
ENDCHAR
STARTCHAR omacron
ENCODING 333
SWIDTH 512 0
DWIDTH 8 0
BBX 7 12 0 0
BITMAP
7C
00
00
38
44
82
82
82
82
82
44
38
ENDCHAR
STARTCHAR Obreve
ENCODING 334
SWIDTH 512 0
DWIDTH 8 0
BBX 7 14 0 0
BITMAP
44
38
00
38
44
82
82
82
82
82
82
82
44
38
ENDCHAR
STARTCHAR obreve
ENCODING 335
SWIDTH 512 0
DWIDTH 8 0
BBX 7 13 0 0
BITMAP
44
28
10
00
38
44
82
82
82
82
82
44
38
ENDCHAR
STARTCHAR Ohungarumlaut
ENCODING 336
SWIDTH 512 0
DWIDTH 8 0
BBX 7 14 0 0
BITMAP
36
24
48
38
44
82
82
82
82
82
82
82
44
38
ENDCHAR
STARTCHAR ohungarumlaut
ENCODING 337
SWIDTH 512 0
DWIDTH 8 0
BBX 7 13 0 0
BITMAP
36
24
48
00
38
44
82
82
82
82
82
44
38
ENDCHAR
STARTCHAR OE
ENCODING 338
SWIDTH 512 0
DWIDTH 8 0
BBX 8 13 0 0
BITMAP
6F
99
88
88
88
88
8E
88
88
88
88
99
6F
ENDCHAR
STARTCHAR oe
ENCODING 339
SWIDTH 512 0
DWIDTH 8 0
BBX 7 9 0 0
BITMAP
6C
92
92
9E
90
90
92
92
6C
ENDCHAR
STARTCHAR Racute
ENCODING 340
SWIDTH 512 0
DWIDTH 8 0
BBX 8 14 0 0
BITMAP
18
10
20
F8
44
42
42
44
78
48
44
44
42
E3
ENDCHAR
STARTCHAR racute
ENCODING 341
SWIDTH 512 0
DWIDTH 8 0
BBX 7 13 0 0
BITMAP
18
10
20
00
EC
32
22
20
20
20
20
20
FC
ENDCHAR
STARTCHAR uni0156
ENCODING 342
SWIDTH 512 0
DWIDTH 8 0
BBX 8 15 0 -2
BITMAP
F8
44
42
42
42
44
78
48
44
44
42
E3
04
04
08
ENDCHAR
STARTCHAR uni0157
ENCODING 343
SWIDTH 512 0
DWIDTH 8 0
BBX 7 12 0 -2
BITMAP
EC
32
22
20
20
20
20
20
FC
08
08
10
ENDCHAR
STARTCHAR Rcaron
ENCODING 344
SWIDTH 512 0
DWIDTH 8 0
BBX 8 14 0 0
BITMAP
44
28
10
F8
44
42
42
44
78
48
44
44
42
E3
ENDCHAR
STARTCHAR rcaron
ENCODING 345
SWIDTH 512 0
DWIDTH 8 0
BBX 7 13 0 0
BITMAP
44
28
10
00
EC
32
22
20
20
20
20
20
FC
ENDCHAR
STARTCHAR Sacute
ENCODING 346
SWIDTH 512 0
DWIDTH 8 0
BBX 7 14 0 0
BITMAP
18
10
20
34
4C
84
80
60
18
04
82
82
C4
B8
ENDCHAR
STARTCHAR sacute
ENCODING 347
SWIDTH 512 0
DWIDTH 8 0
BBX 7 13 0 0
BITMAP
18
10
20
00
3A
46
42
40
3C
02
82
C2
BC
ENDCHAR
STARTCHAR Scircumflex
ENCODING 348
SWIDTH 512 0
DWIDTH 8 0
BBX 7 14 0 0
BITMAP
38
44
00
34
4C
84
80
60
18
04
82
82
C4
B8
ENDCHAR
STARTCHAR scircumflex
ENCODING 349
SWIDTH 512 0
DWIDTH 8 0
BBX 7 13 0 0
BITMAP
10
28
44
00
3A
46
42
40
3C
02
82
C2
BC
ENDCHAR
STARTCHAR Scedilla
ENCODING 350
SWIDTH 512 0
DWIDTH 8 0
BBX 7 15 0 -2
BITMAP
34
4C
84
80
80
60
18
04
82
82
C4
B8
08
08
10
ENDCHAR
STARTCHAR scedilla
ENCODING 351
SWIDTH 512 0
DWIDTH 8 0
BBX 7 12 0 -2
BITMAP
3A
46
42
40
3C
02
82
C2
BC
08
08
10
ENDCHAR
STARTCHAR Scaron
ENCODING 352
SWIDTH 512 0
DWIDTH 8 0
BBX 7 14 0 0
BITMAP
44
38
00
34
4C
84
80
60
18
04
82
82
C4
B8
ENDCHAR
STARTCHAR scaron
ENCODING 353
SWIDTH 512 0
DWIDTH 8 0
BBX 7 13 0 0
BITMAP
44
28
10
00
3A
46
42
40
3C
02
82
C2
BC
ENDCHAR
STARTCHAR uni0162
ENCODING 354
SWIDTH 512 0
DWIDTH 8 0
BBX 7 15 0 -2
BITMAP
FE
92
92
10
10
10
10
10
10
10
10
7C
08
08
10
ENDCHAR
STARTCHAR uni0163
ENCODING 355
SWIDTH 512 0
DWIDTH 8 0
BBX 7 14 0 -2
BITMAP
20
20
20
FC
20
20
20
20
22
22
1C
08
08
10
ENDCHAR
STARTCHAR Tcaron
ENCODING 356
SWIDTH 512 0
DWIDTH 8 0
BBX 7 14 0 0
BITMAP
44
38
00
FE
92
92
10
10
10
10
10
10
10
7C
ENDCHAR
STARTCHAR tcaron
ENCODING 357
SWIDTH 512 0
DWIDTH 8 0
BBX 7 13 0 0
BITMAP
48
30
00
20
20
FC
20
20
20
20
22
22
1C
ENDCHAR
STARTCHAR Tbar
ENCODING 358
SWIDTH 512 0
DWIDTH 8 0
BBX 7 13 0 0
BITMAP
FE
92
92
10
10
10
FE
10
10
10
10
10
7C
ENDCHAR
STARTCHAR tbar
ENCODING 359
SWIDTH 512 0
DWIDTH 8 0
BBX 7 12 0 0
BITMAP
20
20
20
FC
20
20
FE
20
20
22
22
1C
ENDCHAR
STARTCHAR Utilde
ENCODING 360
SWIDTH 512 0
DWIDTH 8 0
BBX 8 14 0 0
BITMAP
32
4C
00
E7
42
42
42
42
42
42
42
42
42
3C
ENDCHAR
STARTCHAR utilde
ENCODING 361
SWIDTH 512 0
DWIDTH 8 0
BBX 8 13 0 0
BITMAP
32
4C
00
00
C6
42
42
42
42
42
42
46
39
ENDCHAR
STARTCHAR Umacron
ENCODING 362
SWIDTH 512 0
DWIDTH 8 0
BBX 8 14 0 0
BITMAP
7E
00
00
E7
42
42
42
42
42
42
42
42
42
3C
ENDCHAR
STARTCHAR umacron
ENCODING 363
SWIDTH 512 0
DWIDTH 8 0
BBX 8 12 0 0
BITMAP
7E
00
00
C6
42
42
42
42
42
42
46
39
ENDCHAR
STARTCHAR Ubreve
ENCODING 364
SWIDTH 512 0
DWIDTH 8 0
BBX 8 14 0 0
BITMAP
24
18
00
E7
42
42
42
42
42
42
42
42
42
3C
ENDCHAR
STARTCHAR ubreve
ENCODING 365
SWIDTH 512 0
DWIDTH 8 0
BBX 8 13 0 0
BITMAP
44
28
10
00
C6
42
42
42
42
42
42
46
39
ENDCHAR
STARTCHAR Uring
ENCODING 366
SWIDTH 512 0
DWIDTH 8 0
BBX 8 14 0 0
BITMAP
18
24
18
E7
42
42
42
42
42
42
42
42
42
3C
ENDCHAR
STARTCHAR uring
ENCODING 367
SWIDTH 512 0
DWIDTH 8 0
BBX 8 13 0 0
BITMAP
18
24
18
00
C6
42
42
42
42
42
42
46
39
ENDCHAR
STARTCHAR Uhungarumlaut
ENCODING 368
SWIDTH 512 0
DWIDTH 8 0
BBX 8 14 0 0
BITMAP
36
24
48
E7
42
42
42
42
42
42
42
42
42
3C
ENDCHAR
STARTCHAR uhungarumlaut
ENCODING 369
SWIDTH 512 0
DWIDTH 8 0
BBX 8 13 0 0
BITMAP
36
24
48
00
C6
42
42
42
42
42
42
46
39
ENDCHAR
STARTCHAR Uogonek
ENCODING 370
SWIDTH 512 0
DWIDTH 8 0
BBX 8 15 0 -2
BITMAP
E7
42
42
42
42
42
42
42
42
42
42
3C
10
10
08
ENDCHAR
STARTCHAR uogonek
ENCODING 371
SWIDTH 512 0
DWIDTH 8 0
BBX 8 12 0 -2
BITMAP
C6
42
42
42
42
42
42
46
39
02
02
01
ENDCHAR
STARTCHAR Wcircumflex
ENCODING 372
SWIDTH 512 0
DWIDTH 8 0
BBX 7 14 0 0
BITMAP
38
44
00
C6
82
82
92
92
92
AA
AA
AA
44
44
ENDCHAR
STARTCHAR wcircumflex
ENCODING 373
SWIDTH 512 0
DWIDTH 8 0
BBX 7 13 0 0
BITMAP
10
28
44
00
92
92
92
92
AA
AA
44
44
44
ENDCHAR
STARTCHAR Ycircumflex
ENCODING 374
SWIDTH 512 0
DWIDTH 8 0
BBX 7 14 0 0
BITMAP
38
44
00
C6
82
44
44
28
28
10
10
10
10
7C
ENDCHAR
STARTCHAR ycircumflex
ENCODING 375
SWIDTH 512 0
DWIDTH 8 0
BBX 8 15 0 -2
BITMAP
18
24
42
00
E7
42
22
24
14
08
08
10
10
20
C0
ENDCHAR
STARTCHAR Ydieresis
ENCODING 376
SWIDTH 512 0
DWIDTH 8 0
BBX 7 14 0 0
BITMAP
28
28
00
C6
82
44
44
28
28
10
10
10
10
7C
ENDCHAR
STARTCHAR Zacute
ENCODING 377
SWIDTH 512 0
DWIDTH 8 0
BBX 7 14 0 0
BITMAP
18
10
20
FE
84
88
08
10
10
20
20
42
82
FE
ENDCHAR
STARTCHAR zacute
ENCODING 378
SWIDTH 512 0
DWIDTH 8 0
BBX 7 13 0 0
BITMAP
18
10
20
00
7E
44
08
08
10
10
22
42
FE
ENDCHAR
STARTCHAR Zdotaccent
ENCODING 379
SWIDTH 512 0
DWIDTH 8 0
BBX 7 14 0 0
BITMAP
30
30
00
FE
84
88
08
10
10
20
20
42
82
FE
ENDCHAR
STARTCHAR zdotaccent
ENCODING 380
SWIDTH 512 0
DWIDTH 8 0
BBX 7 12 0 0
BITMAP
18
18
00
7E
44
08
08
10
10
22
42
FE
ENDCHAR
STARTCHAR Zcaron
ENCODING 381
SWIDTH 512 0
DWIDTH 8 0
BBX 7 14 0 0
BITMAP
44
38
00
FE
84
88
08
10
10
20
20
42
82
FE
ENDCHAR
STARTCHAR zcaron
ENCODING 382
SWIDTH 512 0
DWIDTH 8 0
BBX 7 13 0 0
BITMAP
44
28
10
00
7E
44
08
08
10
10
22
42
FE
ENDCHAR
STARTCHAR uni0251
ENCODING 593
SWIDTH 768 0
DWIDTH 16 0
BBX 12 9 2 0
BITMAP
1EC0
31C0
40C0
C0C0
C0C0
C0C0
40C0
21C0
1EF0
ENDCHAR
STARTCHAR uni0252
ENCODING 594
SWIDTH 768 0
DWIDTH 16 0
BBX 12 9 2 0
BITMAP
F780
3840
3020
3030
3030
3030
3020
38C0
2780
ENDCHAR
STARTCHAR uni0253
ENCODING 595
SWIDTH 768 0
DWIDTH 16 0
BBX 10 14 4 0
BITMAP
1F80
6040
40C0
C000
C000
DE00
E100
C080
C0C0
C0C0
C0C0
C080
E300
9E00
ENDCHAR
STARTCHAR uni0254
ENCODING 596
SWIDTH 624 0
DWIDTH 13 0
BBX 9 9 2 0
BITMAP
7C00
8200
0100
0180
0180
0180
0100
C200
7C00
ENDCHAR
STARTCHAR uni0256
ENCODING 598
SWIDTH 768 0
DWIDTH 16 0
BBX 15 18 2 -4
BITMAP
03C0
00C0
00C0
00C0
00C0
1EC0
21C0
40C0
C0C0
C0C0
C0C0
40C0
61C0
1EC0
00C0
00C0
0066
003C
ENDCHAR
STARTCHAR uni0257
ENCODING 599
SWIDTH 768 0
DWIDTH 16 0
BBX 15 14 2 0
BITMAP
003C
0066
00C0
00C0
00C0
1EC0
21C0
40C0
C0C0
C0C0
C0C0
40C0
61C0
1EF0
ENDCHAR
STARTCHAR uni0259
ENCODING 601
SWIDTH 624 0
DWIDTH 13 0
BBX 9 9 2 0
BITMAP
7C00
8300
0100
0180
0180
FF80
C100
4300
3C00
ENDCHAR
STARTCHAR uni025B
ENCODING 603
SWIDTH 624 0
DWIDTH 13 0
BBX 9 9 2 0
BITMAP
3F00
7F80
8000
FE00
7E00
8000
C080
7F80
3E00
ENDCHAR
STARTCHAR uni025F
ENCODING 607
SWIDTH 432 0
DWIDTH 9 0
BBX 9 13 -1 -4
BITMAP
1E00
0600
0600
0600
0600
0600
0600
0600
0600
3F80
0600
C400
7800
ENDCHAR
STARTCHAR uni0261
ENCODING 609
SWIDTH 720 0
DWIDTH 15 0
BBX 10 14 2 -5
BITMAP
1E40
31C0
60C0
C0C0
C0C0
C0C0
60C0
21C0
1EC0
00C0
C0C0
C180
4100
3E00
ENDCHAR
STARTCHAR uni0265
ENCODING 613
SWIDTH 768 0
DWIDTH 16 0
BBX 12 13 2 -4
BITMAP
F3C0
30C0
30C0
30C0
30C0
30C0
30C0
31C0
1EC0
00C0
00C0
00C0
03F0
ENDCHAR
STARTCHAR uni0266
ENCODING 614
SWIDTH 768 0
DWIDTH 16 0
BBX 12 14 2 0
BITMAP
0F80
1840
30C0
3000
3000
3780
38C0
30C0
30C0
30C0
30C0
30C0
30C0
FDF0
ENDCHAR
STARTCHAR uni0269
ENCODING 617
SWIDTH 480 0
DWIDTH 10 0
BBX 7 9 1 0
BITMAP
F0
30
30
30
30
32
32
32
1C
ENDCHAR
STARTCHAR uni026F
ENCODING 623
SWIDTH 1104 0
DWIDTH 23 0
BBX 20 9 1 0
BITMAP
FDFBF0
3060C0
3060C0
3060C0
3060C0
3060C0
3060C0
30E1C0
1F3EF0
ENDCHAR
STARTCHAR uni0271
ENCODING 625
SWIDTH 1104 0
DWIDTH 23 0
BBX 18 13 2 -4
BITMAP
F7CF80
3870C0
3060C0
3060C0
3060C0
3060C0
3060C0
3060C0
FDF8C0
0000C0
0000C0
001880
000F00
ENDCHAR
STARTCHAR uni0272
ENCODING 626
SWIDTH 768 0
DWIDTH 16 0
BBX 15 13 -1 -4
BITMAP
1EF0
0708
060C
060C
060C
060C
060C
060C
063E
0600
0600
C400
7800
ENDCHAR
STARTCHAR uni0275
ENCODING 629
SWIDTH 624 0
DWIDTH 13 0
BBX 9 14 2 0
BITMAP
1C00
2200
6300
4100
C180
C180
FF80
FF80
C180
C180
4100
6300
2200
1C00
ENDCHAR
STARTCHAR uni0277
ENCODING 631
SWIDTH 816 0
DWIDTH 17 0
BBX 13 10 2 0
BITMAP
0200
3FE0
6030
C018
C018
C318
C318
4310
6330
1CE0
ENDCHAR
STARTCHAR uni0278
ENCODING 632
SWIDTH 816 0
DWIDTH 17 0
BBX 13 18 2 -4
BITMAP
0200
0200
0200
0200
0200
0F80
3260
6230
C218
C218
C218
6230
3260
0F80
0200
0200
0200
0200
ENDCHAR
STARTCHAR uni0279
ENCODING 633
SWIDTH 528 0
DWIDTH 11 0
BBX 9 9 1 0
BITMAP
1E00
0600
0600
0600
0600
0600
0600
CE00
7780
ENDCHAR
STARTCHAR uni027E
ENCODING 638
SWIDTH 528 0
DWIDTH 11 0
BBX 9 9 1 0
BITMAP
0700
1980
1000
3000
3000
3000
3000
3000
FC00
ENDCHAR
STARTCHAR uni0283
ENCODING 643
SWIDTH 432 0
DWIDTH 9 0
BBX 11 18 -1 -4
BITMAP
03C0
0660
0600
0E00
0E00
0E00
0E00
0E00
0E00
0E00
0E00
0E00
0E00
0E00
0E00
0C00
CC00
7800
ENDCHAR
STARTCHAR uni028A
ENCODING 650
SWIDTH 768 0
DWIDTH 16 0
BBX 12 9 2 0
BITMAP
70E0
70E0
A050
6060
C030
C030
C030
6060
1F80
ENDCHAR
STARTCHAR uni028B
ENCODING 651
SWIDTH 672 0
DWIDTH 14 0
BBX 11 9 1 0
BITMAP
6040
B060
B020
3020
3020
3020
3040
1840
0F80
ENDCHAR
STARTCHAR uni028C
ENCODING 652
SWIDTH 720 0
DWIDTH 15 0
BBX 11 9 2 0
BITMAP
0400
0E00
0E00
1300
1300
2180
2180
60C0
F3E0
ENDCHAR
STARTCHAR uni028D
ENCODING 653
SWIDTH 960 0
DWIDTH 20 0
BBX 16 9 2 0
BITMAP
0810
1C38
1C38
1438
264C
264C
638E
4386
E7CF
ENDCHAR
STARTCHAR uni028E
ENCODING 654
SWIDTH 720 0
DWIDTH 15 0
BBX 12 13 2 0
BITMAP
01E0
0330
0200
0400
0400
0E00
0E00
1300
1300
2180
2180
60C0
F3E0
ENDCHAR
STARTCHAR uni0292
ENCODING 658
SWIDTH 624 0
DWIDTH 13 0
BBX 9 13 2 -4
BITMAP
FF80
FF80
C200
8400
8800
3E00
0300
0180
0180
C180
C180
4300
3C00
ENDCHAR
STARTCHAR uni0294
ENCODING 660
SWIDTH 624 0
DWIDTH 13 0
BBX 9 14 2 0
BITMAP
7E00
8180
C180
0300
0C00
0800
1800
1800
1800
1800
1800
1800
1800
3E00
ENDCHAR
STARTCHAR caron
ENCODING 711
SWIDTH 1000 0
DWIDTH 16 0
BBX 10 10 3 1
BITMAP
0040
0080
0100
0300
8600
CC00
DC00
7800
7000
2000
ENDCHAR
STARTCHAR uni02C9
ENCODING 713
SWIDTH 1000 0
DWIDTH 16 0
BBX 8 2 4 6
BITMAP
FF
FF
ENDCHAR
STARTCHAR uni02CA
ENCODING 714
SWIDTH 1000 0
DWIDTH 16 0
BBX 9 9 3 3
BITMAP
0080
0100
0200
0600
0C00
1800
3000
7000
E000
ENDCHAR
STARTCHAR uni02CB
ENCODING 715
SWIDTH 1000 0
DWIDTH 16 0
BBX 9 7 4 2
BITMAP
E000
7000
3800
0C00
0600
0100
0080
ENDCHAR
STARTCHAR breve
ENCODING 728
SWIDTH 1000 0
DWIDTH 16 0
BBX 7 3 4 10
BITMAP
82
44
38
ENDCHAR
STARTCHAR dotaccent
ENCODING 729
SWIDTH 1000 0
DWIDTH 16 0
BBX 4 3 6 10
BITMAP
60
F0
60
ENDCHAR
STARTCHAR ring
ENCODING 730
SWIDTH 1000 0
DWIDTH 16 0
BBX 4 3 6 10
BITMAP
60
90
60
ENDCHAR
STARTCHAR ogonek
ENCODING 731
SWIDTH 1000 0
DWIDTH 16 0
BBX 3 5 6 -1
BITMAP
20
40
80
40
20
ENDCHAR
STARTCHAR tilde
ENCODING 732
SWIDTH 1000 0
DWIDTH 16 0
BBX 9 2 3 11
BITMAP
3980
C600
ENDCHAR
STARTCHAR hungarumlaut
ENCODING 733
SWIDTH 1000 0
DWIDTH 16 0
BBX 6 4 5 9
BITMAP
6C
6C
48
90
ENDCHAR
STARTCHAR tonos
ENCODING 900
SWIDTH 512 0
DWIDTH 8 0
BBX 1 3 3 11
BITMAP
80
80
80
ENDCHAR
STARTCHAR dieresistonos
ENCODING 901
SWIDTH 512 0
DWIDTH 8 0
BBX 5 5 1 9
BITMAP
20
20
20
88
88
ENDCHAR
STARTCHAR Alphatonos
ENCODING 902
SWIDTH 512 0
DWIDTH 8 0
BBX 6 14 1 0
BITMAP
80
80
80
00
30
48
48
84
84
FC
84
84
84
84
ENDCHAR
STARTCHAR Epsilontonos
ENCODING 904
SWIDTH 512 0
DWIDTH 8 0
BBX 6 14 1 0
BITMAP
80
80
80
00
FC
80
80
80
F8
80
80
80
80
FC
ENDCHAR
STARTCHAR Etatonos
ENCODING 905
SWIDTH 512 0
DWIDTH 8 0
BBX 6 14 1 0
BITMAP
80
80
80
00
84
84
84
84
FC
84
84
84
84
84
ENDCHAR
STARTCHAR Iotatonos
ENCODING 906
SWIDTH 512 0
DWIDTH 8 0
BBX 6 14 1 0
BITMAP
80
80
80
00
7C
10
10
10
10
10
10
10
10
7C
ENDCHAR
STARTCHAR Omicrontonos
ENCODING 908
SWIDTH 512 0
DWIDTH 8 0
BBX 6 14 1 0
BITMAP
80
80
80
00
78
84
84
84
84
84
84
84
84
78
ENDCHAR
STARTCHAR Upsilontonos
ENCODING 910
SWIDTH 512 0
DWIDTH 8 0
BBX 7 14 1 0
BITMAP
80
80
80
00
82
82
44
44
28
10
10
10
10
10
ENDCHAR
STARTCHAR Omegatonos
ENCODING 911
SWIDTH 512 0
DWIDTH 8 0
BBX 7 15 1 -1
BITMAP
80
80
80
00
7C
82
82
82
82
82
82
44
28
28
EE
ENDCHAR
STARTCHAR iotadieresistonos
ENCODING 912
SWIDTH 512 0
DWIDTH 8 0
BBX 5 14 1 0
BITMAP
20
20
20
88
88
00
20
20
20
20
20
20
20
18
ENDCHAR
STARTCHAR Alpha
ENCODING 913
SWIDTH 512 0
DWIDTH 8 0
BBX 6 10 1 0
BITMAP
30
48
48
84
84
FC
84
84
84
84
ENDCHAR
STARTCHAR Beta
ENCODING 914
SWIDTH 512 0
DWIDTH 8 0
BBX 6 10 1 0
BITMAP
F8
84
84
84
F8
84
84
84
84
F8
ENDCHAR
STARTCHAR Gamma
ENCODING 915
SWIDTH 512 0
DWIDTH 8 0
BBX 6 10 1 0
BITMAP
FC
80
80
80
80
80
80
80
80
80
ENDCHAR
STARTCHAR uni0394
ENCODING 916
SWIDTH 512 0
DWIDTH 8 0
BBX 7 10 1 0
BITMAP
10
10
28
28
44
44
44
82
82
FE
ENDCHAR
STARTCHAR Epsilon
ENCODING 917
SWIDTH 512 0
DWIDTH 8 0
BBX 6 10 1 0
BITMAP
FC
80
80
80
F8
80
80
80
80
FC
ENDCHAR
STARTCHAR Zeta
ENCODING 918
SWIDTH 512 0
DWIDTH 8 0
BBX 6 10 1 0
BITMAP
FC
04
04
08
10
20
40
80
80
FC
ENDCHAR
STARTCHAR Eta
ENCODING 919
SWIDTH 512 0
DWIDTH 8 0
BBX 6 10 1 0
BITMAP
84
84
84
84
FC
84
84
84
84
84
ENDCHAR
STARTCHAR Theta
ENCODING 920
SWIDTH 512 0
DWIDTH 8 0
BBX 6 10 1 0
BITMAP
78
84
84
84
FC
84
84
84
84
78
ENDCHAR
STARTCHAR Iota
ENCODING 921
SWIDTH 512 0
DWIDTH 8 0
BBX 5 10 2 0
BITMAP
F8
20
20
20
20
20
20
20
20
F8
ENDCHAR
STARTCHAR Kappa
ENCODING 922
SWIDTH 512 0
DWIDTH 8 0
BBX 6 10 1 0
BITMAP
84
88
90
A0
C0
C0
A0
90
88
84
ENDCHAR
STARTCHAR Lambda
ENCODING 923
SWIDTH 512 0
DWIDTH 8 0
BBX 7 10 1 0
BITMAP
10
10
28
28
44
44
44
82
82
82
ENDCHAR
STARTCHAR Mu
ENCODING 924
SWIDTH 512 0
DWIDTH 8 0
BBX 6 10 1 0
BITMAP
84
84
CC
CC
B4
B4
84
84
84
84
ENDCHAR
STARTCHAR Nu
ENCODING 925
SWIDTH 512 0
DWIDTH 8 0
BBX 6 10 1 0
BITMAP
84
C4
C4
A4
A4
94
94
8C
8C
84
ENDCHAR
STARTCHAR Xi
ENCODING 926
SWIDTH 512 0
DWIDTH 8 0
BBX 6 10 1 0
BITMAP
FC
00
00
00
78
00
00
00
00
FC
ENDCHAR
STARTCHAR Omicron
ENCODING 927
SWIDTH 512 0
DWIDTH 8 0
BBX 6 10 1 0
BITMAP
78
84
84
84
84
84
84
84
84
78
ENDCHAR
STARTCHAR Pi
ENCODING 928
SWIDTH 512 0
DWIDTH 8 0
BBX 7 10 1 0
BITMAP
FE
44
44
44
44
44
44
44
44
44
ENDCHAR
STARTCHAR Rho
ENCODING 929
SWIDTH 512 0
DWIDTH 8 0
BBX 6 10 1 0
BITMAP
F8
84
84
84
F8
80
80
80
80
80
ENDCHAR
STARTCHAR Sigma
ENCODING 931
SWIDTH 512 0
DWIDTH 8 0
BBX 6 10 1 0
BITMAP
FC
80
40
20
10
10
20
40
80
FC
ENDCHAR
STARTCHAR Tau
ENCODING 932
SWIDTH 512 0
DWIDTH 8 0
BBX 7 10 1 0
BITMAP
FE
10
10
10
10
10
10
10
10
10
ENDCHAR
STARTCHAR Upsilon
ENCODING 933
SWIDTH 512 0
DWIDTH 8 0
BBX 7 10 1 0
BITMAP
82
82
44
44
28
10
10
10
10
10
ENDCHAR
STARTCHAR Phi
ENCODING 934
SWIDTH 512 0
DWIDTH 8 0
BBX 7 10 1 0
BITMAP
FE
10
7C
92
92
92
92
7C
10
FE
ENDCHAR
STARTCHAR Chi
ENCODING 935
SWIDTH 512 0
DWIDTH 8 0
BBX 6 10 1 0
BITMAP
84
84
48
48
30
30
48
48
84
84
ENDCHAR
STARTCHAR Psi
ENCODING 936
SWIDTH 512 0
DWIDTH 8 0
BBX 7 10 1 0
BITMAP
92
92
92
92
92
7C
10
10
10
10
ENDCHAR
STARTCHAR uni03A9
ENCODING 937
SWIDTH 512 0
DWIDTH 8 0
BBX 7 10 1 0
BITMAP
7C
82
82
82
82
82
44
28
28
EE
ENDCHAR
STARTCHAR Iotadieresis
ENCODING 938
SWIDTH 512 0
DWIDTH 8 0
BBX 5 14 2 0
BITMAP
90
90
00
00
F8
20
20
20
20
20
20
20
20
F8
ENDCHAR
STARTCHAR Upsilondieresis
ENCODING 939
SWIDTH 512 0
DWIDTH 8 0
BBX 7 14 1 0
BITMAP
48
48
00
00
82
82
44
44
28
10
10
10
10
10
ENDCHAR
STARTCHAR alphatonos
ENCODING 940
SWIDTH 512 0
DWIDTH 8 0
BBX 6 13 1 0
BITMAP
20
20
20
00
00
64
94
88
88
88
88
94
64
ENDCHAR
STARTCHAR epsilontonos
ENCODING 941
SWIDTH 512 0
DWIDTH 8 0
BBX 6 13 1 0
BITMAP
20
20
20
00
00
7C
80
80
78
80
80
80
7C
ENDCHAR
STARTCHAR etatonos
ENCODING 942
SWIDTH 512 0
DWIDTH 8 0
BBX 6 15 1 -2
BITMAP
20
20
20
00
00
B8
C4
84
84
84
84
84
84
04
04
ENDCHAR
STARTCHAR iotatonos
ENCODING 943
SWIDTH 512 0
DWIDTH 8 0
BBX 3 13 3 0
BITMAP
80
80
80
00
00
80
80
80
80
80
80
80
60
ENDCHAR
STARTCHAR upsilondieresistonos
ENCODING 944
SWIDTH 512 0
DWIDTH 8 0
BBX 6 14 1 0
BITMAP
20
20
20
88
88
00
84
84
84
84
84
84
84
78
ENDCHAR
STARTCHAR alpha
ENCODING 945
SWIDTH 512 0
DWIDTH 8 0
BBX 6 8 1 0
BITMAP
64
94
88
88
88
88
94
64
ENDCHAR
STARTCHAR beta
ENCODING 946
SWIDTH 512 0
DWIDTH 8 0
BBX 6 12 1 -2
BITMAP
70
88
88
88
F8
84
84
84
C4
B8
80
80
ENDCHAR
STARTCHAR gamma
ENCODING 947
SWIDTH 512 0
DWIDTH 8 0
BBX 7 8 1 0
BITMAP
62
92
14
08
10
10
20
20
ENDCHAR
STARTCHAR delta
ENCODING 948
SWIDTH 512 0
DWIDTH 8 0
BBX 6 10 1 0
BITMAP
38
40
40
40
30
48
84
84
84
78
ENDCHAR
STARTCHAR epsilon
ENCODING 949
SWIDTH 512 0
DWIDTH 8 0
BBX 6 8 1 0
BITMAP
78
84
80
78
80
80
84
78
ENDCHAR
STARTCHAR zeta
ENCODING 950
SWIDTH 512 0
DWIDTH 8 0
BBX 5 12 2 -2
BITMAP
80
80
70
20
40
80
80
80
80
70
08
70
ENDCHAR
STARTCHAR eta
ENCODING 951
SWIDTH 512 0
DWIDTH 8 0
BBX 6 10 1 -2
BITMAP
B8
C4
84
84
84
84
84
84
04
04
ENDCHAR
STARTCHAR theta
ENCODING 952
SWIDTH 512 0
DWIDTH 8 0
BBX 6 10 1 0
BITMAP
30
48
48
84
FC
84
84
48
48
30
ENDCHAR
STARTCHAR iota
ENCODING 953
SWIDTH 512 0
DWIDTH 8 0
BBX 3 8 3 0
BITMAP
80
80
80
80
80
80
80
60
ENDCHAR
STARTCHAR kappa
ENCODING 954
SWIDTH 512 0
DWIDTH 8 0
BBX 5 8 2 0
BITMAP
88
90
A0
C0
C0
A0
90
88
ENDCHAR
STARTCHAR lambda
ENCODING 955
SWIDTH 512 0
DWIDTH 8 0
BBX 6 10 1 0
BITMAP
40
40
20
20
10
30
48
48
84
84
ENDCHAR
STARTCHAR uni03BC
ENCODING 956
SWIDTH 512 0
DWIDTH 8 0
BBX 6 10 1 -2
BITMAP
84
84
84
84
CC
CC
B4
84
80
80
ENDCHAR
STARTCHAR nu
ENCODING 957
SWIDTH 512 0
DWIDTH 8 0
BBX 6 8 1 0
BITMAP
84
84
84
88
88
90
A0
C0
ENDCHAR
STARTCHAR xi
ENCODING 958
SWIDTH 512 0
DWIDTH 8 0
BBX 6 12 1 -2
BITMAP
80
80
78
80
80
78
80
80
78
04
04
78
ENDCHAR
STARTCHAR omicron
ENCODING 959
SWIDTH 512 0
DWIDTH 8 0
BBX 6 8 1 0
BITMAP
78
84
84
84
84
84
84
78
ENDCHAR
STARTCHAR pi
ENCODING 960
SWIDTH 512 0
DWIDTH 8 0
BBX 6 8 1 0
BITMAP
FC
48
48
48
48
48
48
48
ENDCHAR
STARTCHAR rho
ENCODING 961
SWIDTH 512 0
DWIDTH 8 0
BBX 6 10 1 -2
BITMAP
78
84
84
84
84
84
C4
B8
80
80
ENDCHAR
STARTCHAR sigma1
ENCODING 962
SWIDTH 512 0
DWIDTH 8 0
BBX 6 10 1 -2
BITMAP
3C
40
80
80
80
40
38
04
04
38
ENDCHAR
STARTCHAR sigma
ENCODING 963
SWIDTH 512 0
DWIDTH 8 0
BBX 7 8 1 0
BITMAP
7E
90
88
88
88
88
88
70
ENDCHAR
STARTCHAR tau
ENCODING 964
SWIDTH 512 0
DWIDTH 8 0
BBX 6 8 1 0
BITMAP
FC
20
20
20
20
20
20
18
ENDCHAR
STARTCHAR upsilon
ENCODING 965
SWIDTH 512 0
DWIDTH 8 0
BBX 6 8 1 0
BITMAP
84
84
84
84
84
84
84
78
ENDCHAR
STARTCHAR phi
ENCODING 966
SWIDTH 512 0
DWIDTH 8 0
BBX 7 10 1 -2
BITMAP
7C
92
92
92
92
92
92
7C
10
10
ENDCHAR
STARTCHAR chi
ENCODING 967
SWIDTH 512 0
DWIDTH 8 0
BBX 6 10 1 -2
BITMAP
84
84
48
48
30
30
48
48
84
84
ENDCHAR
STARTCHAR psi
ENCODING 968
SWIDTH 512 0
DWIDTH 8 0
BBX 7 8 1 -2
BITMAP
92
92
92
92
92
7C
10
10
ENDCHAR
STARTCHAR omega
ENCODING 969
SWIDTH 512 0
DWIDTH 8 0
BBX 7 8 1 0
BITMAP
44
82
82
92
92
92
92
6C
ENDCHAR
STARTCHAR iotadieresis
ENCODING 970
SWIDTH 512 0
DWIDTH 8 0
BBX 4 12 2 0
BITMAP
90
90
00
00
40
40
40
40
40
40
40
30
ENDCHAR
STARTCHAR upsilondieresis
ENCODING 971
SWIDTH 512 0
DWIDTH 8 0
BBX 6 12 1 0
BITMAP
48
48
00
00
84
84
84
84
84
84
84
78
ENDCHAR
STARTCHAR omicrontonos
ENCODING 972
SWIDTH 512 0
DWIDTH 8 0
BBX 6 13 1 0
BITMAP
20
20
20
00
00
78
84
84
84
84
84
84
78
ENDCHAR
STARTCHAR upsilontonos
ENCODING 973
SWIDTH 512 0
DWIDTH 8 0
BBX 6 13 1 0
BITMAP
20
20
20
00
00
84
84
84
84
84
84
84
78
ENDCHAR
STARTCHAR omegatonos
ENCODING 974
SWIDTH 512 0
DWIDTH 8 0
BBX 7 13 1 0
BITMAP
10
10
10
00
00
44
82
82
92
92
92
92
6C
ENDCHAR
STARTCHAR uni03F3
ENCODING 1011
SWIDTH 512 0
DWIDTH 8 0
BBX 1 3 3 11
BITMAP
80
80
80
ENDCHAR
STARTCHAR uni03F4
ENCODING 1012
SWIDTH 512 0
DWIDTH 8 0
BBX 5 5 1 9
BITMAP
20
20
20
88
88
ENDCHAR
STARTCHAR uni0401
ENCODING 1025
SWIDTH 512 0
DWIDTH 8 0
BBX 6 14 1 0
BITMAP
48
48
00
00
FC
80
80
80
F8
80
80
80
80
FC
ENDCHAR
STARTCHAR uni0402
ENCODING 1026
SWIDTH 512 0
DWIDTH 8 0
BBX 7 10 1 0
BITMAP
FC
20
20
20
3C
22
22
22
22
3C
ENDCHAR
STARTCHAR uni0403
ENCODING 1027
SWIDTH 512 0
DWIDTH 8 0
BBX 6 14 1 0
BITMAP
18
60
00
00
FC
80
80
80
80
80
80
80
80
80
ENDCHAR
STARTCHAR uni0404
ENCODING 1028
SWIDTH 512 0
DWIDTH 8 0
BBX 6 10 1 0
BITMAP
38
44
80
80
F8
80
80
80
44
38
ENDCHAR
STARTCHAR uni0405
ENCODING 1029
SWIDTH 512 0
DWIDTH 8 0
BBX 6 10 1 0
BITMAP
78
84
84
80
60
18
04
84
84
78
ENDCHAR
STARTCHAR uni0406
ENCODING 1030
SWIDTH 512 0
DWIDTH 8 0
BBX 5 10 2 0
BITMAP
F8
20
20
20
20
20
20
20
20
F8
ENDCHAR
STARTCHAR uni0407
ENCODING 1031
SWIDTH 512 0
DWIDTH 8 0
BBX 5 14 2 0
BITMAP
90
90
00
00
F8
20
20
20
20
20
20
20
20
F8
ENDCHAR
STARTCHAR uni0408
ENCODING 1032
SWIDTH 512 0
DWIDTH 8 0
BBX 6 10 1 0
BITMAP
1C
08
08
08
08
08
08
88
88
70
ENDCHAR
STARTCHAR uni0409
ENCODING 1033
SWIDTH 512 0
DWIDTH 8 0
BBX 8 10 0 0
BITMAP
78
48
48
48
4E
49
49
49
49
8E
ENDCHAR
STARTCHAR uni040A
ENCODING 1034
SWIDTH 512 0
DWIDTH 8 0
BBX 7 10 1 0
BITMAP
90
90
90
90
FC
92
92
92
92
9C
ENDCHAR
STARTCHAR uni040B
ENCODING 1035
SWIDTH 512 0
DWIDTH 8 0
BBX 7 10 1 0
BITMAP
FC
20
20
20
3C
22
22
22
22
22
ENDCHAR
STARTCHAR uni040C
ENCODING 1036
SWIDTH 512 0
DWIDTH 8 0
BBX 6 14 1 0
BITMAP
18
60
00
00
80
8C
90
A0
C0
C0
A0
90
88
84
ENDCHAR
STARTCHAR uni040E
ENCODING 1038
SWIDTH 512 0
DWIDTH 8 0
BBX 7 14 1 0
BITMAP
84
84
78
00
82
82
44
44
28
28
10
10
20
60
ENDCHAR
STARTCHAR uni040F
ENCODING 1039
SWIDTH 512 0
DWIDTH 8 0
BBX 7 10 1 0
BITMAP
82
82
82
82
82
82
FE
10
10
10
ENDCHAR
STARTCHAR uni0410
ENCODING 1040
SWIDTH 512 0
DWIDTH 8 0
BBX 6 10 1 0
BITMAP
30
48
48
84
84
FC
84
84
84
84
ENDCHAR
STARTCHAR uni0411
ENCODING 1041
SWIDTH 512 0
DWIDTH 8 0
BBX 6 10 1 0
BITMAP
F8
80
80
80
F8
84
84
84
84
F8
ENDCHAR
STARTCHAR uni0412
ENCODING 1042
SWIDTH 512 0
DWIDTH 8 0
BBX 6 10 1 0
BITMAP
F8
84
84
84
F8
84
84
84
84
F8
ENDCHAR
STARTCHAR uni0413
ENCODING 1043
SWIDTH 512 0
DWIDTH 8 0
BBX 6 10 1 0
BITMAP
FC
80
80
80
80
80
80
80
80
80
ENDCHAR
STARTCHAR uni0414
ENCODING 1044
SWIDTH 512 0
DWIDTH 8 0
BBX 7 12 1 -2
BITMAP
1C
24
24
24
44
44
44
84
84
FC
04
02
ENDCHAR
STARTCHAR uni0415
ENCODING 1045
SWIDTH 512 0
DWIDTH 8 0
BBX 6 10 1 0
BITMAP
FC
80
80
80
F8
80
80
80
80
FC
ENDCHAR
STARTCHAR uni0416
ENCODING 1046
SWIDTH 512 0
DWIDTH 8 0
BBX 7 10 1 0
BITMAP
92
92
54
54
38
38
54
54
92
92
ENDCHAR
STARTCHAR uni0417
ENCODING 1047
SWIDTH 512 0
DWIDTH 8 0
BBX 6 10 1 0
BITMAP
78
84
04
04
78
08
04
04
84
78
ENDCHAR
STARTCHAR uni0418
ENCODING 1048
SWIDTH 512 0
DWIDTH 8 0
BBX 6 10 1 0
BITMAP
84
8C
8C
94
94
A4
A4
C4
C4
84
ENDCHAR
STARTCHAR uni0419
ENCODING 1049
SWIDTH 512 0
DWIDTH 8 0
BBX 6 14 1 0
BITMAP
84
84
78
00
84
8C
8C
94
94
A4
A4
C4
C4
84
ENDCHAR
STARTCHAR uni041A
ENCODING 1050
SWIDTH 512 0
DWIDTH 8 0
BBX 6 10 1 0
BITMAP
80
8C
90
A0
C0
C0
A0
90
88
84
ENDCHAR
STARTCHAR uni041B
ENCODING 1051
SWIDTH 512 0
DWIDTH 8 0
BBX 6 10 1 0
BITMAP
3C
24
24
24
24
24
24
44
44
84
ENDCHAR
STARTCHAR uni041C
ENCODING 1052
SWIDTH 512 0
DWIDTH 8 0
BBX 6 10 1 0
BITMAP
84
84
CC
CC
B4
B4
84
84
84
84
ENDCHAR
STARTCHAR uni041D
ENCODING 1053
SWIDTH 512 0
DWIDTH 8 0
BBX 6 10 1 0
BITMAP
84
84
84
84
FC
84
84
84
84
84
ENDCHAR
STARTCHAR uni041E
ENCODING 1054
SWIDTH 512 0
DWIDTH 8 0
BBX 6 10 1 0
BITMAP
78
84
84
84
84
84
84
84
84
78
ENDCHAR
STARTCHAR uni041F
ENCODING 1055
SWIDTH 512 0
DWIDTH 8 0
BBX 6 10 1 0
BITMAP
FC
84
84
84
84
84
84
84
84
84
ENDCHAR
STARTCHAR uni0420
ENCODING 1056
SWIDTH 512 0
DWIDTH 8 0
BBX 6 10 1 0
BITMAP
F8
84
84
84
F8
80
80
80
80
80
ENDCHAR
STARTCHAR uni0421
ENCODING 1057
SWIDTH 512 0
DWIDTH 8 0
BBX 6 10 1 0
BITMAP
78
84
84
80
80
80
80
84
84
78
ENDCHAR
STARTCHAR uni0422
ENCODING 1058
SWIDTH 512 0
DWIDTH 8 0
BBX 7 10 1 0
BITMAP
FE
10
10
10
10
10
10
10
10
10
ENDCHAR
STARTCHAR uni0423
ENCODING 1059
SWIDTH 512 0
DWIDTH 8 0
BBX 7 10 1 0
BITMAP
82
82
44
44
28
28
10
10
20
60
ENDCHAR
STARTCHAR uni0424
ENCODING 1060
SWIDTH 512 0
DWIDTH 8 0
BBX 7 11 1 0
BITMAP
10
10
7C
92
92
92
92
92
7C
10
10
ENDCHAR
STARTCHAR uni0425
ENCODING 1061
SWIDTH 512 0
DWIDTH 8 0
BBX 6 10 1 0
BITMAP
84
84
48
48
30
30
48
48
84
84
ENDCHAR
STARTCHAR uni0426
ENCODING 1062
SWIDTH 512 0
DWIDTH 8 0
BBX 6 12 1 -2
BITMAP
84
84
84
84
84
84
84
84
84
FC
04
08
ENDCHAR
STARTCHAR uni0427
ENCODING 1063
SWIDTH 512 0
DWIDTH 8 0
BBX 6 10 1 0
BITMAP
84
84
84
84
84
8C
74
04
04
04
ENDCHAR
STARTCHAR uni0428
ENCODING 1064
SWIDTH 512 0
DWIDTH 8 0
BBX 7 10 1 0
BITMAP
92
92
92
92
92
92
92
92
92
FE
ENDCHAR
STARTCHAR uni0429
ENCODING 1065
SWIDTH 512 0
DWIDTH 8 0
BBX 7 12 1 -2
BITMAP
92
92
92
92
92
92
92
92
92
FE
02
04
ENDCHAR
STARTCHAR uni042A
ENCODING 1066
SWIDTH 512 0
DWIDTH 8 0
BBX 7 10 1 0
BITMAP
E0
20
20
20
3C
22
22
22
22
3C
ENDCHAR
STARTCHAR uni042B
ENCODING 1067
SWIDTH 512 0
DWIDTH 8 0
BBX 6 10 1 0
BITMAP
84
84
84
84
E4
94
94
94
94
E4
ENDCHAR
STARTCHAR uni042C
ENCODING 1068
SWIDTH 512 0
DWIDTH 8 0
BBX 6 10 1 0
BITMAP
80
80
80
80
F8
84
84
84
84
F8
ENDCHAR
STARTCHAR uni042D
ENCODING 1069
SWIDTH 512 0
DWIDTH 8 0
BBX 6 10 1 0
BITMAP
70
88
04
04
7C
04
04
04
88
70
ENDCHAR
STARTCHAR uni042E
ENCODING 1070
SWIDTH 512 0
DWIDTH 8 0
BBX 6 10 1 0
BITMAP
98
A4
A4
A4
E4
A4
A4
A4
A4
98
ENDCHAR
STARTCHAR uni042F
ENCODING 1071
SWIDTH 512 0
DWIDTH 8 0
BBX 6 10 1 0
BITMAP
7C
84
84
84
7C
24
44
44
84
84
ENDCHAR
STARTCHAR uni0430
ENCODING 1072
SWIDTH 512 0
DWIDTH 8 0
BBX 6 8 1 0
BITMAP
78
84
04
7C
84
84
8C
74
ENDCHAR
STARTCHAR uni0431
ENCODING 1073
SWIDTH 512 0
DWIDTH 8 0
BBX 6 8 1 0
BITMAP
F8
80
80
F8
84
84
84
F8
ENDCHAR
STARTCHAR uni0432
ENCODING 1074
SWIDTH 512 0
DWIDTH 8 0
BBX 6 8 1 0
BITMAP
F8
84
84
F8
84
84
84
F8
ENDCHAR
STARTCHAR uni0433
ENCODING 1075
SWIDTH 512 0
DWIDTH 8 0
BBX 6 8 1 0
BITMAP
FC
80
80
80
80
80
80
80
ENDCHAR
STARTCHAR uni0434
ENCODING 1076
SWIDTH 512 0
DWIDTH 8 0
BBX 7 9 1 -1
BITMAP
3C
24
44
44
84
84
84
FC
02
ENDCHAR
STARTCHAR uni0435
ENCODING 1077
SWIDTH 512 0
DWIDTH 8 0
BBX 6 8 1 0
BITMAP
78
84
84
FC
80
80
84
78
ENDCHAR
STARTCHAR uni0436
ENCODING 1078
SWIDTH 512 0
DWIDTH 8 0
BBX 7 8 1 0
BITMAP
92
92
54
38
38
54
92
92
ENDCHAR
STARTCHAR uni0437
ENCODING 1079
SWIDTH 512 0
DWIDTH 8 0
BBX 6 8 1 0
BITMAP
78
84
04
78
08
04
84
78
ENDCHAR
STARTCHAR uni0438
ENCODING 1080
SWIDTH 512 0
DWIDTH 8 0
BBX 6 8 1 0
BITMAP
8C
8C
94
94
A4
A4
C4
C4
ENDCHAR
STARTCHAR uni0439
ENCODING 1081
SWIDTH 512 0
DWIDTH 8 0
BBX 6 13 1 0
BITMAP
84
84
78
00
00
8C
8C
94
94
A4
A4
C4
C4
ENDCHAR
STARTCHAR uni043A
ENCODING 1082
SWIDTH 512 0
DWIDTH 8 0
BBX 6 8 1 0
BITMAP
8C
90
A0
C0
A0
90
88
84
ENDCHAR
STARTCHAR uni043B
ENCODING 1083
SWIDTH 512 0
DWIDTH 8 0
BBX 6 8 1 0
BITMAP
3C
24
24
24
24
44
44
84
ENDCHAR
STARTCHAR uni043C
ENCODING 1084
SWIDTH 512 0
DWIDTH 8 0
BBX 6 8 1 0
BITMAP
84
CC
CC
B4
B4
84
84
84
ENDCHAR
STARTCHAR uni043D
ENCODING 1085
SWIDTH 512 0
DWIDTH 8 0
BBX 6 8 1 0
BITMAP
84
84
84
FC
84
84
84
84
ENDCHAR
STARTCHAR uni043E
ENCODING 1086
SWIDTH 512 0
DWIDTH 8 0
BBX 6 8 1 0
BITMAP
78
84
84
84
84
84
84
78
ENDCHAR
STARTCHAR uni043F
ENCODING 1087
SWIDTH 512 0
DWIDTH 8 0
BBX 6 8 1 0
BITMAP
FC
84
84
84
84
84
84
84
ENDCHAR
STARTCHAR uni0440
ENCODING 1088
SWIDTH 512 0
DWIDTH 8 0
BBX 6 10 1 -2
BITMAP
B8
C4
84
84
84
84
C4
B8
80
80
ENDCHAR
STARTCHAR uni0441
ENCODING 1089
SWIDTH 512 0
DWIDTH 8 0
BBX 6 8 1 0
BITMAP
78
84
80
80
80
80
84
78
ENDCHAR
STARTCHAR uni0442
ENCODING 1090
SWIDTH 512 0
DWIDTH 8 0
BBX 7 8 1 0
BITMAP
FE
10
10
10
10
10
10
10
ENDCHAR
STARTCHAR uni0443
ENCODING 1091
SWIDTH 512 0
DWIDTH 8 0
BBX 6 10 1 -2
BITMAP
84
84
48
48
30
30
20
20
40
C0
ENDCHAR
STARTCHAR uni0444
ENCODING 1092
SWIDTH 512 0
DWIDTH 8 0
BBX 7 10 1 -1
BITMAP
10
10
7C
92
92
92
92
7C
10
10
ENDCHAR
STARTCHAR uni0445
ENCODING 1093
SWIDTH 512 0
DWIDTH 8 0
BBX 6 8 1 0
BITMAP
84
84
48
30
30
48
84
84
ENDCHAR
STARTCHAR uni0446
ENCODING 1094
SWIDTH 512 0
DWIDTH 8 0
BBX 6 10 1 -2
BITMAP
84
84
84
84
84
84
84
FC
04
08
ENDCHAR
STARTCHAR uni0447
ENCODING 1095
SWIDTH 512 0
DWIDTH 8 0
BBX 6 8 1 0
BITMAP
84
84
84
84
8C
74
04
04
ENDCHAR
STARTCHAR uni0448
ENCODING 1096
SWIDTH 512 0
DWIDTH 8 0
BBX 7 8 1 0
BITMAP
92
92
92
92
92
92
92
FE
ENDCHAR
STARTCHAR uni0449
ENCODING 1097
SWIDTH 512 0
DWIDTH 8 0
BBX 7 10 1 -2
BITMAP
92
92
92
92
92
92
92
FE
02
04
ENDCHAR
STARTCHAR uni044A
ENCODING 1098
SWIDTH 512 0
DWIDTH 8 0
BBX 7 8 1 0
BITMAP
E0
20
20
3C
22
22
22
3C
ENDCHAR
STARTCHAR uni044B
ENCODING 1099
SWIDTH 512 0
DWIDTH 8 0
BBX 6 8 1 0
BITMAP
84
84
84
E4
94
94
94
E4
ENDCHAR
STARTCHAR uni044C
ENCODING 1100
SWIDTH 512 0
DWIDTH 8 0
BBX 6 8 1 0
BITMAP
80
80
80
F8
84
84
84
F8
ENDCHAR
STARTCHAR uni044D
ENCODING 1101
SWIDTH 512 0
DWIDTH 8 0
BBX 6 8 1 0
BITMAP
70
88
04
7C
04
04
88
70
ENDCHAR
STARTCHAR uni044E
ENCODING 1102
SWIDTH 512 0
DWIDTH 8 0
BBX 6 8 1 0
BITMAP
98
A4
A4
E4
A4
A4
A4
98
ENDCHAR
STARTCHAR uni044F
ENCODING 1103
SWIDTH 512 0
DWIDTH 8 0
BBX 6 8 1 0
BITMAP
7C
84
84
84
7C
24
44
84
ENDCHAR
STARTCHAR uni0451
ENCODING 1105
SWIDTH 512 0
DWIDTH 8 0
BBX 6 12 1 0
BITMAP
48
48
00
00
78
84
84
FC
80
80
84
78
ENDCHAR
STARTCHAR uni0452
ENCODING 1106
SWIDTH 512 0
DWIDTH 8 0
BBX 6 10 1 0
BITMAP
40
40
F0
40
40
78
44
44
44
78
ENDCHAR
STARTCHAR uni0453
ENCODING 1107
SWIDTH 512 0
DWIDTH 8 0
BBX 6 12 1 0
BITMAP
18
60
00
00
FC
80
80
80
80
80
80
80
ENDCHAR
STARTCHAR uni0454
ENCODING 1108
SWIDTH 512 0
DWIDTH 8 0
BBX 6 8 1 0
BITMAP
38
44
80
F8
80
80
44
38
ENDCHAR
STARTCHAR uni0455
ENCODING 1109
SWIDTH 512 0
DWIDTH 8 0
BBX 6 8 1 0
BITMAP
78
84
80
60
18
04
84
78
ENDCHAR
STARTCHAR uni0456
ENCODING 1110
SWIDTH 512 0
DWIDTH 8 0
BBX 5 11 2 0
BITMAP
20
20
00
60
20
20
20
20
20
20
F8
ENDCHAR
STARTCHAR uni0457
ENCODING 1111
SWIDTH 512 0
DWIDTH 8 0
BBX 5 11 2 0
BITMAP
90
90
00
60
20
20
20
20
20
20
F8
ENDCHAR
STARTCHAR uni0458
ENCODING 1112
SWIDTH 512 0
DWIDTH 8 0
BBX 5 13 1 -2
BITMAP
08
08
00
18
08
08
08
08
08
08
08
90
60
ENDCHAR
STARTCHAR uni0459
ENCODING 1113
SWIDTH 512 0
DWIDTH 8 0
BBX 8 8 0 0
BITMAP
78
48
48
4E
49
49
49
8E
ENDCHAR
STARTCHAR uni045A
ENCODING 1114
SWIDTH 512 0
DWIDTH 8 0
BBX 7 8 1 0
BITMAP
90
90
90
FC
92
92
92
9C
ENDCHAR
STARTCHAR uni045B
ENCODING 1115
SWIDTH 512 0
DWIDTH 8 0
BBX 6 10 1 0
BITMAP
40
40
F0
40
40
58
64
44
44
44
ENDCHAR
STARTCHAR uni045C
ENCODING 1116
SWIDTH 512 0
DWIDTH 8 0
BBX 6 12 1 0
BITMAP
18
60
00
00
8C
90
A0
C0
A0
90
88
84
ENDCHAR
STARTCHAR uni045E
ENCODING 1118
SWIDTH 512 0
DWIDTH 8 0
BBX 6 15 1 -2
BITMAP
84
84
78
00
00
84
84
48
48
30
30
20
20
40
C0
ENDCHAR
STARTCHAR uni045F
ENCODING 1119
SWIDTH 512 0
DWIDTH 8 0
BBX 5 10 2 -2
BITMAP
88
88
88
88
88
88
F8
20
20
20
ENDCHAR
STARTCHAR uni0531
ENCODING 1329
SWIDTH 576 0
DWIDTH 12 0
BBX 9 7 1 0
BITMAP
E200
4200
4200
4200
4200
4300
3D80
ENDCHAR
STARTCHAR uni0532
ENCODING 1330
SWIDTH 528 0
DWIDTH 11 0
BBX 8 7 1 0
BITMAP
3C
42
42
40
7F
41
E0
ENDCHAR
STARTCHAR uni0533
ENCODING 1331
SWIDTH 624 0
DWIDTH 13 0
BBX 10 7 1 0
BITMAP
7C00
8200
8200
4200
3FC0
0240
0700
ENDCHAR
STARTCHAR uni0534
ENCODING 1332
SWIDTH 576 0
DWIDTH 12 0
BBX 9 7 1 0
BITMAP
7800
8400
8400
8400
8780
0480
0400
ENDCHAR
STARTCHAR uni0535
ENCODING 1333
SWIDTH 528 0
DWIDTH 11 0
BBX 8 7 1 0
BITMAP
C0
7E
41
40
42
42
3C
ENDCHAR
STARTCHAR uni0536
ENCODING 1334
SWIDTH 528 0
DWIDTH 11 0
BBX 8 8 1 -1
BITMAP
7E
81
81
43
3E
8C
FE
81
ENDCHAR
STARTCHAR uni0537
ENCODING 1335
SWIDTH 432 0
DWIDTH 9 0
BBX 7 8 1 -1
BITMAP
C0
7C
42
40
40
40
70
0C
ENDCHAR
STARTCHAR uni0538
ENCODING 1336
SWIDTH 528 0
DWIDTH 11 0
BBX 8 8 1 -1
BITMAP
78
84
84
84
84
80
FE
01
ENDCHAR
STARTCHAR uni0539
ENCODING 1337
SWIDTH 624 0
DWIDTH 13 0
BBX 10 7 1 0
BITMAP
3C00
4200
4FC0
5240
5200
4C00
E000
ENDCHAR
STARTCHAR uni053A
ENCODING 1338
SWIDTH 576 0
DWIDTH 12 0
BBX 9 7 1 0
BITMAP
0600
0200
7F80
8280
8200
8400
7800
ENDCHAR
STARTCHAR uni053B
ENCODING 1339
SWIDTH 528 0
DWIDTH 11 0
BBX 7 7 1 0
BITMAP
C0
7C
42
42
42
40
E0
ENDCHAR
STARTCHAR uni053C
ENCODING 1340
SWIDTH 432 0
DWIDTH 9 0
BBX 6 8 1 -1
BITMAP
C0
40
40
40
40
40
78
04
ENDCHAR
STARTCHAR uni053D
ENCODING 1341
SWIDTH 576 0
DWIDTH 12 0
BBX 9 7 1 0
BITMAP
C000
7180
5080
5080
5980
4F00
E000
ENDCHAR
STARTCHAR uni053E
ENCODING 1342
SWIDTH 576 0
DWIDTH 12 0
BBX 10 8 1 0
BITMAP
C000
3FC0
6240
4100
4100
4300
2200
1C00
ENDCHAR
STARTCHAR uni053F
ENCODING 1343
SWIDTH 528 0
DWIDTH 11 0
BBX 8 7 1 0
BITMAP
E0
40
46
42
62
1E
03
ENDCHAR
STARTCHAR uni0540
ENCODING 1344
SWIDTH 528 0
DWIDTH 11 0
BBX 8 7 1 0
BITMAP
3C
04
08
30
40
FC
03
ENDCHAR
STARTCHAR uni0541
ENCODING 1345
SWIDTH 432 0
DWIDTH 9 0
BBX 7 7 1 0
BITMAP
7C
82
C2
3A
04
FC
F6
ENDCHAR
STARTCHAR uni0542
ENCODING 1346
SWIDTH 576 0
DWIDTH 12 0
BBX 10 8 1 -1
BITMAP
3C00
4200
4200
4200
E200
0200
0300
00C0
ENDCHAR
STARTCHAR uni0543
ENCODING 1347
SWIDTH 528 0
DWIDTH 11 0
BBX 8 7 1 0
BITMAP
3C
F0
CC
84
82
82
7F
ENDCHAR
STARTCHAR uni0544
ENCODING 1348
SWIDTH 576 0
DWIDTH 12 0
BBX 10 7 1 0
BITMAP
E7C0
4440
4400
4400
4400
4400
3C00
ENDCHAR
STARTCHAR uni0545
ENCODING 1349
SWIDTH 480 0
DWIDTH 10 0
BBX 7 7 1 0
BITMAP
FC
04
FC
02
82
82
7C
ENDCHAR
STARTCHAR uni0546
ENCODING 1350
SWIDTH 528 0
DWIDTH 11 0
BBX 8 7 1 0
BITMAP
C0
60
20
21
21
21
1E
ENDCHAR
STARTCHAR uni0547
ENCODING 1351
SWIDTH 528 0
DWIDTH 11 0
BBX 8 7 1 0
BITMAP
FE
63
80
80
81
C3
7E
ENDCHAR
STARTCHAR uni0548
ENCODING 1352
SWIDTH 528 0
DWIDTH 11 0
BBX 8 7 1 0
BITMAP
3C
42
42
42
42
42
E7
ENDCHAR
STARTCHAR uni0549
ENCODING 1353
SWIDTH 432 0
DWIDTH 9 0
BBX 7 8 1 -1
BITMAP
78
84
82
46
3A
04
F8
1E
ENDCHAR
STARTCHAR uni054A
ENCODING 1354
SWIDTH 576 0
DWIDTH 12 0
BBX 10 7 0 0
BITMAP
7F00
8880
8880
8880
8880
0880
01C0
ENDCHAR
STARTCHAR uni054B
ENCODING 1355
SWIDTH 528 0
DWIDTH 11 0
BBX 8 8 1 -1
BITMAP
7C
82
C2
72
0A
84
FE
81
ENDCHAR
STARTCHAR uni054C
ENCODING 1356
SWIDTH 624 0
DWIDTH 13 0
BBX 10 7 1 0
BITMAP
3C00
4200
4200
4200
43C0
4240
E700
ENDCHAR
STARTCHAR uni054D
ENCODING 1357
SWIDTH 528 0
DWIDTH 11 0
BBX 8 7 1 0
BITMAP
E7
42
42
42
42
42
3C
ENDCHAR
STARTCHAR uni054E
ENCODING 1358
SWIDTH 528 0
DWIDTH 11 0
BBX 9 8 1 -1
BITMAP
0600
0200
C200
4200
4200
3E00
0300
0080
ENDCHAR
STARTCHAR uni054F
ENCODING 1359
SWIDTH 432 0
DWIDTH 9 0
BBX 7 7 1 0
BITMAP
7C
84
C0
78
06
82
FC
ENDCHAR
STARTCHAR uni0550
ENCODING 1360
SWIDTH 480 0
DWIDTH 10 0
BBX 7 7 1 0
BITMAP
3C
42
42
42
42
40
E0
ENDCHAR
STARTCHAR uni0551
ENCODING 1361
SWIDTH 480 0
DWIDTH 10 0
BBX 8 7 1 0
BITMAP
7E
42
7E
81
01
81
7E
ENDCHAR
STARTCHAR uni0552
ENCODING 1362
SWIDTH 528 0
DWIDTH 11 0
BBX 9 7 1 0
BITMAP
F000
4C00
4200
4200
4180
4000
E000
ENDCHAR
STARTCHAR uni0553
ENCODING 1363
SWIDTH 576 0
DWIDTH 12 0
BBX 9 7 1 0
BITMAP
1C00
0800
7F00
8880
7F00
0800
1C00
ENDCHAR
STARTCHAR uni0554
ENCODING 1364
SWIDTH 528 0
DWIDTH 11 0
BBX 8 7 1 0
BITMAP
1C
22
22
3C
E0
3F
20
ENDCHAR
STARTCHAR uni0555
ENCODING 1365
SWIDTH 528 0
DWIDTH 11 0
BBX 9 7 1 0
BITMAP
3E00
4100
8080
8080
8080
4100
3E00
ENDCHAR
STARTCHAR uni0556
ENCODING 1366
SWIDTH 528 0
DWIDTH 11 0
BBX 8 7 1 0
BITMAP
78
88
7C
0A
09
89
7E
ENDCHAR
STARTCHAR uni0561
ENCODING 1377
SWIDTH 576 0
DWIDTH 12 0
BBX 9 5 1 0
BITMAP
C900
4900
4900
4900
3780
ENDCHAR
STARTCHAR uni0562
ENCODING 1378
SWIDTH 384 0
DWIDTH 8 0
BBX 5 7 1 -2
BITMAP
F8
88
88
80
F8
80
C0
ENDCHAR
STARTCHAR uni0563
ENCODING 1379
SWIDTH 432 0
DWIDTH 9 0
BBX 7 7 1 -2
BITMAP
78
88
88
88
7E
08
1C
ENDCHAR
STARTCHAR uni0564
ENCODING 1380
SWIDTH 432 0
DWIDTH 9 0
BBX 7 7 1 -2
BITMAP
F8
48
48
48
EE
08
1C
ENDCHAR
STARTCHAR uni0565
ENCODING 1381
SWIDTH 432 0
DWIDTH 9 0
BBX 6 8 1 0
BITMAP
C0
40
40
78
40
40
44
F8
ENDCHAR
STARTCHAR uni0566
ENCODING 1382
SWIDTH 432 0
DWIDTH 9 0
BBX 6 7 1 -2
BITMAP
78
88
88
78
08
08
0C
ENDCHAR
STARTCHAR uni0567
ENCODING 1383
SWIDTH 288 0
DWIDTH 6 0
BBX 4 10 1 -2
BITMAP
80
80
F0
80
80
C0
60
10
10
60
ENDCHAR
STARTCHAR uni0568
ENCODING 1384
SWIDTH 432 0
DWIDTH 9 0
BBX 6 7 1 -2
BITMAP
F8
48
48
48
5C
40
78
ENDCHAR
STARTCHAR uni0569
ENCODING 1385
SWIDTH 432 0
DWIDTH 9 0
BBX 7 7 1 -2
BITMAP
FC
44
5E
54
5C
40
E0
ENDCHAR
STARTCHAR uni056A
ENCODING 1386
SWIDTH 432 0
DWIDTH 9 0
BBX 5 8 1 0
BITMAP
18
08
68
98
88
88
90
60
ENDCHAR
STARTCHAR uni056B
ENCODING 1387
SWIDTH 432 0
DWIDTH 9 0
BBX 6 10 1 -2
BITMAP
C0
40
70
48
48
48
48
5C
40
E0
ENDCHAR
STARTCHAR uni056C
ENCODING 1388
SWIDTH 288 0
DWIDTH 6 0
BBX 4 7 1 -2
BITMAP
C0
40
40
40
40
40
70
ENDCHAR
STARTCHAR uni056D
ENCODING 1389
SWIDTH 528 0
DWIDTH 11 0
BBX 8 10 1 -2
BITMAP
C0
40
66
52
52
52
52
4F
40
E0
ENDCHAR
STARTCHAR uni056E
ENCODING 1390
SWIDTH 384 0
DWIDTH 8 0
BBX 5 8 1 0
BITMAP
E0
80
80
70
88
88
88
70
ENDCHAR
STARTCHAR uni056F
ENCODING 1391
SWIDTH 336 0
DWIDTH 7 0
BBX 7 10 0 -2
BITMAP
C0
40
4C
44
44
44
44
3C
04
06
ENDCHAR
STARTCHAR uni0570
ENCODING 1392
SWIDTH 432 0
DWIDTH 9 0
BBX 6 8 1 0
BITMAP
C0
40
70
48
48
48
48
FC
ENDCHAR
STARTCHAR uni0571
ENCODING 1393
SWIDTH 432 0
DWIDTH 9 0
BBX 6 8 1 0
BITMAP
80
78
30
C8
88
88
88
6C
ENDCHAR
STARTCHAR uni0572
ENCODING 1394
SWIDTH 432 0
DWIDTH 9 0
BBX 7 7 1 -2
BITMAP
F8
48
48
48
E8
08
0E
ENDCHAR
STARTCHAR uni0573
ENCODING 1395
SWIDTH 432 0
DWIDTH 9 0
BBX 6 8 1 0
BITMAP
38
44
E0
48
48
48
48
F4
ENDCHAR
STARTCHAR uni0574
ENCODING 1396
SWIDTH 432 0
DWIDTH 9 0
BBX 7 8 1 0
BITMAP
06
0A
C8
48
48
48
48
34
ENDCHAR
STARTCHAR uni0575
ENCODING 1397
SWIDTH 288 0
DWIDTH 6 0
BBX 3 7 1 -2
BITMAP
60
20
20
20
20
20
C0
ENDCHAR
STARTCHAR uni0576
ENCODING 1398
SWIDTH 432 0
DWIDTH 9 0
BBX 7 8 1 0
BITMAP
E0
80
CC
24
24
24
24
1E
ENDCHAR
STARTCHAR uni0577
ENCODING 1399
SWIDTH 288 0
DWIDTH 6 0
BBX 4 7 1 -2
BITMAP
60
90
10
20
C0
80
F0
ENDCHAR
STARTCHAR uni0578
ENCODING 1400
SWIDTH 432 0
DWIDTH 9 0
BBX 6 5 1 0
BITMAP
F8
48
48
48
FC
ENDCHAR
STARTCHAR uni0579
ENCODING 1401
SWIDTH 384 0
DWIDTH 8 0
BBX 5 7 1 -2
BITMAP
80
C0
60
20
40
40
78
ENDCHAR
STARTCHAR uni057A
ENCODING 1402
SWIDTH 576 0
DWIDTH 12 0
BBX 9 7 1 -2
BITMAP
C900
4900
4900
4900
3700
0100
0180
ENDCHAR
STARTCHAR uni057B
ENCODING 1403
SWIDTH 336 0
DWIDTH 7 0
BBX 5 7 1 -2
BITMAP
70
88
58
20
40
80
78
ENDCHAR
STARTCHAR uni057C
ENCODING 1404
SWIDTH 480 0
DWIDTH 10 0
BBX 8 5 1 0
BITMAP
F8
44
44
44
E7
ENDCHAR
STARTCHAR uni057D
ENCODING 1405
SWIDTH 432 0
DWIDTH 9 0
BBX 6 5 1 0
BITMAP
D8
48
48
48
3C
ENDCHAR
STARTCHAR uni057E
ENCODING 1406
SWIDTH 432 0
DWIDTH 9 0
BBX 7 10 1 -2
BITMAP
18
08
C8
48
48
48
48
38
08
06
ENDCHAR
STARTCHAR uni057F
ENCODING 1407
SWIDTH 576 0
DWIDTH 12 0
BBX 9 5 1 0
BITMAP
CE00
4900
4900
4900
3980
ENDCHAR
STARTCHAR uni0580
ENCODING 1408
SWIDTH 432 0
DWIDTH 9 0
BBX 6 7 1 -2
BITMAP
F8
48
48
48
5C
40
E0
ENDCHAR
STARTCHAR uni0581
ENCODING 1409
SWIDTH 384 0
DWIDTH 8 0
BBX 5 7 1 -2
BITMAP
78
88
88
78
08
88
F0
ENDCHAR
STARTCHAR uni0582
ENCODING 1410
SWIDTH 288 0
DWIDTH 6 0
BBX 4 5 1 0
BITMAP
C0
40
40
40
70
ENDCHAR
STARTCHAR uni0583
ENCODING 1411
SWIDTH 576 0
DWIDTH 12 0
BBX 9 10 1 -2
BITMAP
0800
0800
CE00
4900
4900
4900
4900
3980
0800
0800
ENDCHAR
STARTCHAR uni0584
ENCODING 1412
SWIDTH 432 0
DWIDTH 9 0
BBX 5 7 2 -2
BITMAP
30
40
F8
40
40
40
E0
ENDCHAR
STARTCHAR uni0585
ENCODING 1413
SWIDTH 384 0
DWIDTH 8 0
BBX 5 5 1 0
BITMAP
70
88
88
88
70
ENDCHAR
STARTCHAR uni0586
ENCODING 1414
SWIDTH 384 0
DWIDTH 8 0
BBX 5 10 1 -2
BITMAP
60
A0
E0
30
28
A8
A8
70
20
70
ENDCHAR
STARTCHAR uni05D0
ENCODING 1488
SWIDTH 512 0
DWIDTH 8 0
BBX 6 8 1 0
BITMAP
84
84
44
28
50
88
84
84
ENDCHAR
STARTCHAR uni05D1
ENCODING 1489
SWIDTH 512 0
DWIDTH 8 0
BBX 7 8 1 0
BITMAP
F8
08
08
08
08
08
08
FE
ENDCHAR
STARTCHAR uni05D2
ENCODING 1490
SWIDTH 512 0
DWIDTH 8 0
BBX 6 8 1 0
BITMAP
60
10
10
08
18
28
44
84
ENDCHAR
STARTCHAR uni05D3
ENCODING 1491
SWIDTH 512 0
DWIDTH 8 0
BBX 6 8 1 0
BITMAP
FC
08
08
08
08
08
08
08
ENDCHAR
STARTCHAR uni05D4
ENCODING 1492
SWIDTH 512 0
DWIDTH 8 0
BBX 6 8 1 0
BITMAP
FC
04
04
44
44
44
44
44
ENDCHAR
STARTCHAR uni05D5
ENCODING 1493
SWIDTH 512 0
DWIDTH 8 0
BBX 3 8 2 0
BITMAP
E0
20
20
20
20
20
20
20
ENDCHAR
STARTCHAR uni05D6
ENCODING 1494
SWIDTH 512 0
DWIDTH 8 0
BBX 5 8 2 0
BITMAP
C0
30
28
20
20
20
20
20
ENDCHAR
STARTCHAR uni05D7
ENCODING 1495
SWIDTH 512 0
DWIDTH 8 0
BBX 6 8 1 0
BITMAP
FC
44
44
44
44
44
44
44
ENDCHAR
STARTCHAR uni05D8
ENCODING 1496
SWIDTH 512 0
DWIDTH 8 0
BBX 6 8 1 0
BITMAP
8C
94
84
84
84
84
84
FC
ENDCHAR
STARTCHAR uni05D9
ENCODING 1497
SWIDTH 512 0
DWIDTH 8 0
BBX 3 4 2 4
BITMAP
E0
20
20
20
ENDCHAR
STARTCHAR uni05DA
ENCODING 1498
SWIDTH 512 0
DWIDTH 8 0
BBX 6 10 1 -2
BITMAP
FC
04
04
04
04
04
04
04
04
04
ENDCHAR
STARTCHAR uni05DB
ENCODING 1499
SWIDTH 512 0
DWIDTH 8 0
BBX 6 8 1 0
BITMAP
FC
04
04
04
04
04
04
F8
ENDCHAR
STARTCHAR uni05DC
ENCODING 1500
SWIDTH 512 0
DWIDTH 8 0
BBX 5 10 2 0
BITMAP
80
80
F8
08
08
08
10
10
20
C0
ENDCHAR
STARTCHAR uni05DD
ENCODING 1501
SWIDTH 512 0
DWIDTH 8 0
BBX 6 8 1 0
BITMAP
FC
44
44
44
44
44
44
7C
ENDCHAR
STARTCHAR uni05DE
ENCODING 1502
SWIDTH 512 0
DWIDTH 8 0
BBX 7 8 1 0
BITMAP
90
90
68
28
44
44
82
9E
ENDCHAR
STARTCHAR uni05DF
ENCODING 1503
SWIDTH 512 0
DWIDTH 8 0
BBX 3 10 2 -2
BITMAP
E0
20
20
20
20
20
20
20
20
20
ENDCHAR
STARTCHAR uni05E0
ENCODING 1504
SWIDTH 512 0
DWIDTH 8 0
BBX 4 8 2 0
BITMAP
70
10
10
10
10
10
10
F0
ENDCHAR
STARTCHAR uni05E1
ENCODING 1505
SWIDTH 512 0
DWIDTH 8 0
BBX 6 8 1 0
BITMAP
FC
84
84
84
84
84
88
F0
ENDCHAR
STARTCHAR uni05E2
ENCODING 1506
SWIDTH 512 0
DWIDTH 8 0
BBX 6 8 1 0
BITMAP
24
24
24
24
24
24
24
FC
ENDCHAR
STARTCHAR uni05E3
ENCODING 1507
SWIDTH 512 0
DWIDTH 8 0
BBX 6 10 1 -2
BITMAP
FC
84
84
84
E4
04
04
04
04
04
ENDCHAR
STARTCHAR uni05E4
ENCODING 1508
SWIDTH 512 0
DWIDTH 8 0
BBX 6 8 1 0
BITMAP
FC
84
84
84
E4
04
04
FC
ENDCHAR
STARTCHAR uni05E5
ENCODING 1509
SWIDTH 512 0
DWIDTH 8 0
BBX 5 10 2 -2
BITMAP
88
88
90
A0
C0
80
80
80
80
80
ENDCHAR
STARTCHAR uni05E6
ENCODING 1510
SWIDTH 512 0
DWIDTH 8 0
BBX 6 8 1 0
BITMAP
84
84
48
30
10
08
04
FC
ENDCHAR
STARTCHAR uni05E7
ENCODING 1511
SWIDTH 512 0
DWIDTH 8 0
BBX 6 10 1 -2
BITMAP
FC
44
44
48
48
50
40
40
40
40
ENDCHAR
STARTCHAR uni05E8
ENCODING 1512
SWIDTH 512 0
DWIDTH 8 0
BBX 6 8 1 0
BITMAP
FC
04
04
04
04
04
04
04
ENDCHAR
STARTCHAR uni05E9
ENCODING 1513
SWIDTH 512 0
DWIDTH 8 0
BBX 7 8 1 0
BITMAP
92
92
92
92
92
92
92
FE
ENDCHAR
STARTCHAR uni05EA
ENCODING 1514
SWIDTH 512 0
DWIDTH 8 0
BBX 6 8 1 0
BITMAP
7C
44
44
44
44
44
44
C4
ENDCHAR
STARTCHAR uni060C
ENCODING 1548
SWIDTH 512 0
DWIDTH 8 0
BBX 2 4 3 5
BITMAP
40
80
C0
C0
ENDCHAR
STARTCHAR uni061B
ENCODING 1563
SWIDTH 512 0
DWIDTH 8 0
BBX 2 5 3 4
BITMAP
40
80
C0
00
C0
ENDCHAR
STARTCHAR uni061F
ENCODING 1567
SWIDTH 512 0
DWIDTH 8 0
BBX 7 9 1 4
BITMAP
7C
82
80
40
20
10
10
00
10
ENDCHAR
STARTCHAR uni0621
ENCODING 1569
SWIDTH 512 0
DWIDTH 8 0
BBX 4 5 3 4
BITMAP
70
80
B0
40
80
ENDCHAR
STARTCHAR uni0622
ENCODING 1570
SWIDTH 512 0
DWIDTH 8 0
BBX 6 9 1 5
BITMAP
3C
C0
10
18
18
10
10
10
10
ENDCHAR
STARTCHAR uni0623
ENCODING 1571
SWIDTH 512 0
DWIDTH 8 0
BBX 6 9 1 5
BITMAP
60
80
48
8C
08
08
08
08
08
ENDCHAR
STARTCHAR uni0624
ENCODING 1572
SWIDTH 512 0
DWIDTH 8 0
BBX 7 12 1 1
BITMAP
60
80
60
80
0C
12
12
1E
02
04
88
70
ENDCHAR
STARTCHAR uni0625
ENCODING 1573
SWIDTH 512 0
DWIDTH 8 0
BBX 6 8 1 4
BITMAP
08
0C
08
08
68
88
48
80
ENDCHAR
STARTCHAR uni0626
ENCODING 1574
SWIDTH 512 0
DWIDTH 8 0
BBX 8 10 0 1
BITMAP
03
04
02
04
00
0C
58
8C
84
78
ENDCHAR
STARTCHAR uni0627
ENCODING 1575
SWIDTH 512 0
DWIDTH 8 0
BBX 2 8 3 5
BITMAP
80
C0
C0
80
80
80
80
80
ENDCHAR
STARTCHAR uni0628
ENCODING 1576
SWIDTH 512 0
DWIDTH 8 0
BBX 8 7 0 2
BITMAP
02
41
81
7E
00
00
10
ENDCHAR
STARTCHAR uni0629
ENCODING 1577
SWIDTH 512 0
DWIDTH 8 0
BBX 5 8 3 5
BITMAP
90
00
00
60
90
88
88
70
ENDCHAR
STARTCHAR uni062A
ENCODING 1578
SWIDTH 512 0
DWIDTH 8 0
BBX 8 7 0 5
BITMAP
24
00
00
02
41
81
7E
ENDCHAR
STARTCHAR uni062B
ENCODING 1579
SWIDTH 512 0
DWIDTH 8 0
BBX 8 9 0 5
BITMAP
10
00
24
00
00
02
41
81
7E
ENDCHAR
STARTCHAR uni062C
ENCODING 1580
SWIDTH 512 0
DWIDTH 8 0
BBX 8 8 0 0
BITMAP
FC
23
40
80
88
80
41
3E
ENDCHAR
STARTCHAR uni062D
ENCODING 1581
SWIDTH 512 0
DWIDTH 8 0
BBX 8 8 0 0
BITMAP
FC
23
40
80
80
80
41
3E
ENDCHAR
STARTCHAR uni062E
ENCODING 1582
SWIDTH 512 0
DWIDTH 8 0
BBX 8 11 0 0
BITMAP
10
00
00
FC
23
40
80
80
80
41
3E
ENDCHAR
STARTCHAR uni062F
ENCODING 1583
SWIDTH 512 0
DWIDTH 8 0
BBX 6 5 2 5
BITMAP
10
08
04
84
F8
ENDCHAR
STARTCHAR uni0630
ENCODING 1584
SWIDTH 512 0
DWIDTH 8 0
BBX 6 7 2 5
BITMAP
40
00
10
08
04
84
F8
ENDCHAR
STARTCHAR uni0631
ENCODING 1585
SWIDTH 512 0
DWIDTH 8 0
BBX 7 7 1 1
BITMAP
04
02
02
02
04
88
70
ENDCHAR
STARTCHAR uni0632
ENCODING 1586
SWIDTH 512 0
DWIDTH 8 0
BBX 7 10 1 1
BITMAP
10
00
00
04
02
02
02
04
88
70
ENDCHAR
STARTCHAR uni0633
ENCODING 1587
SWIDTH 512 0
DWIDTH 8 0
BBX 8 7 0 2
BITMAP
02
91
49
76
40
40
80
ENDCHAR
STARTCHAR uni0634
ENCODING 1588
SWIDTH 512 0
DWIDTH 8 0
BBX 8 11 0 2
BITMAP
20
00
48
00
02
91
49
76
40
40
80
ENDCHAR
STARTCHAR uni0635
ENCODING 1589
SWIDTH 512 0
DWIDTH 8 0
BBX 8 7 0 2
BITMAP
0E
91
61
7E
40
40
80
ENDCHAR
STARTCHAR uni0636
ENCODING 1590
SWIDTH 512 0
DWIDTH 8 0
BBX 8 9 0 2
BITMAP
20
00
0E
91
61
7E
40
40
80
ENDCHAR
STARTCHAR uni0637
ENCODING 1591
SWIDTH 512 0
DWIDTH 8 0
BBX 8 8 0 5
BITMAP
20
20
20
20
2E
31
21
FE
ENDCHAR
STARTCHAR uni0638
ENCODING 1592
SWIDTH 512 0
DWIDTH 8 0
BBX 8 8 0 5
BITMAP
20
24
20
20
2E
31
21
FE
ENDCHAR
STARTCHAR uni0639
ENCODING 1593
SWIDTH 512 0
DWIDTH 8 0
BBX 8 12 0 -1
BITMAP
0E
11
10
08
1F
20
40
80
80
80
41
3E
ENDCHAR
STARTCHAR uni063A
ENCODING 1594
SWIDTH 512 0
DWIDTH 8 0
BBX 8 14 0 -1
BITMAP
04
00
0E
11
10
08
1F
20
40
80
80
80
41
3E
ENDCHAR
STARTCHAR uni0640
ENCODING 1600
SWIDTH 512 0
DWIDTH 8 0
BBX 8 1 0 5
BITMAP
FF
ENDCHAR
STARTCHAR uni0641
ENCODING 1601
SWIDTH 512 0
DWIDTH 8 0
BBX 8 8 0 5
BITMAP
04
00
00
0E
09
45
83
7E
ENDCHAR
STARTCHAR uni0642
ENCODING 1602
SWIDTH 512 0
DWIDTH 8 0
BBX 8 10 0 2
BITMAP
12
00
00
0E
09
45
83
81
82
7C
ENDCHAR
STARTCHAR uni0643
ENCODING 1603
SWIDTH 512 0
DWIDTH 8 0
BBX 8 8 0 5
BITMAP
01
09
11
09
41
81
81
7E
ENDCHAR
STARTCHAR uni0644
ENCODING 1604
SWIDTH 512 0
DWIDTH 8 0
BBX 8 11 0 2
BITMAP
01
01
01
01
01
01
41
81
81
82
7C
ENDCHAR
STARTCHAR uni0645
ENCODING 1605
SWIDTH 512 0
DWIDTH 8 0
BBX 8 10 0 0
BITMAP
0E
11
09
7F
80
80
40
40
20
20
ENDCHAR
STARTCHAR uni0646
ENCODING 1606
SWIDTH 512 0
DWIDTH 8 0
BBX 8 9 0 2
BITMAP
08
00
00
02
41
81
81
82
7C
ENDCHAR
STARTCHAR uni0647
ENCODING 1607
SWIDTH 512 0
DWIDTH 8 0
BBX 5 5 3 5
BITMAP
60
90
88
88
70
ENDCHAR
STARTCHAR uni0648
ENCODING 1608
SWIDTH 512 0
DWIDTH 8 0
BBX 7 8 1 1
BITMAP
0C
12
12
1E
02
04
88
70
ENDCHAR
STARTCHAR uni0649
ENCODING 1609
SWIDTH 512 0
DWIDTH 8 0
BBX 8 8 0 1
BITMAP
06
09
08
46
81
81
82
7C
ENDCHAR
STARTCHAR uni064A
ENCODING 1610
SWIDTH 512 0
DWIDTH 8 0
BBX 8 10 0 -1
BITMAP
06
09
08
46
81
81
82
7C
00
48
ENDCHAR
STARTCHAR uni064B
ENCODING 1611
SWIDTH 512 0
DWIDTH 8 0
BBX 5 6 1 8
BITMAP
18
70
C0
18
70
C0
ENDCHAR
STARTCHAR uni064C
ENCODING 1612
SWIDTH 512 0
DWIDTH 8 0
BBX 5 5 2 8
BITMAP
D8
D8
48
48
90
ENDCHAR
STARTCHAR uni064D
ENCODING 1613
SWIDTH 512 0
DWIDTH 8 0
BBX 5 6 1 -1
BITMAP
18
70
C0
18
70
C0
ENDCHAR
STARTCHAR uni064E
ENCODING 1614
SWIDTH 512 0
DWIDTH 8 0
BBX 5 3 1 10
BITMAP
18
70
C0
ENDCHAR
STARTCHAR uni064F
ENCODING 1615
SWIDTH 512 0
DWIDTH 8 0
BBX 2 5 3 8
BITMAP
C0
C0
40
40
80
ENDCHAR
STARTCHAR uni0650
ENCODING 1616
SWIDTH 512 0
DWIDTH 8 0
BBX 5 3 1 -1
BITMAP
18
70
C0
ENDCHAR
STARTCHAR uni0651
ENCODING 1617
SWIDTH 512 0
DWIDTH 8 0
BBX 7 3 1 11
BITMAP
44
92
6C
ENDCHAR
STARTCHAR uni0652
ENCODING 1618
SWIDTH 512 0
DWIDTH 8 0
BBX 5 5 3 5
BITMAP
30
48
88
90
60
ENDCHAR
STARTCHAR uni0C01
ENCODING 3073
SWIDTH 168 0
DWIDTH 7 0
BBX 5 9 0 0
BITMAP
38
40
80
80
80
80
80
60
18
ENDCHAR
STARTCHAR uni0C02
ENCODING 3074
SWIDTH 264 0
DWIDTH 11 0
BBX 9 9 0 0
BITMAP
3E00
4100
8180
8080
8080
8080
8100
6200
1C00
ENDCHAR
STARTCHAR uni0C03
ENCODING 3075
SWIDTH 144 0
DWIDTH 6 0
BBX 4 9 0 0
BITMAP
F0
90
90
60
00
60
90
90
F0
ENDCHAR
STARTCHAR uni0C05
ENCODING 3077
SWIDTH 288 0
DWIDTH 12 0
BBX 12 9 0 0
BITMAP
71E0
9230
F210
8210
9F10
8020
4020
20C0
1F80
ENDCHAR
STARTCHAR uni0C06
ENCODING 3078
SWIDTH 288 0
DWIDTH 12 0
BBX 12 9 0 0
BITMAP
71E0
9110
F190
8070
9FF0
8030
4020
20C0
1F00
ENDCHAR
STARTCHAR uni0C07
ENCODING 3079
SWIDTH 216 0
DWIDTH 9 0
BBX 10 10 0 -1
BITMAP
6700
9880
9840
0040
0C40
3380
2180
2180
1EC0
00C0
ENDCHAR
STARTCHAR uni0C08
ENCODING 3080
SWIDTH 288 0
DWIDTH 12 0
BBX 12 15 0 0
BITMAP
0100
0100
0200
0400
2400
1800
3C00
4260
4110
8130
FFF0
8150
4120
2600
1800
ENDCHAR
STARTCHAR uni0C09
ENCODING 3081
SWIDTH 216 0
DWIDTH 9 0
BBX 10 11 0 0
BITMAP
0400
0400
1C00
2000
4000
8000
FF00
8000
89C0
8D40
73C0
ENDCHAR
STARTCHAR uni0C0A
ENCODING 3082
SWIDTH 288 0
DWIDTH 12 0
BBX 12 11 0 0
BITMAP
0A00
0A00
1E00
2000
4070
8010
FFF0
8050
89F0
8D40
7380
ENDCHAR
STARTCHAR uni0C0B
ENCODING 3083
SWIDTH 480 0
DWIDTH 20 0
BBX 20 9 0 0
BITMAP
E21040
920840
910820
210430
408410
888410
988630
954A20
6231C0
ENDCHAR
STARTCHAR uni0C0C
ENCODING 3084
SWIDTH 312 0
DWIDTH 13 0
BBX 13 9 0 0
BITMAP
73D0
8C30
8428
0048
0088
0108
0118
0090
0060
ENDCHAR
STARTCHAR uni0C0E
ENCODING 3086
SWIDTH 168 0
DWIDTH 7 0
BBX 7 9 0 0
BITMAP
30
08
04
02
02
42
A2
A2
5C
ENDCHAR
STARTCHAR uni0C0F
ENCODING 3087
SWIDTH 168 0
DWIDTH 7 0
BBX 7 11 0 0
BITMAP
60
80
A0
98
04
02
02
02
E2
A2
FC
ENDCHAR
STARTCHAR uni0C10
ENCODING 3088
SWIDTH 192 0
DWIDTH 8 0
BBX 8 9 0 0
BITMAP
FE
01
01
01
01
41
A1
B2
4C
ENDCHAR
STARTCHAR uni0C12
ENCODING 3090
SWIDTH 216 0
DWIDTH 9 0
BBX 9 9 0 0
BITMAP
7000
8800
8800
1000
6000
8080
8880
9C80
6300
ENDCHAR
STARTCHAR uni0C13
ENCODING 3091
SWIDTH 216 0
DWIDTH 9 0
BBX 9 12 0 0
BITMAP
2000
2000
2000
7000
8800
8800
1000
6000
8080
8880
9C80
6300
ENDCHAR
STARTCHAR uni0C14
ENCODING 3092
SWIDTH 288 0
DWIDTH 12 0
BBX 12 13 0 0
BITMAP
7FF0
0250
0220
0400
7800
8800
8800
1000
6000
8080
8880
9C80
6300
ENDCHAR
STARTCHAR uni0C15
ENCODING 3093
SWIDTH 168 0
DWIDTH 7 0
BBX 7 9 0 0
BITMAP
7C
82
80
C0
3C
02
82
66
18
ENDCHAR
STARTCHAR uni0C16
ENCODING 3094
SWIDTH 216 0
DWIDTH 9 0
BBX 9 10 0 -1
BITMAP
F200
A900
4980
0480
0480
6480
9880
9900
7600
1000
ENDCHAR
STARTCHAR uni0C17
ENCODING 3095
SWIDTH 168 0
DWIDTH 7 0
BBX 7 8 0 1
BITMAP
38
44
82
82
82
82
82
82
ENDCHAR
STARTCHAR uni0C18
ENCODING 3096
SWIDTH 336 0
DWIDTH 14 0
BBX 14 10 0 -1
BITMAP
0010
0208
0108
0104
0084
4084
A184
B348
6C30
2000
ENDCHAR
STARTCHAR uni0C19
ENCODING 3097
SWIDTH 216 0
DWIDTH 9 0
BBX 9 9 0 0
BITMAP
7200
8A00
8F00
1000
6000
8080
8880
9C80
6300
ENDCHAR
STARTCHAR uni0C1A
ENCODING 3098
SWIDTH 264 0
DWIDTH 11 0
BBX 11 9 0 0
BITMAP
0700
0080
0040
0060
E020
4020
4420
4A40
3180
ENDCHAR
STARTCHAR uni0C1B
ENCODING 3099
SWIDTH 264 0
DWIDTH 11 0
BBX 11 10 0 -1
BITMAP
0700
0080
0040
0060
E020
4020
4420
4E40
3580
0400
ENDCHAR
STARTCHAR uni0C1C
ENCODING 3100
SWIDTH 216 0
DWIDTH 9 0
BBX 9 9 0 0
BITMAP
7100
8880
8F00
1000
6000
8080
8880
9C80
6300
ENDCHAR
STARTCHAR uni0C1D
ENCODING 3101
SWIDTH 432 0
DWIDTH 18 0
BBX 19 10 0 -1
BITMAP
3C2100
421080
821040
810860
810820
810820
830860
649C40
186B80
000800
ENDCHAR
STARTCHAR uni0C1E
ENCODING 3102
SWIDTH 312 0
DWIDTH 13 0
BBX 14 10 0 -1
BITMAP
6700
9890
9850
007C
0C40
3380
2180
2180
1E80
0080
ENDCHAR
STARTCHAR uni0C1F
ENCODING 3103
SWIDTH 288 0
DWIDTH 12 0
BBX 12 11 0 0
BITMAP
1000
1000
1040
2820
4820
B010
8010
8010
8610
8610
79E0
ENDCHAR
STARTCHAR uni0C20
ENCODING 3104
SWIDTH 168 0
DWIDTH 7 0
BBX 8 9 0 0
BITMAP
3C
42
83
99
99
81
82
64
18
ENDCHAR
STARTCHAR uni0C21
ENCODING 3105
SWIDTH 216 0
DWIDTH 9 0
BBX 10 9 0 0
BITMAP
3C00
4000
4000
8000
8000
8180
8D40
9440
6380
ENDCHAR
STARTCHAR uni0C22
ENCODING 3106
SWIDTH 216 0
DWIDTH 9 0
BBX 10 10 0 -1
BITMAP
3C00
4000
4000
8000
8000
8180
8D40
9C40
6B80
0800
ENDCHAR
STARTCHAR uni0C23
ENCODING 3107
SWIDTH 288 0
DWIDTH 12 0
BBX 12 9 0 0
BITMAP
73C0
8C20
8420
8010
4010
8010
8110
82A0
71C0
ENDCHAR
STARTCHAR uni0C24
ENCODING 3108
SWIDTH 216 0
DWIDTH 9 0
BBX 10 9 0 0
BITMAP
0700
0080
0040
E1C0
A240
C1C0
80C0
6300
1C00
ENDCHAR
STARTCHAR uni0C25
ENCODING 3109
SWIDTH 264 0
DWIDTH 11 0
BBX 11 10 0 -1
BITMAP
3F00
6080
8440
8E60
8C20
8020
8C60
4E40
3580
0400
ENDCHAR
STARTCHAR uni0C26
ENCODING 3110
SWIDTH 264 0
DWIDTH 11 0
BBX 11 9 0 0
BITMAP
3F00
6080
8040
8060
8020
8020
8C60
4A40
3180
ENDCHAR
STARTCHAR uni0C27
ENCODING 3111
SWIDTH 264 0
DWIDTH 11 0
BBX 11 10 0 -1
BITMAP
3F00
6080
8040
8060
8020
8020
8C60
4E40
3580
0400
ENDCHAR
STARTCHAR uni0C28
ENCODING 3112
SWIDTH 216 0
DWIDTH 9 0
BBX 9 9 0 0
BITMAP
0C00
0200
0100
0180
0080
7080
8880
8900
0600
ENDCHAR
STARTCHAR uni0C2A
ENCODING 3114
SWIDTH 216 0
DWIDTH 9 0
BBX 9 8 0 0
BITMAP
0200
0100
0180
0080
4080
A180
B300
4C00
ENDCHAR
STARTCHAR uni0C2B
ENCODING 3115
SWIDTH 216 0
DWIDTH 9 0
BBX 9 9 0 -1
BITMAP
0200
0100
0180
0080
4080
A180
B300
6C00
2000
ENDCHAR
STARTCHAR uni0C2C
ENCODING 3116
SWIDTH 216 0
DWIDTH 9 0
BBX 9 9 0 0
BITMAP
E200
9200
9100
2180
4080
8880
9880
9500
6200
ENDCHAR
STARTCHAR uni0C2D
ENCODING 3117
SWIDTH 216 0
DWIDTH 9 0
BBX 9 10 0 -1
BITMAP
E200
9200
9100
2180
4080
8880
9880
9D00
6A00
0800
ENDCHAR
STARTCHAR uni0C2E
ENCODING 3118
SWIDTH 336 0
DWIDTH 14 0
BBX 14 9 0 0
BITMAP
1C10
0208
0108
0104
0084
4084
A184
B348
4C30
ENDCHAR
STARTCHAR uni0C2F
ENCODING 3119
SWIDTH 408 0
DWIDTH 17 0
BBX 17 9 0 0
BITMAP
078200
384100
442100
822080
821080
821080
831080
452900
38C600
ENDCHAR
STARTCHAR uni0C30
ENCODING 3120
SWIDTH 168 0
DWIDTH 7 0
BBX 8 9 0 0
BITMAP
3C
42
83
81
81
81
82
64
18
ENDCHAR
STARTCHAR uni0C31
ENCODING 3121
SWIDTH 288 0
DWIDTH 12 0
BBX 12 9 0 0
BITMAP
10C0
2920
4920
B090
9F90
8010
8610
8610
79E0
ENDCHAR
STARTCHAR uni0C32
ENCODING 3122
SWIDTH 264 0
DWIDTH 11 0
BBX 11 9 0 0
BITMAP
3880
4840
C820
B020
8020
8060
4040
3180
0E00
ENDCHAR
STARTCHAR uni0C33
ENCODING 3123
SWIDTH 168 0
DWIDTH 7 0
BBX 7 9 0 0
BITMAP
1C
02
E2
A2
A2
7C
38
28
38
ENDCHAR
STARTCHAR uni0C35
ENCODING 3125
SWIDTH 216 0
DWIDTH 9 0
BBX 9 9 0 0
BITMAP
1C00
0200
0100
0180
0080
4080
A180
B300
4C00
ENDCHAR
STARTCHAR uni0C36
ENCODING 3126
SWIDTH 144 0
DWIDTH 6 0
BBX 6 9 0 0
BITMAP
18
04
F4
94
0C
78
90
90
60
ENDCHAR
STARTCHAR uni0C37
ENCODING 3127
SWIDTH 264 0
DWIDTH 11 0
BBX 11 10 0 -2
BITMAP
0200
0100
0100
0080
4080
A180
B380
4C80
0080
0060
ENDCHAR
STARTCHAR uni0C38
ENCODING 3128
SWIDTH 216 0
DWIDTH 9 0
BBX 9 8 0 0
BITMAP
0200
0100
0180
0080
7080
8880
8900
0600
ENDCHAR
STARTCHAR uni0C39
ENCODING 3129
SWIDTH 312 0
DWIDTH 13 0
BBX 13 9 0 0
BITMAP
07F8
0228
0110
0100
0080
4080
A100
B300
4C00
ENDCHAR
STARTCHAR uni0C3E
ENCODING 3134
SWIDTH 240 0
DWIDTH 10 0
BBX 10 3 0 6
BITMAP
FFC0
0140
0080
ENDCHAR
STARTCHAR uni0C3F
ENCODING 3135
SWIDTH 120 0
DWIDTH 5 0
BBX 5 6 0 8
BITMAP
E0
98
C8
08
98
60
ENDCHAR
STARTCHAR uni0C40
ENCODING 3136
SWIDTH 120 0
DWIDTH 5 0
BBX 5 9 0 8
BITMAP
38
28
20
E0
90
C8
08
90
60
ENDCHAR
STARTCHAR uni0C42
ENCODING 3138
SWIDTH 264 0
DWIDTH 11 0
BBX 11 9 0 0
BITMAP
1FE0
08A0
0840
0400
0400
0400
8400
4800
3000
ENDCHAR
STARTCHAR uni0C43
ENCODING 3139
SWIDTH 240 0
DWIDTH 10 0
BBX 7 13 2 -4
BITMAP
10
08
04
04
02
02
02
02
72
92
B4
88
70
ENDCHAR
STARTCHAR uni0C44
ENCODING 3140
SWIDTH 336 0
DWIDTH 14 0
BBX 12 13 2 -4
BITMAP
1FF0
0850
0420
0400
0200
0200
0200
0200
7200
9200
B400
8800
7000
ENDCHAR
STARTCHAR uni0C46
ENCODING 3142
SWIDTH 192 0
DWIDTH 8 0
BBX 8 5 0 8
BITMAP
FE
01
01
01
06
ENDCHAR
STARTCHAR uni0C47
ENCODING 3143
SWIDTH 216 0
DWIDTH 9 0
BBX 9 8 0 8
BITMAP
0380
0480
0400
FE00
0100
0100
0100
0600
ENDCHAR
STARTCHAR uni0C4A
ENCODING 3146
SWIDTH 216 0
DWIDTH 9 0
BBX 9 5 0 8
BITMAP
4F80
B280
8380
8000
4000
ENDCHAR
STARTCHAR uni0C4B
ENCODING 3147
SWIDTH 264 0
DWIDTH 11 0
BBX 11 6 0 9
BITMAP
01E0
0F20
F280
9280
8100
4000
ENDCHAR
STARTCHAR uni0C4C
ENCODING 3148
SWIDTH 288 0
DWIDTH 12 0
BBX 13 5 -1 8
BITMAP
FFF8
0428
0410
0800
7000
ENDCHAR
STARTCHAR uni0C4D
ENCODING 3149
SWIDTH 192 0
DWIDTH 8 0
BBX 8 7 0 8
BITMAP
FF
80
F0
80
80
80
60
ENDCHAR
STARTCHAR uni0C55
ENCODING 3157
SWIDTH 72 0
DWIDTH 3 0
BBX 3 4 0 11
BITMAP
60
A0
80
80
ENDCHAR
STARTCHAR uni0C56
ENCODING 3158
SWIDTH 192 0
DWIDTH 8 0
BBX 8 3 0 -4
BITMAP
C0
A0
FF
ENDCHAR
STARTCHAR uni0C60
ENCODING 3168
SWIDTH 600 0
DWIDTH 25 0
BBX 25 9 0 0
BITMAP
E2107F80
92084280
91082100
21042000
40841000
88841000
98862000
954A2000
6231C000
ENDCHAR
STARTCHAR uni0C61
ENCODING 3169
SWIDTH 480 0
DWIDTH 20 0
BBX 20 9 0 0
BITMAP
73DFF0
8C3050
842820
004800
008800
010800
011000
009000
006000
ENDCHAR
STARTCHAR uni0C66
ENCODING 3174
SWIDTH 264 0
DWIDTH 11 0
BBX 9 9 0 0
BITMAP
3E00
4100
8180
8080
8080
8080
8100
6200
1C00
ENDCHAR
STARTCHAR uni0C67
ENCODING 3175
SWIDTH 312 0
DWIDTH 13 0
BBX 10 8 0 1
BITMAP
3F00
4080
8040
8040
8040
8040
8040
4080
ENDCHAR
STARTCHAR uni0C68
ENCODING 3176
SWIDTH 264 0
DWIDTH 11 0
BBX 9 9 0 0
BITMAP
0E00
0D00
0C80
0080
0080
0180
0100
0200
FC00
ENDCHAR
STARTCHAR uni0C69
ENCODING 3177
SWIDTH 216 0
DWIDTH 9 0
BBX 7 9 0 0
BITMAP
3C
C2
02
06
3C
02
82
66
18
ENDCHAR
STARTCHAR uni0C6A
ENCODING 3178
SWIDTH 240 0
DWIDTH 10 0
BBX 8 9 0 0
BITMAP
42
81
81
81
82
7C
24
24
18
ENDCHAR
STARTCHAR uni0C6B
ENCODING 3179
SWIDTH 312 0
DWIDTH 13 0
BBX 10 9 0 0
BITMAP
79C0
8540
0240
0380
0300
0200
CE40
3240
0180
ENDCHAR
STARTCHAR uni0C6C
ENCODING 3180
SWIDTH 264 0
DWIDTH 11 0
BBX 9 9 0 0
BITMAP
4000
8000
8000
8000
6000
8000
8000
8000
7F80
ENDCHAR
STARTCHAR uni0C6D
ENCODING 3181
SWIDTH 216 0
DWIDTH 9 0
BBX 7 9 0 0
BITMAP
7C
82
02
06
78
80
82
8C
70
ENDCHAR
STARTCHAR uni0C6E
ENCODING 3182
SWIDTH 312 0
DWIDTH 13 0
BBX 10 9 0 0
BITMAP
3FC0
1000
1000
5000
8800
8800
8800
9000
6000
ENDCHAR
STARTCHAR uni0C6F
ENCODING 3183
SWIDTH 264 0
DWIDTH 11 0
BBX 9 9 0 0
BITMAP
7F80
8000
8000
8000
6000
8000
8000
8000
4000
ENDCHAR
STARTCHAR uni0D02
ENCODING 3330
SWIDTH 120 0
DWIDTH 6 0
BBX 5 4 0 0
BITMAP
70
98
98
F0
ENDCHAR
STARTCHAR uni0D03
ENCODING 3331
SWIDTH 100 0
DWIDTH 5 0
BBX 3 7 0 0
BITMAP
E0
A0
E0
40
A0
A0
40
ENDCHAR
STARTCHAR uni0D05
ENCODING 3333
SWIDTH 300 0
DWIDTH 15 0
BBX 14 7 0 0
BITMAP
7E70
5998
A51C
B92C
A52C
D528
0810
ENDCHAR
STARTCHAR uni0D06
ENCODING 3334
SWIDTH 340 0
DWIDTH 17 0
BBX 16 9 0 -2
BITMAP
7E70
5988
A53E
B92A
A52B
D52B
0812
0016
0008
ENDCHAR
STARTCHAR uni0D07
ENCODING 3335
SWIDTH 240 0
DWIDTH 12 0
BBX 11 10 0 -3
BITMAP
7B80
8C40
E440
9460
9440
5440
2080
7F00
C000
7FE0
ENDCHAR
STARTCHAR uni0D09
ENCODING 3337
SWIDTH 180 0
DWIDTH 9 0
BBX 8 10 0 -3
BITMAP
38
C6
E2
93
93
52
26
F8
80
7F
ENDCHAR
STARTCHAR uni0D0B
ENCODING 3339
SWIDTH 200 0
DWIDTH 10 0
BBX 9 11 0 -4
BITMAP
6300
9480
9480
F780
8080
6300
7F00
8080
8080
8080
7F00
ENDCHAR
STARTCHAR uni0D0C
ENCODING 3340
SWIDTH 240 0
DWIDTH 12 0
BBX 11 7 0 0
BITMAP
7BC0
8E60
E4A0
94A0
94A0
54E0
2000
ENDCHAR
STARTCHAR uni0D0E
ENCODING 3342
SWIDTH 300 0
DWIDTH 15 0
BBX 14 10 0 -3
BITMAP
00F0
0150
7148
8A4C
8A4C
8A4C
1FCC
0248
0150
00A0
ENDCHAR
STARTCHAR uni0D0F
ENCODING 3343
SWIDTH 300 0
DWIDTH 15 0
BBX 14 10 0 -3
BITMAP
00F0
0148
714C
8A4C
8A48
8A58
1FF8
024C
0158
00B0
ENDCHAR
STARTCHAR uni0D12
ENCODING 3346
SWIDTH 180 0
DWIDTH 9 0
BBX 8 7 0 0
BITMAP
38
C4
E4
96
93
52
24
ENDCHAR
STARTCHAR uni0D15
ENCODING 3349
SWIDTH 240 0
DWIDTH 12 0
BBX 11 7 0 0
BITMAP
0C00
1200
1300
FFC0
9260
BA40
6480
ENDCHAR
STARTCHAR uni0D16
ENCODING 3350
SWIDTH 240 0
DWIDTH 12 0
BBX 11 7 0 0
BITMAP
3820
4420
A220
D220
9220
9420
67E0
ENDCHAR
STARTCHAR uni0D17
ENCODING 3351
SWIDTH 240 0
DWIDTH 12 0
BBX 11 7 0 0
BITMAP
6380
4440
8460
8460
8840
58C0
3100
ENDCHAR
STARTCHAR uni0D18
ENCODING 3352
SWIDTH 340 0
DWIDTH 17 0
BBX 16 7 0 0
BITMAP
71C1
9221
9211
DFF1
0401
0601
03FF
ENDCHAR
STARTCHAR uni0D19
ENCODING 3353
SWIDTH 240 0
DWIDTH 12 0
BBX 11 7 0 0
BITMAP
7BC0
4E20
A460
D5C0
9420
9420
65C0
ENDCHAR
STARTCHAR uni0D1A
ENCODING 3354
SWIDTH 260 0
DWIDTH 13 0
BBX 12 7 0 0
BITMAP
0010
0010
3810
4410
4410
0C30
FFF0
ENDCHAR
STARTCHAR uni0D1B
ENCODING 3355
SWIDTH 320 0
DWIDTH 16 0
BBX 15 7 0 0
BITMAP
0078
008C
388E
4496
4496
0C94
FF88
ENDCHAR
STARTCHAR uni0D1C
ENCODING 3356
SWIDTH 200 0
DWIDTH 10 0
BBX 9 9 0 -2
BITMAP
7700
C980
A880
E900
0600
7800
8700
DB80
6000
ENDCHAR
STARTCHAR uni0D1D
ENCODING 3357
SWIDTH 380 0
DWIDTH 19 0
BBX 18 7 0 0
BITMAP
3F0880
4C8840
928840
928840
928C40
D45E80
083300
ENDCHAR
STARTCHAR uni0D1E
ENCODING 3358
SWIDTH 320 0
DWIDTH 16 0
BBX 15 7 0 0
BITMAP
7BF8
8EA4
E4A6
9496
9496
54A4
2040
ENDCHAR
STARTCHAR uni0D1F
ENCODING 3359
SWIDTH 140 0
DWIDTH 7 0
BBX 6 7 0 0
BITMAP
7C
80
80
7C
04
CC
70
ENDCHAR
STARTCHAR uni0D20
ENCODING 3360
SWIDTH 160 0
DWIDTH 8 0
BBX 7 7 0 0
BITMAP
38
44
82
82
86
6C
30
ENDCHAR
STARTCHAR uni0D21
ENCODING 3361
SWIDTH 300 0
DWIDTH 15 0
BBX 14 7 0 0
BITMAP
7088
888C
8884
8884
8884
C5C8
0230
ENDCHAR
STARTCHAR uni0D22
ENCODING 3362
SWIDTH 300 0
DWIDTH 15 0
BBX 14 7 0 0
BITMAP
7098
8894
8894
8894
888C
C5C8
0230
ENDCHAR
STARTCHAR uni0D23
ENCODING 3363
SWIDTH 340 0
DWIDTH 17 0
BBX 16 7 0 0
BITMAP
7B9C
8C62
E423
9421
9423
5422
2000
ENDCHAR
STARTCHAR uni0D24
ENCODING 3364
SWIDTH 220 0
DWIDTH 11 0
BBX 10 7 0 0
BITMAP
3F00
4C80
92C0
9240
92C0
D480
0800
ENDCHAR
STARTCHAR uni0D25
ENCODING 3365
SWIDTH 240 0
DWIDTH 12 0
BBX 11 7 0 0
BITMAP
8380
8440
8460
8460
8460
8C60
FFC0
ENDCHAR
STARTCHAR uni0D26
ENCODING 3366
SWIDTH 140 0
DWIDTH 7 0
BBX 6 7 0 0
BITMAP
78
44
84
B8
84
AC
38
ENDCHAR
STARTCHAR uni0D27
ENCODING 3367
SWIDTH 240 0
DWIDTH 12 0
BBX 11 7 0 0
BITMAP
4480
8440
8460
8460
8C40
5EC0
3100
ENDCHAR
STARTCHAR uni0D28
ENCODING 3368
SWIDTH 240 0
DWIDTH 12 0
BBX 11 6 0 1
BITMAP
7380
8C40
8460
8460
8440
C440
ENDCHAR
STARTCHAR uni0D2A
ENCODING 3370
SWIDTH 260 0
DWIDTH 13 0
BBX 12 7 0 0
BITMAP
0010
0010
7010
8810
8810
8830
1FF0
ENDCHAR
STARTCHAR uni0D2B
ENCODING 3371
SWIDTH 280 0
DWIDTH 14 0
BBX 13 7 0 0
BITMAP
00E0
0110
7108
8908
8908
8918
1FF8
ENDCHAR
STARTCHAR uni0D2C
ENCODING 3372
SWIDTH 320 0
DWIDTH 16 0
BBX 15 7 0 0
BITMAP
7B86
8C46
E446
9446
9446
5446
207C
ENDCHAR
STARTCHAR uni0D2D
ENCODING 3373
SWIDTH 160 0
DWIDTH 8 0
BBX 7 7 0 0
BITMAP
3C
46
BC
A0
9E
A6
3C
ENDCHAR
STARTCHAR uni0D2E
ENCODING 3374
SWIDTH 160 0
DWIDTH 8 0
BBX 7 7 0 0
BITMAP
38
54
92
92
92
E2
FE
ENDCHAR
STARTCHAR uni0D2F
ENCODING 3375
SWIDTH 240 0
DWIDTH 12 0
BBX 11 7 0 0
BITMAP
6E80
9140
9160
9960
8A40
6E80
1B00
ENDCHAR
STARTCHAR uni0D30
ENCODING 3376
SWIDTH 160 0
DWIDTH 8 0
BBX 7 7 0 0
BITMAP
38
44
8A
8A
92
DE
08
ENDCHAR
STARTCHAR uni0D31
ENCODING 3377
SWIDTH 160 0
DWIDTH 8 0
BBX 7 7 0 0
BITMAP
38
44
82
82
82
86
44
ENDCHAR
STARTCHAR uni0D32
ENCODING 3378
SWIDTH 240 0
DWIDTH 12 0
BBX 11 7 0 0
BITMAP
7860
4860
8460
FC60
8060
8060
FFC0
ENDCHAR
STARTCHAR uni0D33
ENCODING 3379
SWIDTH 180 0
DWIDTH 9 0
BBX 8 10 0 -3
BITMAP
38
44
E4
94
92
52
26
FC
80
7F
ENDCHAR
STARTCHAR uni0D34
ENCODING 3380
SWIDTH 180 0
DWIDTH 9 0
BBX 8 7 0 0
BITMAP
4E
9B
93
6E
38
08
70
ENDCHAR
STARTCHAR uni0D35
ENCODING 3381
SWIDTH 240 0
DWIDTH 12 0
BBX 11 7 0 0
BITMAP
3820
4420
8220
8220
8220
C620
07E0
ENDCHAR
STARTCHAR uni0D36
ENCODING 3382
SWIDTH 240 0
DWIDTH 12 0
BBX 11 7 0 0
BITMAP
6380
44C0
84E0
8560
8960
5940
3080
ENDCHAR
STARTCHAR uni0D37
ENCODING 3383
SWIDTH 280 0
DWIDTH 14 0
BBX 13 7 0 0
BITMAP
0318
04F8
7388
8888
8888
8998
1FF8
ENDCHAR
STARTCHAR uni0D38
ENCODING 3384
SWIDTH 300 0
DWIDTH 15 0
BBX 14 7 0 0
BITMAP
7388
8C8C
8444
8444
8444
C468
0010
ENDCHAR
STARTCHAR uni0D39
ENCODING 3385
SWIDTH 300 0
DWIDTH 15 0
BBX 14 7 0 0
BITMAP
00F0
0108
730C
8A0C
8908
8908
1F00
ENDCHAR
STARTCHAR uni0D3E
ENCODING 3390
SWIDTH 120 0
DWIDTH 6 0
BBX 5 7 0 0
BITMAP
70
88
08
08
08
D0
20
ENDCHAR
STARTCHAR uni0D3F
ENCODING 3391
SWIDTH 60 0
DWIDTH 3 0
BBX 5 9 -2 1
BITMAP
70
88
08
08
08
08
08
08
08
ENDCHAR
STARTCHAR uni0D40
ENCODING 3392
SWIDTH 100 0
DWIDTH 5 0
BBX 5 10 -1 0
BITMAP
70
B8
E8
08
08
08
08
08
08
08
ENDCHAR
STARTCHAR uni0D41
ENCODING 3393
SWIDTH 100 0
DWIDTH 5 0
BBX 3 3 0 -2
BITMAP
E0
A0
E0
ENDCHAR
STARTCHAR uni0D42
ENCODING 3394
SWIDTH 100 0
DWIDTH 5 0
BBX 4 4 0 -3
BITMAP
E0
F0
F0
60
ENDCHAR
STARTCHAR uni0D43
ENCODING 3395
SWIDTH 160 0
DWIDTH 8 0
BBX 7 4 0 -3
BITMAP
02
72
8C
F8
ENDCHAR
STARTCHAR uni0D44
ENCODING 3396
SWIDTH 160 0
DWIDTH 8 0
BBX 7 4 0 -3
BITMAP
02
DA
A4
F8
ENDCHAR
STARTCHAR uni0D46
ENCODING 3398
SWIDTH 160 0
DWIDTH 8 0
BBX 7 7 0 0
BITMAP
38
44
A2
D2
92
96
64
ENDCHAR
STARTCHAR uni0D47
ENCODING 3399
SWIDTH 140 0
DWIDTH 7 0
BBX 6 7 0 0
BITMAP
78
5C
9C
80
9C
5C
38
ENDCHAR
STARTCHAR uni0D4D
ENCODING 3405
SWIDTH 100 0
DWIDTH 5 0
BBX 4 2 0 6
BITMAP
90
E0
ENDCHAR
STARTCHAR uni0D57
ENCODING 3415
SWIDTH 160 0
DWIDTH 8 0
BBX 7 7 0 0
BITMAP
6C
92
92
92
02
04
18
ENDCHAR
STARTCHAR uni0D60
ENCODING 3424
SWIDTH 200 0
DWIDTH 10 0
BBX 9 11 0 -4
BITMAP
6300
9480
9480
F780
8080
6300
7F00
BE80
AA80
AA80
7F00
ENDCHAR
STARTCHAR uni0D61
ENCODING 3425
SWIDTH 280 0
DWIDTH 14 0
BBX 13 9 0 -2
BITMAP
7BC0
8E60
E4F0
94A8
9528
54C8
2008
0090
0060
ENDCHAR
STARTCHAR uni0D66
ENCODING 3430
SWIDTH 240 0
DWIDTH 12 0
BBX 10 7 0 0
BITMAP
3FC0
4000
F000
8800
8800
5800
2000
ENDCHAR
STARTCHAR uni0D67
ENCODING 3431
SWIDTH 240 0
DWIDTH 12 0
BBX 11 9 0 -2
BITMAP
0380
0440
0460
0460
0460
0C60
FFC0
8000
6000
ENDCHAR
STARTCHAR uni0D68
ENCODING 3432
SWIDTH 240 0
DWIDTH 12 0
BBX 11 7 0 0
BITMAP
3800
4400
8200
8200
8200
C600
07E0
ENDCHAR
STARTCHAR uni0D69
ENCODING 3433
SWIDTH 320 0
DWIDTH 16 0
BBX 14 7 0 0
BITMAP
7380
8C40
8440
8440
8440
C440
007C
ENDCHAR
STARTCHAR uni0D6A
ENCODING 3434
SWIDTH 200 0
DWIDTH 10 0
BBX 9 9 0 0
BITMAP
0300
0080
3180
6D00
8600
8A00
9200
9200
4C00
ENDCHAR
STARTCHAR uni0D6B
ENCODING 3435
SWIDTH 200 0
DWIDTH 10 0
BBX 9 10 0 -2
BITMAP
3E00
4100
DE80
A280
A680
AE80
A280
4380
6200
3C00
ENDCHAR
STARTCHAR uni0D6C
ENCODING 3436
SWIDTH 320 0
DWIDTH 16 0
BBX 15 9 0 -2
BITMAP
739C
8C62
8442
8442
8442
4442
0004
000C
0070
ENDCHAR
STARTCHAR uni0D6D
ENCODING 3437
SWIDTH 220 0
DWIDTH 11 0
BBX 10 7 0 0
BITMAP
3C00
C300
9D00
A280
A2C0
7440
3840
ENDCHAR
STARTCHAR uni0D6E
ENCODING 3438
SWIDTH 240 0
DWIDTH 12 0
BBX 11 10 0 -3
BITMAP
3820
4420
8220
8220
8220
C620
07E0
0060
00C0
0700
ENDCHAR
STARTCHAR uni0D6F
ENCODING 3439
SWIDTH 240 0
DWIDTH 12 0
BBX 11 9 0 0
BITMAP
0380
0080
3180
5FC0
8D40
8560
8560
8540
45C0
ENDCHAR
STARTCHAR uni0E01
ENCODING 3585
SWIDTH 360 0
DWIDTH 15 0
BBX 11 17 2 0
BITMAP
1F00
00C0
0060
F060
F060
C060
C060
C060
C060
C060
C060
C060
C060
C060
C060
C060
C060
ENDCHAR
STARTCHAR uni0E02
ENCODING 3586
SWIDTH 360 0
DWIDTH 15 0
BBX 11 17 2 0
BITMAP
3860
7C60
F660
FE60
DE60
FE60
7660
0660
0660
0660
0660
0660
0660
0660
0660
0240
0180
ENDCHAR
STARTCHAR uni0E03
ENCODING 3587
SWIDTH 408 0
DWIDTH 17 0
BBX 13 17 2 0
BITMAP
6618
F718
DD98
C998
F198
F998
D998
7198
0198
0198
0198
0198
0198
0198
0198
0090
0060
ENDCHAR
STARTCHAR uni0E04
ENCODING 3588
SWIDTH 360 0
DWIDTH 15 0
BBX 11 17 2 0
BITMAP
3F80
7FC0
E0E0
C060
C060
F060
E860
6860
7060
6060
6060
6060
6060
6060
6060
6060
6060
ENDCHAR
STARTCHAR uni0E05
ENCODING 3589
SWIDTH 360 0
DWIDTH 15 0
BBX 11 17 2 0
BITMAP
3180
7FC0
CE60
C060
C060
F060
E860
6860
7060
6060
6060
6060
6060
6060
6060
6060
6060
ENDCHAR
STARTCHAR uni0E06
ENCODING 3590
SWIDTH 504 0
DWIDTH 21 0
BBX 17 17 2 0
BITMAP
660180
F70180
DD8180
C98180
F18180
F98180
D98180
718180
018180
018180
018180
018180
018180
07E180
0DBD80
0F8780
070180
ENDCHAR
STARTCHAR uni0E07
ENCODING 3591
SWIDTH 216 0
DWIDTH 9 0
BBX 5 17 2 0
BITMAP
70
F8
D8
F8
78
18
18
18
98
98
58
58
38
38
38
18
18
ENDCHAR
STARTCHAR uni0E08
ENCODING 3592
SWIDTH 312 0
DWIDTH 13 0
BBX 9 17 2 0
BITMAP
1E00
3F00
4380
C180
8180
3180
7980
5980
7980
3980
0980
0980
0980
0980
0980
0980
0700
ENDCHAR
STARTCHAR uni0E09
ENCODING 3593
SWIDTH 456 0
DWIDTH 19 0
BBX 15 17 2 0
BITMAP
0F00
3FC0
6060
C030
8030
0030
3030
5830
7830
3830
0830
0830
0830
08FC
0BF6
0E3E
081C
ENDCHAR
STARTCHAR uni0E0A
ENCODING 3594
SWIDTH 360 0
DWIDTH 15 0
BBX 11 19 2 0
BITMAP
0060
0060
3860
7C60
F7C0
FEC0
DEC0
FEC0
76C0
06C0
06C0
06C0
06C0
06C0
06C0
06C0
06C0
0EC0
0F80
ENDCHAR
STARTCHAR uni0E0B
ENCODING 3595
SWIDTH 408 0
DWIDTH 17 0
BBX 13 19 2 0
BITMAP
0018
0018
6618
F718
DDF0
C9B0
F1B0
F9B0
D9B0
71B0
01B0
01B0
01B0
01B0
01B0
01B0
01B0
03B0
03E0
ENDCHAR
STARTCHAR uni0E0C
ENCODING 3596
SWIDTH 576 0
DWIDTH 24 0
BBX 20 17 2 0
BITMAP
0F8030
206030
403030
F83030
F83030
403030
403030
403030
403030
403030
403030
403030
403030
70FC30
69B7B0
79F0F0
30E030
ENDCHAR
STARTCHAR uni0E0D
ENCODING 3597
SWIDTH 480 0
DWIDTH 20 0
BBX 16 26 2 -9
BITMAP
3F03
6083
C043
F043
F043
4043
4043
4043
4043
4043
4043
4043
4043
7043
6843
7822
301C
0000
0000
0023
0073
0063
0063
0022
003E
001C
ENDCHAR
STARTCHAR uni0E0E
ENCODING 3598
SWIDTH 384 0
DWIDTH 16 0
BBX 12 26 2 -9
BITMAP
0FC0
1020
2010
3C10
3C10
3010
3010
3010
3010
3010
3010
3010
3010
7010
F010
B010
6010
0010
0010
0010
0010
0050
1FD0
21D0
3F30
1E10
ENDCHAR
STARTCHAR uni0E0F
ENCODING 3599
SWIDTH 384 0
DWIDTH 16 0
BBX 12 26 2 -9
BITMAP
0FC0
1020
2010
3C10
3C10
3010
3010
3010
3010
3010
3010
3010
3010
7010
F010
B010
6010
0010
0010
0010
0010
0210
7EF0
8FF0
FF30
7A10
ENDCHAR
STARTCHAR uni0E10
ENCODING 3600
SWIDTH 264 0
DWIDTH 11 0
BBX 7 26 2 -9
BITMAP
3E
42
40
80
FC
FE
62
F2
B2
F2
72
32
32
32
32
32
1C
00
00
0C
1E
1E
1E
7E
FE
72
ENDCHAR
STARTCHAR uni0E11
ENCODING 3601
SWIDTH 504 0
DWIDTH 21 0
BBX 17 17 2 0
BITMAP
660E00
F71F00
DDB380
C9A180
F1E180
F9C180
D9C180
71C180
01C180
018180
018180
018180
018180
018180
018180
018180
018180
ENDCHAR
STARTCHAR uni0E12
ENCODING 3602
SWIDTH 576 0
DWIDTH 24 0
BBX 20 17 2 0
BITMAP
30C030
79E030
C63030
C03030
C03030
C63030
CF3030
CB3030
CF3030
C63030
CC3030
D83030
D83030
F0FC30
E1B7B0
C1F0F0
C0E030
ENDCHAR
STARTCHAR uni0E13
ENCODING 3603
SWIDTH 576 0
DWIDTH 24 0
BBX 20 17 2 0
BITMAP
3F0180
618180
C0C180
F0C180
F0C180
40C180
40C180
40C180
40C180
40C180
40C180
40C180
40C180
70C7E0
68DFB0
78F1F0
30C0E0
ENDCHAR
STARTCHAR uni0E14
ENCODING 3604
SWIDTH 360 0
DWIDTH 15 0
BBX 11 17 2 0
BITMAP
3F80
7FC0
E060
C020
CE20
DF20
DB20
DF20
CE20
CE20
CC20
D820
F020
F020
E020
C020
C020
ENDCHAR
STARTCHAR uni0E15
ENCODING 3605
SWIDTH 360 0
DWIDTH 15 0
BBX 11 17 2 0
BITMAP
3180
7BC0
C620
C020
C020
CE20
DF20
DB20
DF20
CE20
CC20
D820
D020
F020
E020
C020
C020
ENDCHAR
STARTCHAR uni0E16
ENCODING 3606
SWIDTH 360 0
DWIDTH 15 0
BBX 11 17 2 0
BITMAP
1F00
20C0
4060
F860
F860
4060
4060
4060
4060
4060
4060
4060
4060
7060
6860
7860
3060
ENDCHAR
STARTCHAR uni0E17
ENCODING 3607
SWIDTH 456 0
DWIDTH 19 0
BBX 15 17 2 0
BITMAP
3878
7CFC
F7CE
FF86
DF86
FF06
7706
0706
0706
0606
0606
0606
0606
0606
0606
0606
0606
ENDCHAR
STARTCHAR uni0E18
ENCODING 3608
SWIDTH 360 0
DWIDTH 15 0
BBX 11 17 2 0
BITMAP
1FE0
2020
4000
4000
FFC0
FFE0
2060
2020
2020
2020
2020
2020
2020
2020
2020
1040
0F80
ENDCHAR
STARTCHAR uni0E19
ENCODING 3609
SWIDTH 432 0
DWIDTH 18 0
BBX 14 17 2 0
BITMAP
7060
F860
D860
F860
7860
1860
1860
1860
1860
1860
1860
1860
1860
19F8
1FEC
1C7C
1838
ENDCHAR
STARTCHAR uni0E1A
ENCODING 3610
SWIDTH 384 0
DWIDTH 16 0
BBX 12 17 2 0
BITMAP
7030
F830
D830
F830
7830
1830
1830
1830
1830
1830
1830
1830
1830
1830
1830
3820
3FC0
ENDCHAR
STARTCHAR uni0E1B
ENCODING 3611
SWIDTH 384 0
DWIDTH 16 0
BBX 12 21 2 0
BITMAP
0030
0030
0030
0030
7030
F830
D830
F830
7830
1830
1830
1830
1830
1830
1830
1830
1830
1830
1830
3820
3FC0
ENDCHAR
STARTCHAR uni0E1C
ENCODING 3612
SWIDTH 336 0
DWIDTH 14 0
BBX 10 17 2 0
BITMAP
70C0
F8C0
D8C0
F8C0
F0C0
C4C0
CCC0
CCC0
CEC0
D2C0
D2C0
F3C0
E1C0
E1C0
C0C0
C0C0
C0C0
ENDCHAR
STARTCHAR uni0E1D
ENCODING 3613
SWIDTH 336 0
DWIDTH 14 0
BBX 10 21 2 0
BITMAP
00C0
00C0
00C0
00C0
70C0
F8C0
D8C0
F8C0
F0C0
C4C0
CCC0
CCC0
CEC0
D2C0
D2C0
F3C0
E1C0
E1C0
C0C0
C0C0
C0C0
ENDCHAR
STARTCHAR uni0E1E
ENCODING 3614
SWIDTH 384 0
DWIDTH 16 0
BBX 12 17 2 0
BITMAP
7030
F830
D830
F830
7930
19B0
1BB0
1AB0
1AB0
1AF0
1C70
1C70
1C70
1C70
1830
1830
1830
ENDCHAR
STARTCHAR uni0E1F
ENCODING 3615
SWIDTH 384 0
DWIDTH 16 0
BBX 12 21 2 0
BITMAP
0030
0030
0030
0030
7030
F830
D830
F930
7930
19B0
1AB0
1AB0
1AB0
1AF0
1C70
1C70
1C70
1C70
1830
1830
1830
ENDCHAR
STARTCHAR uni0E20
ENCODING 3616
SWIDTH 384 0
DWIDTH 16 0
BBX 12 17 2 0
BITMAP
0FC0
1860
3030
3C30
3C30
1030
1030
1030
1030
1030
1030
1030
1030
7030
D830
F030
6030
ENDCHAR
STARTCHAR uni0E21
ENCODING 3617
SWIDTH 384 0
DWIDTH 16 0
BBX 12 17 2 0
BITMAP
7030
F830
D830
F830
7830
1830
1830
1830
1830
1830
1830
1830
1830
7C30
DBB0
F8F0
7030
ENDCHAR
STARTCHAR uni0E22
ENCODING 3618
SWIDTH 336 0
DWIDTH 14 0
BBX 10 17 2 0
BITMAP
70C0
F8C0
D8C0
F8C0
F0C0
C0C0
60C0
60C0
38C0
78C0
E0C0
C0C0
C0C0
C0C0
C0C0
6180
3F00
ENDCHAR
STARTCHAR uni0E23
ENCODING 3619
SWIDTH 312 0
DWIDTH 13 0
BBX 9 17 2 0
BITMAP
1F80
2080
4000
4000
FF00
FF80
0180
0180
0180
0180
0180
0180
0180
0780
0F80
0D80
0700
ENDCHAR
STARTCHAR uni0E24
ENCODING 3620
SWIDTH 360 0
DWIDTH 15 0
BBX 11 25 2 -8
BITMAP
1F00
20C0
4060
F860
F860
4060
4060
4060
4060
4060
4060
4060
4060
7060
6860
7860
3060
0060
0060
0060
0060
0060
0060
0060
0060
ENDCHAR
STARTCHAR uni0E25
ENCODING 3621
SWIDTH 360 0
DWIDTH 15 0
BBX 11 17 2 0
BITMAP
1F80
3FC0
60E0
C060
8060
1F60
3FE0
60E0
40E0
4060
4060
4060
4060
7060
6860
7860
3060
ENDCHAR
STARTCHAR uni0E26
ENCODING 3622
SWIDTH 384 0
DWIDTH 16 0
BBX 12 25 2 -8
BITMAP
0FC0
1860
3030
3C30
3C30
1030
1030
1030
1030
1030
1030
1030
1030
7030
D830
F030
6030
0030
0030
0030
0030
0030
0030
0030
0030
ENDCHAR
STARTCHAR uni0E27
ENCODING 3623
SWIDTH 312 0
DWIDTH 13 0
BBX 9 17 2 0
BITMAP
1E00
2100
4080
C080
8080
0080
0080
0080
0080
0080
0080
0080
0080
0380
0780
0780
0300
ENDCHAR
STARTCHAR uni0E28
ENCODING 3624
SWIDTH 360 0
DWIDTH 15 0
BBX 12 19 2 0
BITMAP
0030
0060
3FC0
7FC0
E0E0
C060
C060
F060
E860
6860
7060
6060
6060
6060
6060
6060
6060
6060
6060
ENDCHAR
STARTCHAR uni0E29
ENCODING 3625
SWIDTH 480 0
DWIDTH 20 0
BBX 16 17 2 0
BITMAP
7030
F830
D830
F830
7830
1AB1
1AB1
1BB2
19FC
1830
1830
1830
1830
1830
1830
3820
3FC0
ENDCHAR
STARTCHAR uni0E2A
ENCODING 3626
SWIDTH 360 0
DWIDTH 15 0
BBX 11 20 2 0
BITMAP
0060
0040
00C0
1F80
3FC0
61E0
C260
8260
1F60
3FE0
60E0
40E0
4060
4060
4060
4060
7060
6860
7860
3060
ENDCHAR
STARTCHAR uni0E2B
ENCODING 3627
SWIDTH 432 0
DWIDTH 18 0
BBX 14 17 2 0
BITMAP
7038
F87C
D86C
F87C
7878
1860
18E0
18E0
19E0
1960
1B60
1A60
1E60
1C60
1C60
1860
1860
ENDCHAR
STARTCHAR uni0E2C
ENCODING 3628
SWIDTH 432 0
DWIDTH 18 0
BBX 14 18 2 0
BITMAP
000C
70C8
F9E8
D978
F9F0
78E0
1860
1B60
1B60
1B60
1B60
1CE0
1CE0
1CE0
1CE0
1860
1860
1860
ENDCHAR
STARTCHAR uni0E2D
ENCODING 3629
SWIDTH 336 0
DWIDTH 14 0
BBX 10 17 2 0
BITMAP
1F00
3F80
60C0
C040
8040
7040
D840
F840
F040
C040
C040
C040
C040
C040
C040
6080
3F00
ENDCHAR
STARTCHAR uni0E2E
ENCODING 3630
SWIDTH 336 0
DWIDTH 14 0
BBX 10 18 2 0
BITMAP
0040
7FC0
FFC0
83C0
FF40
7E40
6040
F040
F040
E040
8040
8040
8040
8040
8040
8040
4080
3F00
ENDCHAR
STARTCHAR uni0E2F
ENCODING 3631
SWIDTH 240 0
DWIDTH 10 0
BBX 6 17 2 0
BITMAP
0C
0C
6C
FC
FC
74
04
04
04
04
04
04
04
04
04
04
04
ENDCHAR
STARTCHAR uni0E30
ENCODING 3632
SWIDTH 312 0
DWIDTH 13 0
BBX 9 16 2 1
BITMAP
E080
A080
A080
E000
C100
6200
3C00
0000
0000
0000
E080
A080
A080
E000
4100
2200
ENDCHAR
STARTCHAR uni0E31
ENCODING 3633
SWIDTH 0 0
DWIDTH 0 0
BBX 9 6 -4 21
BITMAP
E080
A080
A080
8000
4100
2200
ENDCHAR
STARTCHAR uni0E32
ENCODING 3634
SWIDTH 312 0
DWIDTH 13 0
BBX 9 17 2 0
BITMAP
1E00
3F00
4380
C180
8180
0180
0180
0180
0180
0180
0180
0180
0180
0180
0180
0180
0180
ENDCHAR
STARTCHAR uni0E33
ENCODING 3635
SWIDTH 312 0
DWIDTH 13 0
BBX 17 25 -6 0
BITMAP
600000
900000
900000
900000
600000
000000
000000
000000
001E00
003F00
004380
00C180
008180
000180
000180
000180
000180
000180
000180
000180
000180
000180
000180
000180
000180
ENDCHAR
STARTCHAR uni0E34
ENCODING 3636
SWIDTH 0 0
DWIDTH 0 0
BBX 10 6 -12 20
BITMAP
3E00
4100
8080
8040
FF40
03C0
ENDCHAR
STARTCHAR uni0E35
ENCODING 3637
SWIDTH 0 0
DWIDTH 0 0
BBX 10 7 -12 20
BITMAP
0040
3E40
4140
80C0
8040
FF40
03C0
ENDCHAR
STARTCHAR uni0E36
ENCODING 3638
SWIDTH 0 0
DWIDTH 0 0
BBX 13 6 -14 20
BITMAP
1F00
20B0
4078
C068
FFB0
01E0
ENDCHAR
STARTCHAR uni0E37
ENCODING 3639
SWIDTH 0 0
DWIDTH 0 0
BBX 10 7 -12 20
BITMAP
01C0
3FC0
41C0
80C0
8040
FF40
03C0
ENDCHAR
STARTCHAR uni0E38
ENCODING 3640
SWIDTH 0 0
DWIDTH 0 0
BBX 4 7 -6 -9
BITMAP
60
F0
F0
70
10
10
10
ENDCHAR
STARTCHAR uni0E39
ENCODING 3641
SWIDTH 0 0
DWIDTH 0 0
BBX 7 7 -9 -9
BITMAP
72
DA
FA
7A
1A
3E
3C
ENDCHAR
STARTCHAR uni0E3A
ENCODING 3642
SWIDTH 144 0
DWIDTH 6 0
BBX 2 3 2 0
BITMAP
C0
C0
C0
ENDCHAR
STARTCHAR uni0E40
ENCODING 3648
SWIDTH 192 0
DWIDTH 8 0
BBX 4 17 2 0
BITMAP
80
80
80
80
80
80
80
80
80
80
80
80
80
E0
F0
F0
60
ENDCHAR
STARTCHAR uni0E41
ENCODING 3649
SWIDTH 288 0
DWIDTH 12 0
BBX 8 17 2 0
BITMAP
88
88
88
88
88
88
88
88
88
88
88
88
88
EE
FF
FF
66
ENDCHAR
STARTCHAR uni0E42
ENCODING 3650
SWIDTH 336 0
DWIDTH 14 0
BBX 10 28 2 0
BITMAP
1FC0
3FC0
6000
4000
C000
FE00
0300
0300
0300
0300
0300
0300
0300
0300
0300
0300
0300
0300
0300
0300
0300
0300
0300
0300
0380
03C0
0340
0180
ENDCHAR
STARTCHAR uni0E43
ENCODING 3651
SWIDTH 312 0
DWIDTH 13 0
BBX 9 27 2 0
BITMAP
3800
4C00
B600
FE00
EE00
7E00
3600
0600
0600
0600
0600
0600
0600
0600
0600
0600
0600
0600
0600
0600
0600
0600
0600
0700
0780
0680
0300
ENDCHAR
STARTCHAR uni0E44
ENCODING 3652
SWIDTH 288 0
DWIDTH 12 0
BBX 8 27 2 0
BITMAP
D8
FC
FC
FC
FC
FC
6C
0C
0C
0C
0C
0C
0C
0C
0C
0C
0C
0C
0C
0C
0C
0C
0C
0E
0F
0D
06
ENDCHAR
STARTCHAR uni0E45
ENCODING 3653
SWIDTH 312 0
DWIDTH 13 0
BBX 9 25 2 -8
BITMAP
1E00
3F00
4380
C180
8180
0180
0180
0180
0180
0180
0180
0180
0180
0180
0180
0180
0180
0180
0180
0180
0180
0180
0180
0180
0180
ENDCHAR
STARTCHAR uni0E46
ENCODING 3654
SWIDTH 336 0
DWIDTH 14 0
BBX 10 26 2 -9
BITMAP
3300
7F80
EC40
F040
F040
6040
0040
0040
0040
0040
0040
0040
0040
0040
0040
0040
0040
0040
0040
0040
0040
0040
0040
0040
0040
0040
ENDCHAR
STARTCHAR uni0E47
ENCODING 3655
SWIDTH 0 0
DWIDTH 0 0
BBX 8 6 -10 21
BITMAP
01
02
38
49
89
FD
ENDCHAR
STARTCHAR uni0E48
ENCODING 3656
SWIDTH 0 0
DWIDTH 0 0
BBX 1 7 -3 20
BITMAP
80
80
80
80
80
80
80
ENDCHAR
STARTCHAR uni0E49
ENCODING 3657
SWIDTH 0 0
DWIDTH 0 0
BBX 7 7 -9 20
BITMAP
76
DE
FC
7C
38
F0
E0
ENDCHAR
STARTCHAR uni0E4A
ENCODING 3658
SWIDTH 0 0
DWIDTH 0 0
BBX 9 6 -10 21
BITMAP
0100
0080
0080
9080
F080
6300
ENDCHAR
STARTCHAR uni0E4B
ENCODING 3659
SWIDTH 0 0
DWIDTH 0 0
BBX 7 7 -9 20
BITMAP
18
18
FE
FE
18
18
18
ENDCHAR
STARTCHAR uni0F0B
ENCODING 3851
SWIDTH 625 0
DWIDTH 10 0
BBX 2 3 0 6
BITMAP
C0
C0
C0
ENDCHAR
STARTCHAR uni0F0D
ENCODING 3853
SWIDTH 625 0
DWIDTH 10 0
BBX 3 18 0 -8
BITMAP
E0
E0
E0
E0
E0
40
40
40
40
40
40
40
40
40
40
40
40
40
ENDCHAR
STARTCHAR uni0F11
ENCODING 3857
SWIDTH 625 0
DWIDTH 10 0
BBX 7 22 1 -12
BITMAP
44
EE
44
00
10
7C
7C
38
38
38
38
38
38
38
38
10
10
10
10
10
10
10
ENDCHAR
STARTCHAR uni0F20
ENCODING 3872
SWIDTH 625 0
DWIDTH 10 0
BBX 7 7 0 2
BITMAP
38
DE
82
82
CE
7C
10
ENDCHAR
STARTCHAR uni0F21
ENCODING 3873
SWIDTH 625 0
DWIDTH 10 0
BBX 7 11 0 -1
BITMAP
1E
32
42
46
06
0C
08
18
30
E0
80
ENDCHAR
STARTCHAR uni0F22
ENCODING 3874
SWIDTH 625 0
DWIDTH 10 0
BBX 7 11 0 -1
BITMAP
3E
46
C6
0E
1C
38
40
FC
0E
06
06
ENDCHAR
STARTCHAR uni0F23
ENCODING 3875
SWIDTH 625 0
DWIDTH 10 0
BBX 8 13 0 -3
BITMAP
38
D8
88
0E
1F
03
03
06
18
F8
DC
06
02
ENDCHAR
STARTCHAR uni0F24
ENCODING 3876
SWIDTH 625 0
DWIDTH 10 0
BBX 15 8 0 1
BITMAP
0010
10E2
7F86
7E0C
C018
C3F0
7FE0
1F00
ENDCHAR
STARTCHAR uni0F25
ENCODING 3877
SWIDTH 625 0
DWIDTH 10 0
BBX 12 9 0 1
BITMAP
0080
C1D0
E3D0
72F0
7600
3C00
3800
1800
1800
ENDCHAR
STARTCHAR uni0F26
ENCODING 3878
SWIDTH 625 0
DWIDTH 10 0
BBX 12 11 0 -1
BITMAP
03C0
07F0
0800
0800
07C0
C7F0
40D0
7010
1A10
0FF0
03C0
ENDCHAR
STARTCHAR uni0F27
ENCODING 3879
SWIDTH 625 0
DWIDTH 10 0
BBX 10 11 0 -1
BITMAP
3080
D8C0
18C0
38C0
3880
7180
7100
C300
C600
CC00
7800
ENDCHAR
STARTCHAR uni0F28
ENCODING 3880
SWIDTH 625 0
DWIDTH 10 0
BBX 9 9 0 0
BITMAP
1000
3000
2000
2000
4000
4000
4000
F880
DF00
ENDCHAR
STARTCHAR uni0F29
ENCODING 3881
SWIDTH 625 0
DWIDTH 10 0
BBX 11 11 0 -1
BITMAP
1F80
3FC0
59E0
4060
8020
8C60
9380
B020
B060
1FC0
0F00
ENDCHAR
STARTCHAR uni0F40
ENCODING 3904
SWIDTH 625 0
DWIDTH 10 0
BBX 9 13 0 -6
BITMAP
FF80
FF80
9980
8880
8880
0880
0880
0080
0080
0080
0080
0080
0080
ENDCHAR
STARTCHAR uni0F41
ENCODING 3905
SWIDTH 625 0
DWIDTH 10 0
BBX 11 12 0 -5
BITMAP
FFE0
FFE0
C8C0
9040
9C40
9F40
91C0
8040
8000
8000
8000
8000
ENDCHAR
STARTCHAR uni0F42
ENCODING 3906
SWIDTH 625 0
DWIDTH 10 0
BBX 11 13 0 -6
BITMAP
7FE0
7FE0
4660
8260
F240
FE40
0640
0240
0040
0040
0040
0040
0040
ENDCHAR
STARTCHAR uni0F44
ENCODING 3908
SWIDTH 625 0
DWIDTH 10 0
BBX 8 9 0 -2
BITMAP
FE
FE
80
80
80
E0
FC
FF
01
ENDCHAR
STARTCHAR uni0F45
ENCODING 3909
SWIDTH 625 0
DWIDTH 10 0
BBX 9 9 0 -2
BITMAP
3F00
3F00
0400
9E00
6700
6380
7380
3300
0C00
ENDCHAR
STARTCHAR uni0F46
ENCODING 3910
SWIDTH 625 0
DWIDTH 10 0
BBX 10 9 0 -2
BITMAP
3F80
3F00
0400
1F00
7F80
C5C0
8C40
8C40
73C0
ENDCHAR
STARTCHAR uni0F47
ENCODING 3911
SWIDTH 625 0
DWIDTH 10 0
BBX 7 9 0 -2
BITMAP
FC
FC
80
FC
FC
80
F8
FE
02
ENDCHAR
STARTCHAR uni0F49
ENCODING 3913
SWIDTH 625 0
DWIDTH 10 0
BBX 8 13 0 -6
BITMAP
78
F8
88
DE
3F
23
72
02
02
04
08
10
30
ENDCHAR
STARTCHAR uni0F4A
ENCODING 3914
SWIDTH 625 0
DWIDTH 10 0
BBX 7 14 0 -7
BITMAP
FE
7E
02
06
7E
72
C0
C0
40
40
40
20
30
10
ENDCHAR
STARTCHAR uni0F4B
ENCODING 3915
SWIDTH 625 0
DWIDTH 10 0
BBX 8 11 0 -4
BITMAP
FE
FE
42
63
5E
4C
46
5F
70
60
40
ENDCHAR
STARTCHAR uni0F4C
ENCODING 3916
SWIDTH 625 0
DWIDTH 10 0
BBX 9 12 0 -5
BITMAP
3F00
3F00
0100
0780
1F80
3C80
6000
6000
4000
C000
8000
8000
ENDCHAR
STARTCHAR uni0F4D
ENCODING 3917
SWIDTH 625 0
DWIDTH 10 0
BBX 8 13 0 -6
BITMAP
FC
7C
10
1E
31
71
49
C6
C0
80
80
80
80
ENDCHAR
STARTCHAR uni0F4F
ENCODING 3919
SWIDTH 625 0
DWIDTH 10 0
BBX 7 14 0 -7
BITMAP
FE
FC
80
C0
FC
9C
06
06
04
04
04
08
18
10
ENDCHAR
STARTCHAR uni0F50
ENCODING 3920
SWIDTH 625 0
DWIDTH 10 0
BBX 8 11 0 -4
BITMAP
7F
7F
42
C6
7A
32
62
FA
0E
06
02
ENDCHAR
STARTCHAR uni0F51
ENCODING 3921
SWIDTH 625 0
DWIDTH 10 0
BBX 9 12 0 -5
BITMAP
7E00
7E00
4000
F000
FC00
9E00
0300
0300
0100
0180
0080
0080
ENDCHAR
STARTCHAR uni0F53
ENCODING 3923
SWIDTH 625 0
DWIDTH 10 0
BBX 8 13 0 -6
BITMAP
3F
3E
08
78
8C
8E
92
63
03
01
01
01
01
ENDCHAR
STARTCHAR uni0F54
ENCODING 3924
SWIDTH 625 0
DWIDTH 10 0
BBX 10 9 0 -2
BITMAP
7DC0
7980
6180
4180
F080
FC80
0E80
0380
0180
ENDCHAR
STARTCHAR uni0F55
ENCODING 3925
SWIDTH 625 0
DWIDTH 10 0
BBX 10 9 0 -2
BITMAP
FBC0
7180
4380
4480
C880
FC80
9E80
0380
0180
ENDCHAR
STARTCHAR uni0F56
ENCODING 3926
SWIDTH 625 0
DWIDTH 10 0
BBX 9 9 0 -2
BITMAP
7F80
7F80
6180
4180
F100
FD00
8F00
0300
0100
ENDCHAR
STARTCHAR uni0F58
ENCODING 3928
SWIDTH 625 0
DWIDTH 10 0
BBX 10 8 0 -1
BITMAP
7DC0
78C0
30C0
7C80
DE80
9780
9180
6080
ENDCHAR
STARTCHAR uni0F59
ENCODING 3929
SWIDTH 625 0
DWIDTH 10 0
BBX 10 11 0 -1
BITMAP
01C0
0100
3E00
7F00
0800
0C00
DE00
6700
6300
7200
3C00
ENDCHAR
STARTCHAR uni0F5A
ENCODING 3930
SWIDTH 625 0
DWIDTH 10 0
BBX 10 12 0 -2
BITMAP
01C0
0180
1F00
3F00
0800
0800
3F00
6F80
88C0
8840
D4C0
2300
ENDCHAR
STARTCHAR uni0F5B
ENCODING 3931
SWIDTH 625 0
DWIDTH 10 0
BBX 9 11 0 -1
BITMAP
0380
0600
FC00
FE00
8000
FC00
FE00
8000
8000
FC00
8200
ENDCHAR
STARTCHAR uni0F5D
ENCODING 3933
SWIDTH 625 0
DWIDTH 10 0
BBX 11 13 0 -6
BITMAP
7CE0
ECC0
8440
8440
8440
8440
1FE0
1FC0
1040
2040
3840
3F40
20C0
ENDCHAR
STARTCHAR uni0F5E
ENCODING 3934
SWIDTH 625 0
DWIDTH 10 0
BBX 9 14 0 -7
BITMAP
3F00
6300
8980
9F80
A700
9B00
8100
8180
4180
6180
1180
0180
0080
0080
ENDCHAR
STARTCHAR uni0F5F
ENCODING 3935
SWIDTH 625 0
DWIDTH 10 0
BBX 8 9 0 -2
BITMAP
7F
7F
01
7F
7F
01
3F
FF
80
ENDCHAR
STARTCHAR uni0F60
ENCODING 3936
SWIDTH 625 0
DWIDTH 10 0
BBX 10 10 0 -3
BITMAP
7E00
FE00
8200
8200
8200
9F00
9F80
00C0
0040
0040
ENDCHAR
STARTCHAR uni0F61
ENCODING 3937
SWIDTH 625 0
DWIDTH 10 0
BBX 12 10 0 -3
BITMAP
EE70
E430
C430
8730
C7A0
7DA0
7860
3060
0020
0020
ENDCHAR
STARTCHAR uni0F62
ENCODING 3938
SWIDTH 625 0
DWIDTH 10 0
BBX 10 8 0 -1
BITMAP
7E00
7C00
1000
7800
FE00
8300
0080
00C0
ENDCHAR
STARTCHAR uni0F63
ENCODING 3939
SWIDTH 625 0
DWIDTH 10 0
BBX 10 8 0 -1
BITMAP
7DC0
FCC0
8480
8480
9C80
BF80
0180
0080
ENDCHAR
STARTCHAR uni0F64
ENCODING 3940
SWIDTH 625 0
DWIDTH 10 0
BBX 11 14 0 -7
BITMAP
03E0
07E0
0860
0860
0860
C860
6FA0
1020
0020
0020
0020
0020
0020
0020
ENDCHAR
STARTCHAR uni0F65
ENCODING 3941
SWIDTH 625 0
DWIDTH 10 0
BBX 11 14 1 -7
BITMAP
F800
FC00
C200
C200
C200
C260
BEC0
8100
8000
8000
8000
8000
8000
8000
ENDCHAR
STARTCHAR uni0F66
ENCODING 3942
SWIDTH 625 0
DWIDTH 10 0
BBX 11 8 0 -1
BITMAP
7CE0
78C0
38C0
7C40
C640
F340
F9C0
08C0
ENDCHAR
STARTCHAR uni0F67
ENCODING 3943
SWIDTH 625 0
DWIDTH 10 0
BBX 9 13 0 -6
BITMAP
7F00
7F00
4000
4F00
FB80
B180
0880
0080
0180
0100
0100
0200
0200
ENDCHAR
STARTCHAR uni0F68
ENCODING 3944
SWIDTH 625 0
DWIDTH 10 0
BBX 14 9 0 -2
BITMAP
EF9C
C798
4718
4B88
5CC8
4E28
6218
3C08
0008
ENDCHAR
STARTCHAR uni0F72
ENCODING 3954
SWIDTH 0 0
DWIDTH 0 0
BBX 12 6 1 1
BITMAP
7800
DF00
8380
C0C0
7860
1830
ENDCHAR
STARTCHAR uni0F74
ENCODING 3956
SWIDTH 0 0
DWIDTH 0 0
BBX 12 6 0 -5
BITMAP
8000
41C0
21F0
1810
0FD0
07E0
ENDCHAR
STARTCHAR uni0F7A
ENCODING 3962
SWIDTH 0 0
DWIDTH 0 0
BBX 10 6 1 1
BITMAP
F800
FE00
0F00
0180
00C0
0040
ENDCHAR
STARTCHAR uni0F7C
ENCODING 3964
SWIDTH 0 0
DWIDTH 0 0
BBX 20 7 2 2
BITMAP
000030
000060
0003C0
7C1F80
FF7F00
C7C000
00C000
ENDCHAR
STARTCHAR uni2010
ENCODING 8208
SWIDTH 1024 0
DWIDTH 16 0
BBX 6 1 5 6
BITMAP
FC
ENDCHAR
STARTCHAR endash
ENCODING 8211
SWIDTH 1024 0
DWIDTH 16 0
BBX 6 1 5 6
BITMAP
FC
ENDCHAR
STARTCHAR emdash
ENCODING 8212
SWIDTH 1024 0
DWIDTH 16 0
BBX 16 1 0 6
BITMAP
FFFF
ENDCHAR
STARTCHAR uni2015
ENCODING 8213
SWIDTH 1024 0
DWIDTH 16 0
BBX 15 1 1 6
BITMAP
FFFE
ENDCHAR
STARTCHAR uni2016
ENCODING 8214
SWIDTH 1024 0
DWIDTH 16 0
BBX 5 16 5 -2
BITMAP
88
88
88
88
88
88
88
88
88
88
88
88
88
88
88
88
ENDCHAR
STARTCHAR quoteleft
ENCODING 8216
SWIDTH 1024 0
DWIDTH 16 0
BBX 4 5 10 8
BITMAP
20
40
E0
F0
60
ENDCHAR
STARTCHAR quoteright
ENCODING 8217
SWIDTH 1024 0
DWIDTH 16 0
BBX 4 5 2 8
BITMAP
60
F0
70
20
C0
ENDCHAR
STARTCHAR quotesinglbase
ENCODING 8218
SWIDTH 1024 0
DWIDTH 16 0
BBX 5 7 2 -2
BITMAP
30
78
78
30
20
40
80
ENDCHAR
STARTCHAR quotedblleft
ENCODING 8220
SWIDTH 1024 0
DWIDTH 16 0
BBX 7 5 7 8
BITMAP
22
44
CC
EE
CC
ENDCHAR
STARTCHAR quotedblright
ENCODING 8221
SWIDTH 1024 0
DWIDTH 16 0
BBX 7 4 1 9
BITMAP
EE
66
44
88
ENDCHAR
STARTCHAR dagger
ENCODING 8224
SWIDTH 1024 0
DWIDTH 16 0
BBX 9 16 3 -2
BITMAP
0800
1C00
4900
FF80
4900
0800
3E00
1C00
1C00
1C00
1C00
1C00
0800
0800
0800
0800
ENDCHAR
STARTCHAR daggerdbl
ENCODING 8225
SWIDTH 1024 0
DWIDTH 16 0
BBX 9 16 3 -2
BITMAP
0800
1C00
4900
FF80
4900
1C00
1C00
0800
0800
1C00
1C00
4900
FF80
4900
1C00
0800
ENDCHAR
STARTCHAR bullet
ENCODING 8226
SWIDTH 1024 0
DWIDTH 16 0
BBX 4 4 1 5
BITMAP
60
F0
F0
60
ENDCHAR
STARTCHAR onedotenleader
ENCODING 8228
SWIDTH 1024 0
DWIDTH 16 0
BBX 4 3 6 5
BITMAP
60
F0
60
ENDCHAR
STARTCHAR twodotenleader
ENCODING 8229
SWIDTH 1024 0
DWIDTH 16 0
BBX 10 3 3 5
BITMAP
6180
F3C0
6180
ENDCHAR
STARTCHAR ellipsis
ENCODING 8230
SWIDTH 1024 0
DWIDTH 16 0
BBX 14 3 0 5
BITMAP
6318
F7BC
6318
ENDCHAR
STARTCHAR perthousand
ENCODING 8240
SWIDTH 1024 0
DWIDTH 16 0
BBX 14 13 2 0
BITMAP
0008
3010
4820
4840
4880
3100
0200
0400
0B18
14A4
24A4
44A4
8318
ENDCHAR
STARTCHAR minute
ENCODING 8242
SWIDTH 1024 0
DWIDTH 16 0
BBX 6 6 5 7
BITMAP
18
3C
38
30
60
80
ENDCHAR
STARTCHAR second
ENCODING 8243
SWIDTH 1024 0
DWIDTH 16 0
BBX 12 9 1 0
BITMAP
0420
0E70
0E70
0E70
1CE0
18C0
3180
6300
8400
ENDCHAR
STARTCHAR uni2035
ENCODING 8245
SWIDTH 1024 0
DWIDTH 16 0
BBX 6 4 5 9
BITMAP
E0
70
18
04
ENDCHAR
STARTCHAR uni203B
ENCODING 8251
SWIDTH 1024 0
DWIDTH 16 0
BBX 12 11 2 0
BITMAP
C630
6660
30C0
1980
CF00
C630
0F30
1980
30C0
6660
C630
ENDCHAR
STARTCHAR uni203E
ENCODING 8254
SWIDTH 1024 0
DWIDTH 16 0
BBX 11 1 3 10
BITMAP
FFE0
ENDCHAR
STARTCHAR uni2074
ENCODING 8308
SWIDTH 1024 0
DWIDTH 16 0
BBX 6 6 10 7
BITMAP
10
30
50
FC
10
38
ENDCHAR
STARTCHAR uni207F
ENCODING 8319
SWIDTH 1024 0
DWIDTH 16 0
BBX 6 5 10 8
BITMAP
58
E8
48
48
DC
ENDCHAR
STARTCHAR uni2081
ENCODING 8321
SWIDTH 1024 0
DWIDTH 16 0
BBX 3 6 13 -1
BITMAP
40
C0
40
40
40
E0
ENDCHAR
STARTCHAR uni2082
ENCODING 8322
SWIDTH 1024 0
DWIDTH 16 0
BBX 5 6 11 -1
BITMAP
70
88
10
60
88
F8
ENDCHAR
STARTCHAR uni2083
ENCODING 8323
SWIDTH 1024 0
DWIDTH 16 0
BBX 5 6 11 -1
BITMAP
70
88
30
08
88
70
ENDCHAR
STARTCHAR uni2084
ENCODING 8324
SWIDTH 1024 0
DWIDTH 16 0
BBX 6 6 10 -1
BITMAP
10
30
50
FC
10
38
ENDCHAR
STARTCHAR uni20A9
ENCODING 8361
SWIDTH 1024 0
DWIDTH 16 0
BBX 16 13 0 0
BITMAP
F3C7
6182
6184
3184
FFFF
30C8
FFFF
19C8
1AD0
1AD0
0E70
0C60
0C60
ENDCHAR
STARTCHAR uni2103
ENCODING 8451
SWIDTH 1024 0
DWIDTH 16 0
BBX 15 13 0 0
BITMAP
6000
9000
63F4
061C
0C06
1802
1800
1800
1800
1800
0C02
060C
03F0
ENDCHAR
STARTCHAR uni2105
ENCODING 8453
SWIDTH 1024 0
DWIDTH 16 0
BBX 13 11 2 1
BITMAP
3800
4420
8040
8080
4900
3200
04F0
0908
1108
2108
40F0
ENDCHAR
STARTCHAR uni2109
ENCODING 8457
SWIDTH 1024 0
DWIDTH 16 0
BBX 16 14 0 -1
BITMAP
7000
8BFF
8903
7101
0101
0108
01F8
0118
0108
0100
0100
0100
0100
07C0
ENDCHAR
STARTCHAR uni2113
ENCODING 8467
SWIDTH 1024 0
DWIDTH 16 0
BBX 12 13 2 0
BITMAP
0180
0240
0440
0440
0480
0880
0900
0900
0A10
0C10
0820
1840
E780
ENDCHAR
STARTCHAR uni2116
ENCODING 8470
SWIDTH 1024 0
DWIDTH 16 0
BBX 14 14 1 -1
BITMAP
7060
30E0
3880
2880
2C80
2C80
2C80
2698
26A4
22A4
23A4
2198
C180
C0BC
ENDCHAR
STARTCHAR uni2121
ENCODING 8481
SWIDTH 1024 0
DWIDTH 16 0
BBX 16 13 0 0
BITMAP
FE02
9206
1002
1002
1002
11E2
1212
1212
13F2
1202
1202
1212
39E7
ENDCHAR
STARTCHAR trademark
ENCODING 8482
SWIDTH 1024 0
DWIDTH 16 0
BBX 16 13 0 0
BITMAP
FF83
9282
92C6
10C6
10C6
10EE
10AA
10AA
10BA
1092
1082
1082
39C7
ENDCHAR
STARTCHAR Omega
ENCODING 8486
SWIDTH 1024 0
DWIDTH 16 0
BBX 14 13 1 0
BITMAP
0780
1860
3030
3030
3030
3030
3030
3030
1860
0CC0
8484
4488
7878
ENDCHAR
STARTCHAR uni212B
ENCODING 8491
SWIDTH 1024 0
DWIDTH 16 0
BBX 13 14 1 0
BITMAP
0600
0900
0600
0400
0600
0B00
0B00
1180
1180
20C0
3FC0
2060
4060
E0F8
ENDCHAR
STARTCHAR onethird
ENCODING 8531
SWIDTH 1024 0
DWIDTH 16 0
BBX 14 14 1 -1
BITMAP
2004
6008
2010
2020
2040
2080
2138
7244
0404
0818
1004
2004
4044
8038
ENDCHAR
STARTCHAR twothirds
ENCODING 8532
SWIDTH 1024 0
DWIDTH 16 0
BBX 14 14 1 -1
BITMAP
7004
8808
0810
3020
4040
8080
8938
FA44
0404
0818
1004
2004
4044
8038
ENDCHAR
STARTCHAR oneeighth
ENCODING 8539
SWIDTH 1024 0
DWIDTH 16 0
BBX 14 14 1 -1
BITMAP
2004
6008
2010
2020
2040
2080
2178
7284
0484
0878
1084
2084
4084
8078
ENDCHAR
STARTCHAR threeeighths
ENCODING 8540
SWIDTH 1024 0
DWIDTH 16 0
BBX 14 14 1 -1
BITMAP
7004
8808
0810
3020
0840
0880
8978
7284
0484
0878
1084
2084
4084
8078
ENDCHAR
STARTCHAR fiveeighths
ENCODING 8541
SWIDTH 1024 0
DWIDTH 16 0
BBX 14 14 1 -1
BITMAP
C804
B008
8010
B020
C840
0880
8978
7284
0484
0878
1084
2084
4084
8078
ENDCHAR
STARTCHAR seveneighths
ENCODING 8542
SWIDTH 1024 0
DWIDTH 16 0
BBX 14 14 1 -1
BITMAP
7C04
8408
0810
0820
1040
1080
2178
2284
0484
0878
1084
2084
4084
8078
ENDCHAR
STARTCHAR uni2160
ENCODING 8544
SWIDTH 1024 0
DWIDTH 16 0
BBX 3 12 7 0
BITMAP
E0
40
40
40
40
40
40
40
40
40
40
E0
ENDCHAR
STARTCHAR uni2161
ENCODING 8545
SWIDTH 1024 0
DWIDTH 16 0
BBX 7 12 5 0
BITMAP
EE
44
44
44
44
44
44
44
44
44
44
EE
ENDCHAR
STARTCHAR uni2162
ENCODING 8546
SWIDTH 1024 0
DWIDTH 16 0
BBX 11 12 3 0
BITMAP
EEE0
4440
4440
4440
4440
4440
4440
4440
4440
4440
4440
EEE0
ENDCHAR
STARTCHAR uni2163
ENCODING 8547
SWIDTH 1024 0
DWIDTH 16 0
BBX 11 12 3 0
BITMAP
EEE0
4440
4440
4440
4440
4440
4440
4280
4280
4280
4100
E100
ENDCHAR
STARTCHAR uni2164
ENCODING 8548
SWIDTH 1024 0
DWIDTH 16 0
BBX 9 12 4 0
BITMAP
E380
4100
4100
4100
6100
2200
2200
3200
1400
1400
0800
0800
ENDCHAR
STARTCHAR uni2165
ENCODING 8549
SWIDTH 1024 0
DWIDTH 16 0
BBX 11 12 3 0
BITMAP
EEE0
4440
4440
4440
4440
4440
2840
2840
2840
2840
1040
10E0
ENDCHAR
STARTCHAR uni2166
ENCODING 8550
SWIDTH 1024 0
DWIDTH 16 0
BBX 13 12 2 0
BITMAP
EEF8
4450
4450
4450
4450
4450
2850
2850
2850
2850
1050
10F8
ENDCHAR
STARTCHAR uni2167
ENCODING 8551
SWIDTH 1024 0
DWIDTH 16 0
BBX 13 12 2 0
BITMAP
EFF8
4550
4550
4550
4550
4550
2950
2950
2950
2950
1150
13F8
ENDCHAR
STARTCHAR uni2168
ENCODING 8552
SWIDTH 1024 0
DWIDTH 16 0
BBX 11 12 3 0
BITMAP
EEE0
4440
4440
4440
4280
4280
4100
4280
4280
4440
4440
EEE0
ENDCHAR
STARTCHAR uni2169
ENCODING 8553
SWIDTH 1024 0
DWIDTH 16 0
BBX 9 12 4 0
BITMAP
E380
4100
4100
2200
1400
0800
1400
2200
2200
4100
4100
E380
ENDCHAR
STARTCHAR uni216A
ENCODING 8554
SWIDTH 1024 0
DWIDTH 16 0
BBX 11 12 3 0
BITMAP
EEE0
4440
4440
4440
2840
2840
1040
2840
4440
4440
4440
EEE0
ENDCHAR
STARTCHAR uni216B
ENCODING 8555
SWIDTH 1024 0
DWIDTH 16 0
BBX 13 12 2 0
BITMAP
FEF8
4450
4450
4450
2850
2850
1050
2850
4450
4450
4450
FEF8
ENDCHAR
STARTCHAR uni2170
ENCODING 8560
SWIDTH 1024 0
DWIDTH 16 0
BBX 3 13 7 0
BITMAP
40
40
00
00
40
C0
40
40
40
40
40
40
E0
ENDCHAR
STARTCHAR uni2171
ENCODING 8561
SWIDTH 1024 0
DWIDTH 16 0
BBX 8 13 4 0
BITMAP
42
42
00
00
42
C6
42
42
42
42
42
42
E7
ENDCHAR
STARTCHAR uni2172
ENCODING 8562
SWIDTH 1024 0
DWIDTH 16 0
BBX 11 13 2 0
BITMAP
4440
4440
0000
0000
4440
CCC0
4440
4440
4440
4440
4440
4440
EEE0
ENDCHAR
STARTCHAR uni2173
ENCODING 8563
SWIDTH 1024 0
DWIDTH 16 0
BBX 12 13 2 0
BITMAP
4000
4000
0000
0000
5C70
C820
4820
4440
4440
4280
4280
4100
E100
ENDCHAR
STARTCHAR uni2174
ENCODING 8564
SWIDTH 1024 0
DWIDTH 16 0
BBX 9 9 3 0
BITMAP
E380
4100
4100
2200
2200
1400
1400
0800
0800
ENDCHAR
STARTCHAR uni2175
ENCODING 8565
SWIDTH 1024 0
DWIDTH 16 0
BBX 12 13 2 0
BITMAP
0020
0020
0000
0000
E3A0
4160
4120
2220
2220
1420
1420
0820
0870
ENDCHAR
STARTCHAR uni2176
ENCODING 8566
SWIDTH 1024 0
DWIDTH 16 0
BBX 15 13 0 0
BITMAP
0024
0024
0000
0000
E3A4
416C
4124
2224
2224
1424
1424
0824
087E
ENDCHAR
STARTCHAR uni2177
ENCODING 8567
SWIDTH 1024 0
DWIDTH 16 0
BBX 16 13 0 0
BITMAP
0092
0092
0000
0000
EE92
45B6
4492
4492
2892
2892
2892
1092
11FF
ENDCHAR
STARTCHAR uni2178
ENCODING 8568
SWIDTH 1024 0
DWIDTH 16 0
BBX 13 13 1 0
BITMAP
4000
4000
0000
0000
CE38
4410
4220
4140
4080
4140
4220
4410
EE38
ENDCHAR
STARTCHAR uni2179
ENCODING 8569
SWIDTH 1024 0
DWIDTH 16 0
BBX 10 9 3 0
BITMAP
E1C0
2080
1100
0A00
0C00
1200
2100
4080
E1C0
ENDCHAR
STARTCHAR uni217A
ENCODING 8570
SWIDTH 1024 0
DWIDTH 16 0
BBX 13 13 1 0
BITMAP
0010
0010
0000
0000
E390
4130
2210
1410
0810
1410
2210
4110
E3B8
ENDCHAR
STARTCHAR uni217B
ENCODING 8571
SWIDTH 1024 0
DWIDTH 16 0
BBX 16 13 0 0
BITMAP
0012
0012
0000
0000
E392
4136
2212
1412
0812
1412
2212
4112
E3BF
ENDCHAR
STARTCHAR arrowleft
ENCODING 8592
SWIDTH 1024 0
DWIDTH 16 0
BBX 13 7 2 3
BITMAP
0400
1800
7800
FFF8
7800
1800
0400
ENDCHAR
STARTCHAR arrowup
ENCODING 8593
SWIDTH 1024 0
DWIDTH 16 0
BBX 7 14 5 -1
BITMAP
10
38
38
7C
7C
92
10
10
10
10
10
10
10
10
ENDCHAR
STARTCHAR arrowright
ENCODING 8594
SWIDTH 1024 0
DWIDTH 16 0
BBX 13 7 2 3
BITMAP
0100
00C0
00F0
FFF8
00F0
00C0
0100
ENDCHAR
STARTCHAR arrowdown
ENCODING 8595
SWIDTH 1024 0
DWIDTH 16 0
BBX 7 14 5 -1
BITMAP
10
10
10
10
10
10
10
10
92
7C
7C
38
38
10
ENDCHAR
STARTCHAR arrowboth
ENCODING 8596
SWIDTH 1024 0
DWIDTH 16 0
BBX 16 7 0 3
BITMAP
1008
2004
6006
FFFF
6006
2004
1008
ENDCHAR
STARTCHAR arrowupdn
ENCODING 8597
SWIDTH 1024 0
DWIDTH 16 0
BBX 9 15 3 -1
BITMAP
0800
1C00
3E00
4900
8880
0800
0800
0800
0800
0800
8880
4900
3E00
1C00
0800
ENDCHAR
STARTCHAR uni2196
ENCODING 8598
SWIDTH 1024 0
DWIDTH 16 0
BBX 13 13 1 0
BITMAP
FC00
E000
E000
9000
8800
8400
0200
0100
0080
0040
0020
0010
0008
ENDCHAR
STARTCHAR uni2197
ENCODING 8599
SWIDTH 1024 0
DWIDTH 16 0
BBX 13 13 2 0
BITMAP
01F8
0038
0038
0048
0088
0100
0200
0400
0800
1000
2000
4000
8000
ENDCHAR
STARTCHAR uni2198
ENCODING 8600
SWIDTH 1024 0
DWIDTH 16 0
BBX 13 13 1 0
BITMAP
8000
4000
2000
1000
0800
0400
0200
0108
0088
0048
0038
0038
01F8
ENDCHAR
STARTCHAR uni2199
ENCODING 8601
SWIDTH 1024 0
DWIDTH 16 0
BBX 13 13 1 0
BITMAP
0008
0010
0020
0040
0080
0100
0200
8400
8800
9000
E000
E000
FC00
ENDCHAR
STARTCHAR arrowdblright
ENCODING 8658
SWIDTH 1024 0
DWIDTH 16 0
BBX 16 9 0 2
BITMAP
0010
0008
FFFC
0002
0001
0002
FFFC
0008
0010
ENDCHAR
STARTCHAR arrowdblboth
ENCODING 8660
SWIDTH 1024 0
DWIDTH 16 0
BBX 16 9 0 2
BITMAP
0810
1008
3FFC
4002
8001
4002
3FFC
1008
0810
ENDCHAR
STARTCHAR universal
ENCODING 8704
SWIDTH 1024 0
DWIDTH 16 0
BBX 13 14 1 -1
BITMAP
8008
8008
4010
4010
3FE0
2020
1040
1040
0880
0880
0500
0500
0200
0200
ENDCHAR
STARTCHAR partialdiff
ENCODING 8706
SWIDTH 1024 0
DWIDTH 16 0
BBX 9 13 3 0
BITMAP
0F00
1980
2080
0080
0080
1D80
2300
4100
C300
8200
8600
CC00
7800
ENDCHAR
STARTCHAR existential
ENCODING 8707
SWIDTH 1024 0
DWIDTH 16 0
BBX 9 11 3 1
BITMAP
FF80
0080
0080
0080
0080
FF80
0080
0080
0080
0080
FF80
ENDCHAR
STARTCHAR gradient
ENCODING 8711
SWIDTH 1024 0
DWIDTH 16 0
BBX 14 13 1 0
BITMAP
FFFC
6008
6018
3010
3030
1820
1860
0C40
0CC0
0680
0780
0300
0300
ENDCHAR
STARTCHAR element
ENCODING 8712
SWIDTH 1024 0
DWIDTH 16 0
BBX 12 9 2 2
BITMAP
3FF0
4000
8000
8000
FFF0
8000
8000
4000
3FF0
ENDCHAR
STARTCHAR uni220A
ENCODING 8714
SWIDTH 1024 0
DWIDTH 16 0
BBX 6 13 4 -1
BITMAP
0C
30
40
40
80
80
FC
80
80
40
40
30
0C
ENDCHAR
STARTCHAR suchthat
ENCODING 8715
SWIDTH 1024 0
DWIDTH 16 0
BBX 10 9 3 2
BITMAP
FF00
0080
0040
0040
FFC0
0040
0040
0080
FF00
ENDCHAR
STARTCHAR product
ENCODING 8719
SWIDTH 1024 0
DWIDTH 16 0
BBX 12 12 2 0
BITMAP
FFF0
30C0
30C0
30C0
30C0
30C0
30C0
30C0
30C0
30C0
30C0
F9F0
ENDCHAR
STARTCHAR summation
ENCODING 8721
SWIDTH 1024 0
DWIDTH 16 0
BBX 11 12 3 0
BITMAP
FFE0
C020
6020
3000
1800
1800
1000
2000
2000
4020
FFE0
FFE0
ENDCHAR
STARTCHAR minus
ENCODING 8722
SWIDTH 1024 0
DWIDTH 16 0
BBX 12 1 2 6
BITMAP
FFF0
ENDCHAR
STARTCHAR radical
ENCODING 8730
SWIDTH 1024 0
DWIDTH 16 0
BBX 11 14 2 -1
BITMAP
0020
0020
0040
0040
0080
0080
0100
0100
0200
4200
EC00
B800
3000
1000
ENDCHAR
STARTCHAR proportional
ENCODING 8733
SWIDTH 1024 0
DWIDTH 16 0
BBX 12 7 2 3
BITMAP
3070
4880
8500
8200
8500
4880
3070
ENDCHAR
STARTCHAR infinity
ENCODING 8734
SWIDTH 1024 0
DWIDTH 16 0
BBX 13 7 2 3
BITMAP
3060
4890
8508
8208
8508
4890
3060
ENDCHAR
STARTCHAR orthogonal
ENCODING 8735
SWIDTH 1024 0
DWIDTH 16 0
BBX 11 11 3 1
BITMAP
8000
8000
8000
8000
8000
8000
8000
8000
8000
8000
FFE0
ENDCHAR
STARTCHAR angle
ENCODING 8736
SWIDTH 1024 0
DWIDTH 16 0
BBX 10 10 2 2
BITMAP
0040
0080
0100
0200
0400
0800
1000
2000
4000
FFC0
ENDCHAR
STARTCHAR uni2223
ENCODING 8739
SWIDTH 1024 0
DWIDTH 16 0
BBX 1 11 8 1
BITMAP
80
80
80
80
80
80
80
80
80
80
80
ENDCHAR
STARTCHAR uni2225
ENCODING 8741
SWIDTH 1024 0
DWIDTH 16 0
BBX 4 14 6 -1
BITMAP
90
90
90
90
90
90
90
90
90
90
90
90
90
90
ENDCHAR
STARTCHAR logicaland
ENCODING 8743
SWIDTH 1024 0
DWIDTH 16 0
BBX 13 12 2 1
BITMAP
0200
0500
0880
0880
1040
1040
2020
2020
4010
4010
8008
8008
ENDCHAR
STARTCHAR logicalor
ENCODING 8744
SWIDTH 1024 0
DWIDTH 16 0
BBX 13 12 2 -1
BITMAP
8008
8008
4010
4010
2020
2020
1040
1040
0880
0880
0500
0200
ENDCHAR
STARTCHAR intersection
ENCODING 8745
SWIDTH 1024 0
DWIDTH 16 0
BBX 11 14 3 -1
BITMAP
3F80
60C0
C060
8020
8020
8020
8020
8020
8020
8020
8020
8020
8020
8020
ENDCHAR
STARTCHAR union
ENCODING 8746
SWIDTH 1024 0
DWIDTH 16 0
BBX 11 14 3 -1
BITMAP
8020
8020
8020
8020
8020
8020
8020
8020
8020
8020
8020
C060
60C0
3F80
ENDCHAR
STARTCHAR integral
ENCODING 8747
SWIDTH 1024 0
DWIDTH 16 0
BBX 9 12 3 0
BITMAP
0300
0480
0800
0800
0800
0800
0800
0800
0800
0800
9000
6000
ENDCHAR
STARTCHAR uni222C
ENCODING 8748
SWIDTH 1024 0
DWIDTH 16 0
BBX 10 16 3 -2
BITMAP
71C0
9240
8200
8200
C300
C300
4100
6180
6180
2080
30C0
30C0
1040
1040
9240
E380
ENDCHAR
STARTCHAR uni222E
ENCODING 8750
SWIDTH 1024 0
DWIDTH 16 0
BBX 9 13 3 0
BITMAP
0300
0480
0800
0800
1C00
2A00
2A00
2A00
1C00
0800
0800
9000
6000
ENDCHAR
STARTCHAR therefore
ENCODING 8756
SWIDTH 1024 0
DWIDTH 16 0
BBX 12 11 2 1
BITMAP
0600
0F00
0F00
0600
0000
0000
0000
6060
F0F0
F0F0
6060
ENDCHAR
STARTCHAR uni2235
ENCODING 8757
SWIDTH 1024 0
DWIDTH 16 0
BBX 12 11 3 1
BITMAP
6060
F0F0
F0F0
6060
0000
0000
0000
0600
0F00
0F00
0600
ENDCHAR
STARTCHAR uni2236
ENCODING 8758
SWIDTH 1024 0
DWIDTH 16 0
BBX 4 11 6 1
BITMAP
60
F0
F0
60
00
00
00
60
F0
F0
60
ENDCHAR
STARTCHAR uni2237
ENCODING 8759
SWIDTH 1024 0
DWIDTH 16 0
BBX 12 12 2 0
BITMAP
6060
F0F0
F0F0
6060
0000
0000
0000
0000
6060
F0F0
F0F0
6060
ENDCHAR
STARTCHAR similar
ENCODING 8764
SWIDTH 1024 0
DWIDTH 16 0
BBX 12 5 2 6
BITMAP
3000
7C10
C630
83E0
0080
ENDCHAR
STARTCHAR uni223D
ENCODING 8765
SWIDTH 1024 0
DWIDTH 16 0
BBX 13 7 2 3
BITMAP
3060
4090
8108
8208
8408
4810
3060
ENDCHAR
STARTCHAR approxequal
ENCODING 8776
SWIDTH 1024 0
DWIDTH 16 0
BBX 12 7 2 3
BITMAP
3800
4410
8220
39C0
4410
8220
01C0
ENDCHAR
STARTCHAR uni224C
ENCODING 8780
SWIDTH 1024 0
DWIDTH 16 0
BBX 12 10 3 2
BITMAP
20C0
4120
8210
8410
4820
3040
0000
FFF0
0000
FFF0
ENDCHAR
STARTCHAR uni2252
ENCODING 8786
SWIDTH 1024 0
DWIDTH 16 0
BBX 12 11 2 1
BITMAP
6000
6000
0000
FFF0
0000
0000
0000
FFF0
0000
0060
0060
ENDCHAR
STARTCHAR notequal
ENCODING 8800
SWIDTH 1024 0
DWIDTH 16 0
BBX 11 14 3 -1
BITMAP
0100
0100
0100
0200
FFE0
0200
0400
0400
0800
FFE0
0800
1000
1000
1000
ENDCHAR
STARTCHAR equivalence
ENCODING 8801
SWIDTH 1024 0
DWIDTH 16 0
BBX 11 5 3 4
BITMAP
FFE0
0000
FFE0
0000
FFE0
ENDCHAR
STARTCHAR lessequal
ENCODING 8804
SWIDTH 1024 0
DWIDTH 16 0
BBX 13 16 2 -2
BITMAP
0018
0060
0180
0600
1800
6000
C000
6000
1800
8600
6180
1860
0618
0180
0060
0018
ENDCHAR
STARTCHAR greaterequal
ENCODING 8805
SWIDTH 1024 0
DWIDTH 16 0
BBX 13 16 2 -2
BITMAP
C000
3000
0C00
0300
00C0
0030
0018
0030
00C0
0308
0C30
30C0
C300
0C00
3000
C000
ENDCHAR
STARTCHAR uni2266
ENCODING 8806
SWIDTH 1024 0
DWIDTH 16 0
BBX 12 12 2 0
BITMAP
0070
0380
1C00
E000
1C00
0380
0070
0000
FFF0
0000
0000
FFF0
ENDCHAR
STARTCHAR uni2267
ENCODING 8807
SWIDTH 1024 0
DWIDTH 16 0
BBX 12 12 2 0
BITMAP
E000
1C00
0380
0070
0380
1C00
E000
0000
FFF0
0000
0000
FFF0
ENDCHAR
STARTCHAR uni226A
ENCODING 8810
SWIDTH 1024 0
DWIDTH 16 0
BBX 14 14 1 -1
BITMAP
0084
0108
0630
0840
3180
4200
8400
4200
2100
1080
0C60
0210
0108
0084
ENDCHAR
STARTCHAR uni226B
ENCODING 8811
SWIDTH 1024 0
DWIDTH 16 0
BBX 14 14 1 -1
BITMAP
8400
4200
3180
0840
0630
0108
0084
0108
0210
0420
18C0
2100
4200
8400
ENDCHAR
STARTCHAR uni226E
ENCODING 8814
SWIDTH 1024 0
DWIDTH 16 0
BBX 13 13 1 -1
BITMAP
0418
0460
0580
0600
1C00
6400
C400
6400
1C00
0600
0580
0460
0418
ENDCHAR
STARTCHAR uni226F
ENCODING 8815
SWIDTH 1024 0
DWIDTH 16 0
BBX 13 13 3 0
BITMAP
C100
3100
0D00
0300
01C0
0130
0118
0130
01C0
0300
0D00
3100
C100
ENDCHAR
STARTCHAR propersubset
ENCODING 8834
SWIDTH 1024 0
DWIDTH 16 0
BBX 12 10 2 1
BITMAP
1FF0
2000
4000
8000
8000
8000
8000
4000
2000
1FF0
ENDCHAR
STARTCHAR propersuperset
ENCODING 8835
SWIDTH 1024 0
DWIDTH 16 0
BBX 12 10 2 1
BITMAP
FF80
0040
0020
0010
0010
0010
0010
0020
0040
FF80
ENDCHAR
STARTCHAR reflexsubset
ENCODING 8838
SWIDTH 1024 0
DWIDTH 16 0
BBX 12 11 2 1
BITMAP
3FF0
4000
8000
8000
8000
8000
4000
3FF0
0000
0000
FFF0
ENDCHAR
STARTCHAR reflexsuperset
ENCODING 8839
SWIDTH 1024 0
DWIDTH 16 0
BBX 12 11 2 1
BITMAP
FFC0
0020
0010
0010
0010
0010
0020
FFC0
0000
0000
FFF0
ENDCHAR
STARTCHAR uni2299
ENCODING 8857
SWIDTH 1024 0
DWIDTH 16 0
BBX 15 15 1 -1
BITMAP
07C0
1830
2008
4004
4004
8102
8382
87C2
8382
8102
4004
4004
2008
1830
07C0
ENDCHAR
STARTCHAR perpendicular
ENCODING 8869
SWIDTH 1024 0
DWIDTH 16 0
BBX 11 13 3 0
BITMAP
0400
0400
0400
0400
0400
0400
0400
0400
0400
0400
0400
0400
FFE0
ENDCHAR
STARTCHAR uni22BF
ENCODING 8895
SWIDTH 1024 0
DWIDTH 16 0
BBX 12 12 2 1
BITMAP
0010
0030
0050
0090
0110
0210
0410
0810
1010
2010
4010
FFF0
ENDCHAR
STARTCHAR uni2312
ENCODING 8978
SWIDTH 1024 0
DWIDTH 16 0
BBX 13 8 2 4
BITMAP
0700
18C0
3060
2020
4010
4010
8008
8008
ENDCHAR
STARTCHAR uni2460
ENCODING 9312
SWIDTH 1024 0
DWIDTH 16 0
BBX 15 15 1 -1
BITMAP
07C0
1830
2088
4384
4184
8182
8182
8182
8182
8182
4184
43C4
2008
1830
07C0
ENDCHAR
STARTCHAR uni2461
ENCODING 9313
SWIDTH 1024 0
DWIDTH 16 0
BBX 15 15 1 -1
BITMAP
07C0
1830
2388
46C4
4C64
8862
8062
80C2
8182
8302
4624
4FE4
2008
1830
07C0
ENDCHAR
STARTCHAR uni2462
ENCODING 9314
SWIDTH 1024 0
DWIDTH 16 0
BBX 15 15 1 -1
BITMAP
07C0
1830
2388
46C4
4C64
8462
80C2
8182
80C2
8462
4C64
46C4
2388
1830
07C0
ENDCHAR
STARTCHAR uni2463
ENCODING 9315
SWIDTH 1024 0
DWIDTH 16 0
BBX 15 15 1 -1
BITMAP
07C0
1830
2088
4184
4384
8582
8582
8982
8982
9FE2
4184
4184
23C8
1830
07C0
ENDCHAR
STARTCHAR uni2464
ENCODING 9316
SWIDTH 1024 0
DWIDTH 16 0
BBX 15 15 1 -1
BITMAP
07C0
1830
2008
4FE4
4FC4
8802
8B82
8EC2
8862
8062
4C64
46C4
2388
1830
07C0
ENDCHAR
STARTCHAR uni2465
ENCODING 9317
SWIDTH 1024 0
DWIDTH 16 0
BBX 15 15 1 -1
BITMAP
07C0
1830
23C8
4664
4C24
8C02
8D82
8EC2
8E62
8C62
4C64
46C4
2388
1830
07C0
ENDCHAR
STARTCHAR uni2466
ENCODING 9318
SWIDTH 1024 0
DWIDTH 16 0
BBX 15 15 1 -1
BITMAP
07C0
1830
2008
4FE4
4FE4
8862
8042
80C2
80C2
8182
4304
4604
2608
1830
07C0
ENDCHAR
STARTCHAR uni2467
ENCODING 9319
SWIDTH 1024 0
DWIDTH 16 0
BBX 15 15 1 -1
BITMAP
07C0
1830
2388
46C4
4C64
8C62
86C2
8382
86C2
8C62
4C64
46C4
2388
1830
07C0
ENDCHAR
STARTCHAR uni2468
ENCODING 9320
SWIDTH 1024 0
DWIDTH 16 0
BBX 15 15 1 -1
BITMAP
07C0
1830
2008
4384
46C4
8C62
8C62
8C62
86E2
8162
4C64
46C4
2388
1830
07C0
ENDCHAR
STARTCHAR uni2469
ENCODING 9321
SWIDTH 1024 0
DWIDTH 16 0
BBX 15 15 1 -1
BITMAP
07C0
1830
24E8
5DB4
4DB4
8DB2
8DB2
8DB2
8DB2
8DB2
4DB4
5EE4
2008
1830
07C0
ENDCHAR
STARTCHAR uni246A
ENCODING 9322
SWIDTH 1024 0
DWIDTH 16 0
BBX 14 14 1 -1
BITMAP
1FE0
2010
4848
98C4
8844
8844
8844
8844
8844
8844
9CE4
4008
2010
1FE0
ENDCHAR
STARTCHAR uni246B
ENCODING 9323
SWIDTH 1024 0
DWIDTH 16 0
BBX 14 14 1 -1
BITMAP
1FE0
2010
49C8
9A24
8B24
8824
88C4
8904
8A04
8A14
9FE4
4008
2010
1FE0
ENDCHAR
STARTCHAR uni246C
ENCODING 9324
SWIDTH 1024 0
DWIDTH 16 0
BBX 14 14 1 -1
BITMAP
1FE0
2010
49C8
9A24
8824
8824
88C4
8824
8A24
8A24
9DC4
4008
2010
1FE0
ENDCHAR
STARTCHAR uni246D
ENCODING 9325
SWIDTH 1024 0
DWIDTH 16 0
BBX 14 14 1 -1
BITMAP
1FE0
2010
4848
98C4
88C4
8944
8944
8A44
8FF4
8844
9CE4
4008
2010
1FE0
ENDCHAR
STARTCHAR uni246E
ENCODING 9326
SWIDTH 1024 0
DWIDTH 16 0
BBX 14 14 1 -1
BITMAP
1FE0
2010
4BE8
9A04
8A04
8AC4
8B24
8824
8824
8A24
9DC4
4008
2010
1FE0
ENDCHAR
STARTCHAR uni246F
ENCODING 9327
SWIDTH 1024 0
DWIDTH 16 0
BBX 14 14 1 -1
BITMAP
1FE0
2010
49C8
9A24
8A04
8BC4
8A24
8A24
8A24
8A24
9DC4
4008
2010
1FE0
ENDCHAR
STARTCHAR uni2470
ENCODING 9328
SWIDTH 1024 0
DWIDTH 16 0
BBX 14 14 1 -1
BITMAP
1FE0
2010
4BE8
9A24
8A24
8844
8844
8884
8884
8904
9D04
4008
2010
1FE0
ENDCHAR
STARTCHAR uni2471
ENCODING 9329
SWIDTH 1024 0
DWIDTH 16 0
BBX 14 14 1 -1
BITMAP
1FE0
2010
49C8
9A24
8A24
8A24
89C4
8A24
8A24
8A24
9DC4
4008
2010
1FE0
ENDCHAR
STARTCHAR uni2472
ENCODING 9330
SWIDTH 1024 0
DWIDTH 16 0
BBX 14 14 1 -1
BITMAP
1FE0
2010
49C8
9A24
8A24
8A24
89E4
8824
8824
8A24
9DC4
4008
2010
1FE0
ENDCHAR
STARTCHAR uni2473
ENCODING 9331
SWIDTH 1024 0
DWIDTH 16 0
BBX 14 14 1 -1
BITMAP
1FE0
2010
4CC8
9324
9B24
8324
8D24
9124
9124
9324
9EC4
4008
2010
1FE0
ENDCHAR
STARTCHAR uni2474
ENCODING 9332
SWIDTH 1024 0
DWIDTH 16 0
BBX 13 14 2 -1
BITMAP
2020
4210
4E10
8608
8608
8608
8608
8608
8608
8608
8608
4F10
4010
2020
ENDCHAR
STARTCHAR uni2475
ENCODING 9333
SWIDTH 1024 0
DWIDTH 16 0
BBX 13 14 2 -1
BITMAP
2020
4710
4D90
98C8
90C8
80C8
8188
8308
8608
8C48
9FC8
4010
4010
2020
ENDCHAR
STARTCHAR uni2476
ENCODING 9334
SWIDTH 1024 0
DWIDTH 16 0
BBX 13 14 2 -1
BITMAP
2020
4710
4D90
98C8
88C8
8188
8308
8188
88C8
98C8
8D88
4710
4010
2020
ENDCHAR
STARTCHAR uni2477
ENCODING 9335
SWIDTH 1024 0
DWIDTH 16 0
BBX 13 14 2 -1
BITMAP
2120
4310
4710
8B08
8B08
9308
9308
A308
BFC8
8308
8308
4790
4010
2020
ENDCHAR
STARTCHAR uni2478
ENCODING 9336
SWIDTH 1024 0
DWIDTH 16 0
BBX 13 14 2 -1
BITMAP
2020
4010
5FD0
9F88
9008
9708
9D88
90C8
80C8
98C8
8D88
4710
4010
2020
ENDCHAR
STARTCHAR uni2479
ENCODING 9337
SWIDTH 1024 0
DWIDTH 16 0
BBX 13 14 2 -1
BITMAP
2020
4790
4CD0
9848
9808
9B08
9D88
9CC8
98C8
98C8
8D88
4710
4010
2020
ENDCHAR
STARTCHAR uni247A
ENCODING 9338
SWIDTH 1024 0
DWIDTH 16 0
BBX 13 14 2 -1
BITMAP
2020
4010
5FD0
9FC8
90C8
8088
8188
8188
8308
8608
8C08
4C10
4810
2020
ENDCHAR
STARTCHAR uni247B
ENCODING 9339
SWIDTH 1024 0
DWIDTH 16 0
BBX 13 14 2 -1
BITMAP
2020
4710
4D90
98C8
98C8
8D88
8708
8D88
98C8
98C8
8D88
4710
4010
2020
ENDCHAR
STARTCHAR uni247C
ENCODING 9340
SWIDTH 1024 0
DWIDTH 16 0
BBX 13 14 2 -1
BITMAP
2020
4010
4710
8D88
98C8
98C8
98C8
8DC8
82C8
98C8
8D88
4710
4010
2020
ENDCHAR
STARTCHAR uni247D
ENCODING 9341
SWIDTH 1024 0
DWIDTH 16 0
BBX 13 14 2 -1
BITMAP
2020
49D0
7B70
9B68
9B68
9B68
9B68
9B68
9B68
9B68
9B68
7DD0
4010
2020
ENDCHAR
STARTCHAR uni247E
ENCODING 9342
SWIDTH 1024 0
DWIDTH 16 0
BBX 13 14 2 -1
BITMAP
2020
4850
79D0
98C8
98C8
98C8
98C8
98C8
98C8
98C8
98C8
7DF0
4010
2020
ENDCHAR
STARTCHAR uni247F
ENCODING 9343
SWIDTH 1024 0
DWIDTH 16 0
BBX 13 14 2 -1
BITMAP
2020
49D0
7B70
9E68
9A68
9868
98C8
98C8
9988
9988
9B28
7FF0
4010
2020
ENDCHAR
STARTCHAR uni2480
ENCODING 9344
SWIDTH 1024 0
DWIDTH 16 0
BBX 13 14 2 -1
BITMAP
2020
49D0
7B70
9E68
9A68
98E8
98C8
9868
9A68
9E68
9B68
7DD0
4010
2020
ENDCHAR
STARTCHAR uni2481
ENCODING 9345
SWIDTH 1024 0
DWIDTH 16 0
BBX 13 14 2 -1
BITMAP
2020
4850
78D0
99C8
9BC8
9AC8
9EC8
9EC8
9FE8
98C8
98C8
7DF0
4010
2020
ENDCHAR
STARTCHAR uni2482
ENCODING 9346
SWIDTH 1024 0
DWIDTH 16 0
BBX 13 14 2 -1
BITMAP
2020
4810
7BF0
9B08
9B88
9AE8
9878
9938
9B38
9B38
9BE8
7DF0
4010
2020
ENDCHAR
STARTCHAR uni2483
ENCODING 9347
SWIDTH 1024 0
DWIDTH 16 0
BBX 13 14 2 -1
BITMAP
2020
49D0
7BF0
9B28
9B08
9BC8
9BE8
9B68
9B68
9B68
9BE8
7DD0
4010
2020
ENDCHAR
STARTCHAR uni2484
ENCODING 9348
SWIDTH 1024 0
DWIDTH 16 0
BBX 13 14 2 -1
BITMAP
2020
4810
7BF0
9868
9868
9868
98C8
98C8
98C8
9988
9988
7D90
4010
2020
ENDCHAR
STARTCHAR uni2485
ENCODING 9349
SWIDTH 1024 0
DWIDTH 16 0
BBX 13 14 2 -1
BITMAP
2020
49D0
7B70
9F68
9B68
9BE8
99C8
9B68
9B68
9F68
9B68
7DD0
4010
2020
ENDCHAR
STARTCHAR uni2486
ENCODING 9350
SWIDTH 1024 0
DWIDTH 16 0
BBX 13 14 2 -1
BITMAP
2020
49D0
7B70
9F68
9B68
9B68
99E8
9868
9968
9F68
9B68
7DD0
4010
2020
ENDCHAR
STARTCHAR uni2487
ENCODING 9351
SWIDTH 1024 0
DWIDTH 16 0
BBX 13 14 2 -1
BITMAP
2020
79D0
6F70
8F68
8F68
8F68
9B68
9B68
B368
B368
E768
7DD0
4010
2020
ENDCHAR
STARTCHAR uni2488
ENCODING 9352
SWIDTH 1024 0
DWIDTH 16 0
BBX 7 14 5 -1
BITMAP
20
E0
60
60
60
60
60
60
60
60
60
60
66
F6
ENDCHAR
STARTCHAR uni2489
ENCODING 9353
SWIDTH 1024 0
DWIDTH 16 0
BBX 10 14 3 -1
BITMAP
3800
6C00
C600
4600
0600
0400
0C00
1800
1000
3000
2000
6200
46C0
FEC0
ENDCHAR
STARTCHAR uni248A
ENCODING 9354
SWIDTH 1024 0
DWIDTH 16 0
BBX 10 15 3 -2
BITMAP
3800
6C00
C600
4600
0600
0400
0C00
3800
0C00
0400
4600
C600
46C0
6CC0
3800
ENDCHAR
STARTCHAR uni248B
ENCODING 9355
SWIDTH 1024 0
DWIDTH 16 0
BBX 10 14 2 -1
BITMAP
0400
0C00
1C00
2C00
2C00
4C00
4C00
4C00
FF80
0C00
0C00
0C00
0CC0
1EC0
ENDCHAR
STARTCHAR uni248C
ENCODING 9356
SWIDTH 1024 0
DWIDTH 16 0
BBX 10 14 4 -1
BITMAP
FE00
8600
8200
8000
8000
B800
CC00
8400
0600
0600
8600
8600
4CC0
38C0
ENDCHAR
STARTCHAR uni248D
ENCODING 9357
SWIDTH 1024 0
DWIDTH 16 0
BBX 11 14 3 -1
BITMAP
3E00
4700
C200
C000
C000
DC00
E600
C200
C300
C300
C300
C300
6660
3C60
ENDCHAR
STARTCHAR uni248E
ENCODING 9358
SWIDTH 1024 0
DWIDTH 16 0
BBX 9 14 3 -1
BITMAP
FF00
8600
0600
0600
0600
0600
0C00
1C00
1800
1800
3000
3000
3180
1180
ENDCHAR
STARTCHAR uni248F
ENCODING 9359
SWIDTH 1024 0
DWIDTH 16 0
BBX 10 14 3 -1
BITMAP
3800
6C00
C600
C600
C600
4400
2C00
3800
6C00
C600
C600
C600
6CC0
38C0
ENDCHAR
STARTCHAR uni2490
ENCODING 9360
SWIDTH 1024 0
DWIDTH 16 0
BBX 10 14 3 -1
BITMAP
3800
6C00
C600
C600
C600
C600
6E00
3600
0600
0600
8600
C600
6CC0
38C0
ENDCHAR
STARTCHAR uni2491
ENCODING 9361
SWIDTH 1024 0
DWIDTH 16 0
BBX 13 14 2 -1
BITMAP
2380
E6C0
6C60
6C60
6C60
6C60
6C60
6C60
6C60
6C60
6C60
6C60
66D8
F398
ENDCHAR
STARTCHAR uni2492
ENCODING 9362
SWIDTH 1024 0
DWIDTH 16 0
BBX 12 14 3 -1
BITMAP
2100
E700
6300
6300
6300
6300
6300
6300
6300
6300
6300
6300
6330
F7B0
ENDCHAR
STARTCHAR uni2493
ENCODING 9363
SWIDTH 1024 0
DWIDTH 16 0
BBX 14 14 2 -1
BITMAP
2380
E6C0
6C60
6C60
6460
6040
60C0
6080
6180
6100
6300
6220
666C
F7EC
ENDCHAR
STARTCHAR uni2494
ENCODING 9364
SWIDTH 1024 0
DWIDTH 16 0
BBX 14 14 2 -1
BITMAP
2380
E6C0
6C60
6C60
6460
6040
60C0
6380
61C0
6460
6C60
6C60
66CC
F38C
ENDCHAR
STARTCHAR uni2495
ENCODING 9365
SWIDTH 1024 0
DWIDTH 16 0
BBX 14 14 2 -1
BITMAP
2080
E180
6380
6380
6580
6580
6580
6980
6980
6980
7FE0
6180
618C
F3CC
ENDCHAR
STARTCHAR uni2496
ENCODING 9366
SWIDTH 1024 0
DWIDTH 16 0
BBX 14 14 2 -1
BITMAP
2FE0
E820
6800
6800
6800
6B80
6CC0
6860
6060
6060
6860
6C60
66CC
F38C
ENDCHAR
STARTCHAR uni2497
ENCODING 9367
SWIDTH 1024 0
DWIDTH 16 0
BBX 14 14 2 -1
BITMAP
23C0
E6E0
6C40
6800
6800
6B80
6EC0
6C60
6C60
6C60
6C60
6C60
66CC
F38C
ENDCHAR
STARTCHAR uni2498
ENCODING 9368
SWIDTH 1024 0
DWIDTH 16 0
BBX 11 14 2 -1
BITMAP
2FE0
E860
6040
60C0
6080
6180
6100
6300
6300
6200
6600
6600
6660
F460
ENDCHAR
STARTCHAR uni2499
ENCODING 9369
SWIDTH 1024 0
DWIDTH 16 0
BBX 14 14 2 -1
BITMAP
2380
E6C0
6C60
6C60
6C60
6440
62C0
6380
66C0
6C60
6C60
6C60
66CC
F38C
ENDCHAR
STARTCHAR uni249A
ENCODING 9370
SWIDTH 1024 0
DWIDTH 16 0
BBX 14 14 2 -1
BITMAP
2380
E6C0
6C60
6C60
6C60
6C60
66E0
6360
6060
6460
6C60
6C60
66CC
F38C
ENDCHAR
STARTCHAR uni249B
ENCODING 9371
SWIDTH 1024 0
DWIDTH 16 0
BBX 15 14 1 -1
BITMAP
38E0
6DB0
4DB0
CDB0
4DB0
0DB0
0DB0
09B0
19B0
19B0
31B0
31B0
65B6
7CE6
ENDCHAR
STARTCHAR uni249C
ENCODING 9372
SWIDTH 1024 0
DWIDTH 16 0
BBX 14 14 1 -1
BITMAP
3030
4008
8004
8004
8784
8844
8044
87C4
8844
8844
87B4
8004
4008
3030
ENDCHAR
STARTCHAR uni249D
ENCODING 9373
SWIDTH 1024 0
DWIDTH 16 0
BBX 14 14 1 -1
BITMAP
3030
4808
9804
8804
8B84
8C44
8824
8824
8824
8C44
9B84
8004
4008
3030
ENDCHAR
STARTCHAR uni249E
ENCODING 9374
SWIDTH 1024 0
DWIDTH 16 0
BBX 14 14 1 -1
BITMAP
3030
4008
8004
8004
8784
8844
9004
9004
9024
8844
8784
8004
4008
3030
ENDCHAR
STARTCHAR uni249F
ENCODING 9375
SWIDTH 1024 0
DWIDTH 16 0
BBX 14 14 1 -1
BITMAP
3030
4048
80C4
8044
8744
88C4
9044
9044
9044
88C4
8764
8004
4008
3030
ENDCHAR
STARTCHAR uni24A0
ENCODING 9376
SWIDTH 1024 0
DWIDTH 16 0
BBX 14 14 1 -1
BITMAP
3030
4008
8004
8004
8F84
9044
9044
9FC4
9004
9044
8F84
8004
4008
3030
ENDCHAR
STARTCHAR uni24A1
ENCODING 9377
SWIDTH 1024 0
DWIDTH 16 0
BBX 14 14 1 -1
BITMAP
3030
4188
82C4
8204
8F84
8204
8204
8204
8204
8204
8704
8004
4008
3030
ENDCHAR
STARTCHAR uni24A2
ENCODING 9378
SWIDTH 1024 0
DWIDTH 16 0
BBX 14 14 1 -1
BITMAP
3030
4008
8004
8064
8784
8844
8844
9F84
9004
8FC4
9024
9024
4FC8
3030
ENDCHAR
STARTCHAR uni24A3
ENCODING 9379
SWIDTH 1024 0
DWIDTH 16 0
BBX 14 14 1 -1
BITMAP
3030
4808
9804
8804
89C4
8E44
8844
8844
8844
8844
9CE4
8004
4008
3030
ENDCHAR
STARTCHAR uni24A4
ENCODING 9380
SWIDTH 1024 0
DWIDTH 16 0
BBX 14 14 1 -1
BITMAP
3130
4108
8004
8004
8104
8304
8104
8104
8104
8104
8384
8004
4008
3030
ENDCHAR
STARTCHAR uni24A5
ENCODING 9381
SWIDTH 1024 0
DWIDTH 16 0
BBX 14 14 1 -1
BITMAP
3130
4108
8004
8004
8104
8304
8104
8104
8104
8104
8104
8904
4608
3030
ENDCHAR
STARTCHAR uni24A6
ENCODING 9382
SWIDTH 1024 0
DWIDTH 16 0
BBX 14 14 1 -1
BITMAP
3030
4808
9804
8804
89C4
8884
8904
8F04
8984
88C4
9CE4
8004
4008
3030
ENDCHAR
STARTCHAR uni24A7
ENCODING 9383
SWIDTH 1024 0
DWIDTH 16 0
BBX 14 14 1 -1
BITMAP
3030
4208
8604
8204
8204
8204
8204
8204
8204
8204
8704
8004
4008
3030
ENDCHAR
STARTCHAR uni24A8
ENCODING 9384
SWIDTH 1024 0
DWIDTH 16 0
BBX 14 14 1 -1
BITMAP
3030
4008
8004
8004
96C4
BB44
9244
9244
9244
9244
BB64
8004
4008
3030
ENDCHAR
STARTCHAR uni24A9
ENCODING 9385
SWIDTH 1024 0
DWIDTH 16 0
BBX 14 14 1 -1
BITMAP
3030
4008
8004
8004
89C4
9E44
8844
8844
8844
8844
9CE4
8004
4008
3030
ENDCHAR
STARTCHAR uni24AA
ENCODING 9386
SWIDTH 1024 0
DWIDTH 16 0
BBX 14 14 1 -1
BITMAP
3030
4008
8004
8004
8F84
9044
9044
9044
9044
9044
8F84
8004
4008
3030
ENDCHAR
STARTCHAR uni24AB
ENCODING 9387
SWIDTH 1024 0
DWIDTH 16 0
BBX 14 14 1 -1
BITMAP
3030
4008
8004
8004
8B84
9C44
8824
8824
8824
8C44
8B84
8804
5C08
3030
ENDCHAR
STARTCHAR uni24AC
ENCODING 9388
SWIDTH 1024 0
DWIDTH 16 0
BBX 14 14 1 -1
BITMAP
3030
4008
8004
8004
8744
88C4
9044
9044
9044
88C4
8744
8044
40E8
3030
ENDCHAR
STARTCHAR uni24AD
ENCODING 9389
SWIDTH 1024 0
DWIDTH 16 0
BBX 14 14 1 -1
BITMAP
3030
4008
8004
8004
89C4
9E64
8804
8804
8804
8804
9C04
8004
4008
3030
ENDCHAR
STARTCHAR uni24AE
ENCODING 9390
SWIDTH 1024 0
DWIDTH 16 0
BBX 14 14 1 -1
BITMAP
3030
4008
8004
8004
87C4
8824
8804
87C4
8024
8824
87C4
8004
4008
3030
ENDCHAR
STARTCHAR uni24AF
ENCODING 9391
SWIDTH 1024 0
DWIDTH 16 0
BBX 14 14 1 -1
BITMAP
3030
4008
8004
8204
8204
8F84
8204
8204
8204
8244
8384
8004
4008
3030
ENDCHAR
STARTCHAR uni24B0
ENCODING 9392
SWIDTH 1024 0
DWIDTH 16 0
BBX 14 14 1 -1
BITMAP
3030
4008
8004
8004
8844
98C4
8844
8844
8844
88C4
8F64
8004
4008
3030
ENDCHAR
STARTCHAR uni24B1
ENCODING 9393
SWIDTH 1024 0
DWIDTH 16 0
BBX 14 14 1 -1
BITMAP
3030
4008
8004
8004
9C74
8824
8444
8444
8284
8284
8104
8004
4008
3030
ENDCHAR
STARTCHAR uni24B2
ENCODING 9394
SWIDTH 1024 0
DWIDTH 16 0
BBX 14 14 1 -1
BITMAP
3030
4008
8004
8004
BF74
9224
9224
8944
8B44
8484
8484
8004
4008
3030
ENDCHAR
STARTCHAR uni24B3
ENCODING 9395
SWIDTH 1024 0
DWIDTH 16 0
BBX 14 14 1 -1
BITMAP
3030
4008
8004
8004
9CE4
8844
8484
8304
8484
8844
9CE4
8004
4008
3030
ENDCHAR
STARTCHAR uni24B4
ENCODING 9396
SWIDTH 1024 0
DWIDTH 16 0
BBX 14 14 1 -1
BITMAP
3030
4008
8004
8004
B8E4
9044
8884
8504
8204
8204
8704
8004
4008
3030
ENDCHAR
STARTCHAR uni24B5
ENCODING 9397
SWIDTH 1024 0
DWIDTH 16 0
BBX 14 14 1 -1
BITMAP
3030
4008
8004
8004
87E4
8444
8884
8104
8204
8424
8FC4
8004
4008
3030
ENDCHAR
STARTCHAR uni24D0
ENCODING 9424
SWIDTH 1024 0
DWIDTH 16 0
BBX 14 14 1 -1
BITMAP
1FE0
2010
4008
8004
8F84
9044
8044
8FC4
9044
9044
8FB4
4008
2010
1FE0
ENDCHAR
STARTCHAR uni24D1
ENCODING 9425
SWIDTH 1024 0
DWIDTH 16 0
BBX 14 14 1 -1
BITMAP
1FE0
2810
5808
8804
8B84
8C44
8824
8824
8824
8C44
9B84
4008
2010
1FE0
ENDCHAR
STARTCHAR uni24D2
ENCODING 9426
SWIDTH 1024 0
DWIDTH 16 0
BBX 14 14 1 -1
BITMAP
1FE0
2010
4008
8004
8784
8844
9004
9004
9004
8864
8784
4008
2010
1FE0
ENDCHAR
STARTCHAR uni24D3
ENCODING 9427
SWIDTH 1024 0
DWIDTH 16 0
BBX 14 14 1 -1
BITMAP
1FE0
2050
40C8
8044
8744
88C4
9044
9044
9044
9044
8FA4
4008
2010
1FE0
ENDCHAR
STARTCHAR uni24D4
ENCODING 9428
SWIDTH 1024 0
DWIDTH 16 0
BBX 14 14 1 -1
BITMAP
1FE0
2010
4008
8004
8784
8844
9024
9FE4
9004
8824
87C4
4008
2010
1FE0
ENDCHAR
STARTCHAR uni24D5
ENCODING 9429
SWIDTH 1024 0
DWIDTH 16 0
BBX 14 14 1 -1
BITMAP
1FE0
2390
42C8
8204
8F84
8204
8204
8204
8204
8204
8704
4008
2010
1FE0
ENDCHAR
STARTCHAR uni24D6
ENCODING 9430
SWIDTH 1024 0
DWIDTH 16 0
BBX 14 14 1 -1
BITMAP
1FE0
2010
4008
80C4
8784
8844
8844
8F84
9004
9FC4
9024
5028
2FD0
1FE0
ENDCHAR
STARTCHAR uni24D7
ENCODING 9431
SWIDTH 1024 0
DWIDTH 16 0
BBX 14 14 1 -1
BITMAP
1FE0
2810
5808
8804
8BC4
8C44
8844
8844
8844
8844
9CE4
4008
2010
1FE0
ENDCHAR
STARTCHAR uni24D8
ENCODING 9432
SWIDTH 1024 0
DWIDTH 16 0
BBX 14 14 1 -1
BITMAP
1FE0
2110
4108
8004
8104
8304
8104
8104
8104
8104
8384
4008
2010
1FE0
ENDCHAR
STARTCHAR uni24D9
ENCODING 9433
SWIDTH 1024 0
DWIDTH 16 0
BBX 14 14 1 -1
BITMAP
1FE0
2110
4108
8004
8104
8304
8104
8104
8104
8104
8104
5908
2610
1FE0
ENDCHAR
STARTCHAR uni24DA
ENCODING 9434
SWIDTH 1024 0
DWIDTH 16 0
BBX 14 14 1 -1
BITMAP
1FE0
2810
5808
8804
89E4
8884
8B04
8D84
88C4
8864
9CF4
4008
2010
1FE0
ENDCHAR
STARTCHAR uni24DB
ENCODING 9435
SWIDTH 1024 0
DWIDTH 16 0
BBX 14 14 1 -1
BITMAP
1FE0
2210
4608
8204
8204
8204
8204
8204
8204
8204
8704
4008
2010
1FE0
ENDCHAR
STARTCHAR uni24DC
ENCODING 9436
SWIDTH 1024 0
DWIDTH 16 0
BBX 14 14 1 -1
BITMAP
1FE0
2010
4008
8004
96C4
BB44
9244
9244
9244
9244
BB64
4008
2010
1FE0
ENDCHAR
STARTCHAR uni24DD
ENCODING 9437
SWIDTH 1024 0
DWIDTH 16 0
BBX 14 14 1 -1
BITMAP
1FE0
2010
4008
8004
8BC4
9C44
8844
8844
8844
8844
9CE4
4008
2010
1FE0
ENDCHAR
STARTCHAR uni24DE
ENCODING 9438
SWIDTH 1024 0
DWIDTH 16 0
BBX 14 14 1 -1
BITMAP
1FE0
2010
4008
8004
87C4
8824
8824
8824
8824
8824
87C4
4008
2010
1FE0
ENDCHAR
STARTCHAR uni24DF
ENCODING 9439
SWIDTH 1024 0
DWIDTH 16 0
BBX 14 14 1 -1
BITMAP
1FE0
2010
4008
8004
8B84
9C44
8824
8824
8824
8C44
8B84
4808
2810
1FE0
ENDCHAR
STARTCHAR uni24E0
ENCODING 9440
SWIDTH 1024 0
DWIDTH 16 0
BBX 14 14 1 -1
BITMAP
1FE0
2010
4008
8004
8744
88C4
9044
9044
9044
88C4
8744
4048
2050
1FE0
ENDCHAR
STARTCHAR uni24E1
ENCODING 9441
SWIDTH 1024 0
DWIDTH 16 0
BBX 14 14 1 -1
BITMAP
1FE0
2010
4008
8004
89C4
9E64
8804
8804
8804
8804
9C04
4008
2010
1FE0
ENDCHAR
STARTCHAR uni24E2
ENCODING 9442
SWIDTH 1024 0
DWIDTH 16 0
BBX 14 14 1 -1
BITMAP
1FE0
2010
4008
8004
87C4
8824
8C04
8384
8064
8824
87C4
4008
2010
1FE0
ENDCHAR
STARTCHAR uni24E3
ENCODING 9443
SWIDTH 1024 0
DWIDTH 16 0
BBX 14 14 1 -1
BITMAP
1FE0
2010
4008
8204
8204
8F84
8204
8204
8204
8244
8384
4008
2010
1FE0
ENDCHAR
STARTCHAR uni24E4
ENCODING 9444
SWIDTH 1024 0
DWIDTH 16 0
BBX 14 14 1 -1
BITMAP
1FE0
2010
4008
8004
8844
98C4
8844
8844
8844
8844
8FA4
4008
2010
1FE0
ENDCHAR
STARTCHAR uni24E5
ENCODING 9445
SWIDTH 1024 0
DWIDTH 16 0
BBX 14 14 1 -1
BITMAP
1FE0
2010
4008
8004
9C74
8824
8444
8444
8284
8284
8104
4008
2010
1FE0
ENDCHAR
STARTCHAR uni24E6
ENCODING 9446
SWIDTH 1024 0
DWIDTH 16 0
BBX 14 14 1 -1
BITMAP
1FE0
2010
4008
8004
F774
A224
A224
9344
9544
8884
8884
4008
2010
1FE0
ENDCHAR
STARTCHAR uni24E7
ENCODING 9447
SWIDTH 1024 0
DWIDTH 16 0
BBX 14 14 1 -1
BITMAP
1FE0
2010
4008
8004
B8E4
8884
8504
8204
8504
8884
B8E4
4008
2010
1FE0
ENDCHAR
STARTCHAR uni24E8
ENCODING 9448
SWIDTH 1024 0
DWIDTH 16 0
BBX 14 14 1 -1
BITMAP
1FE0
2010
4008
8004
B8E4
9044
8884
8504
8204
8204
8704
4008
2010
1FE0
ENDCHAR
STARTCHAR uni24E9
ENCODING 9449
SWIDTH 1024 0
DWIDTH 16 0
BBX 14 14 1 -1
BITMAP
1FE0
2010
4008
8004
8FC4
8844
9084
8304
8404
8844
9F84
4008
2010
1FE0
ENDCHAR
STARTCHAR SF100000
ENCODING 9472
SWIDTH 1024 0
DWIDTH 16 0
BBX 16 1 0 6
BITMAP
FFFF
ENDCHAR
STARTCHAR uni2501
ENCODING 9473
SWIDTH 1024 0
DWIDTH 16 0
BBX 16 2 0 5
BITMAP
FFFF
FFFF
ENDCHAR
STARTCHAR SF110000
ENCODING 9474
SWIDTH 1024 0
DWIDTH 16 0
BBX 1 16 7 -2
BITMAP
80
80
80
80
80
80
80
80
80
80
80
80
80
80
80
80
ENDCHAR
STARTCHAR uni2503
ENCODING 9475
SWIDTH 1024 0
DWIDTH 16 0
BBX 2 16 7 -2
BITMAP
C0
C0
C0
C0
C0
C0
C0
C0
C0
C0
C0
C0
C0
C0
C0
C0
ENDCHAR
STARTCHAR uni2504
ENCODING 9476
SWIDTH 1024 0
DWIDTH 16 0
BBX 13 1 1 6
BITMAP
E738
ENDCHAR
STARTCHAR uni2505
ENCODING 9477
SWIDTH 1024 0
DWIDTH 16 0
BBX 13 2 1 5
BITMAP
E738
E738
ENDCHAR
STARTCHAR uni2506
ENCODING 9478
SWIDTH 1024 0
DWIDTH 16 0
BBX 1 13 7 0
BITMAP
80
80
80
00
00
80
80
80
00
00
80
80
80
ENDCHAR
STARTCHAR uni2507
ENCODING 9479
SWIDTH 1024 0
DWIDTH 16 0
BBX 2 13 7 0
BITMAP
C0
C0
C0
00
00
C0
C0
C0
00
00
C0
C0
C0
ENDCHAR
STARTCHAR uni2508
ENCODING 9480
SWIDTH 1024 0
DWIDTH 16 0
BBX 15 1 0 6
BITMAP
EEEE
ENDCHAR
STARTCHAR uni2509
ENCODING 9481
SWIDTH 1024 0
DWIDTH 16 0
BBX 15 2 0 5
BITMAP
EEEE
EEEE
ENDCHAR
STARTCHAR uni250A
ENCODING 9482
SWIDTH 1024 0
DWIDTH 16 0
BBX 1 15 7 -1
BITMAP
80
80
80
00
80
80
80
00
80
80
80
00
80
80
80
ENDCHAR
STARTCHAR uni250B
ENCODING 9483
SWIDTH 1024 0
DWIDTH 16 0
BBX 2 15 7 -1
BITMAP
C0
C0
C0
00
C0
C0
C0
00
C0
C0
C0
00
C0
C0
C0
ENDCHAR
STARTCHAR SF010000
ENCODING 9484
SWIDTH 1024 0
DWIDTH 16 0
BBX 9 9 7 -2
BITMAP
FF80
8000
8000
8000
8000
8000
8000
8000
8000
ENDCHAR
STARTCHAR uni250D
ENCODING 9485
SWIDTH 1024 0
DWIDTH 16 0
BBX 9 9 7 -2
BITMAP
FF80
FF80
8000
8000
8000
8000
8000
8000
8000
ENDCHAR
STARTCHAR uni250E
ENCODING 9486
SWIDTH 1024 0
DWIDTH 16 0
BBX 9 9 7 -2
BITMAP
FF80
C000
C000
C000
C000
C000
C000
C000
C000
ENDCHAR
STARTCHAR uni250F
ENCODING 9487
SWIDTH 1024 0
DWIDTH 16 0
BBX 9 9 7 -2
BITMAP
FF80
FF80
C000
C000
C000
C000
C000
C000
C000
ENDCHAR
STARTCHAR SF030000
ENCODING 9488
SWIDTH 1024 0
DWIDTH 16 0
BBX 8 9 0 -2
BITMAP
FF
01
01
01
01
01
01
01
01
ENDCHAR
STARTCHAR uni2511
ENCODING 9489
SWIDTH 1024 0
DWIDTH 16 0
BBX 8 9 0 -2
BITMAP
FF
FF
01
01
01
01
01
01
01
ENDCHAR
STARTCHAR uni2512
ENCODING 9490
SWIDTH 1024 0
DWIDTH 16 0
BBX 9 9 0 -2
BITMAP
FF80
0180
0180
0180
0180
0180
0180
0180
0180
ENDCHAR
STARTCHAR uni2513
ENCODING 9491
SWIDTH 1024 0
DWIDTH 16 0
BBX 9 9 0 -2
BITMAP
FF80
FF80
0180
0180
0180
0180
0180
0180
0180
ENDCHAR
STARTCHAR SF020000
ENCODING 9492
SWIDTH 1024 0
DWIDTH 16 0
BBX 9 8 7 6
BITMAP
8000
8000
8000
8000
8000
8000
8000
FF80
ENDCHAR
STARTCHAR uni2515
ENCODING 9493
SWIDTH 1024 0
DWIDTH 16 0
BBX 9 9 7 5
BITMAP
8000
8000
8000
8000
8000
8000
8000
FF80
FF80
ENDCHAR
STARTCHAR uni2516
ENCODING 9494
SWIDTH 1024 0
DWIDTH 16 0
BBX 10 8 6 6
BITMAP
C000
C000
C000
C000
C000
C000
C000
FFC0
ENDCHAR
STARTCHAR uni2517
ENCODING 9495
SWIDTH 1024 0
DWIDTH 16 0
BBX 9 9 7 5
BITMAP
C000
C000
C000
C000
C000
C000
C000
FF80
FF80
ENDCHAR
STARTCHAR SF040000
ENCODING 9496
SWIDTH 1024 0
DWIDTH 16 0
BBX 8 8 0 6
BITMAP
01
01
01
01
01
01
01
FF
ENDCHAR
STARTCHAR uni2519
ENCODING 9497
SWIDTH 1024 0
DWIDTH 16 0
BBX 8 9 0 5
BITMAP
01
01
01
01
01
01
01
FF
FF
ENDCHAR
STARTCHAR uni251A
ENCODING 9498
SWIDTH 1024 0
DWIDTH 16 0
BBX 9 8 0 6
BITMAP
0180
0180
0180
0180
0180
0180
0180
FF80
ENDCHAR
STARTCHAR uni251B
ENCODING 9499
SWIDTH 1024 0
DWIDTH 16 0
BBX 9 9 0 5
BITMAP
0180
0180
0180
0180
0180
0180
0180
FF80
FF80
ENDCHAR
STARTCHAR SF080000
ENCODING 9500
SWIDTH 1024 0
DWIDTH 16 0
BBX 9 16 7 -2
BITMAP
8000
8000
8000
8000
8000
8000
8000
FF80
8000
8000
8000
8000
8000
8000
8000
8000
ENDCHAR
STARTCHAR uni251D
ENCODING 9501
SWIDTH 1024 0
DWIDTH 16 0
BBX 9 16 7 -2
BITMAP
8000
8000
8000
8000
8000
8000
8000
FF80
FF80
8000
8000
8000
8000
8000
8000
8000
ENDCHAR
STARTCHAR uni251E
ENCODING 9502
SWIDTH 1024 0
DWIDTH 16 0
BBX 9 16 7 -2
BITMAP
C000
C000
C000
C000
C000
C000
C000
FF80
8000
8000
8000
8000
8000
8000
8000
8000
ENDCHAR
STARTCHAR uni251F
ENCODING 9503
SWIDTH 1024 0
DWIDTH 16 0
BBX 9 16 7 -2
BITMAP
8000
8000
8000
8000
8000
8000
8000
FF80
C000
C000
C000
C000
C000
C000
C000
C000
ENDCHAR
STARTCHAR uni2520
ENCODING 9504
SWIDTH 1024 0
DWIDTH 16 0
BBX 9 16 7 -2
BITMAP
C000
C000
C000
C000
C000
C000
C000
FF80
C000
C000
C000
C000
C000
C000
C000
C000
ENDCHAR
STARTCHAR uni2521
ENCODING 9505
SWIDTH 1024 0
DWIDTH 16 0
BBX 9 16 7 -2
BITMAP
C000
C000
C000
C000
C000
C000
C000
FF80
FF80
8000
8000
8000
8000
8000
8000
8000
ENDCHAR
STARTCHAR uni2522
ENCODING 9506
SWIDTH 1024 0
DWIDTH 16 0
BBX 9 16 7 -2
BITMAP
8000
8000
8000
8000
8000
8000
8000
FF80
FF80
C000
C000
C000
C000
C000
C000
C000
ENDCHAR
STARTCHAR uni2523
ENCODING 9507
SWIDTH 1024 0
DWIDTH 16 0
BBX 9 16 7 -2
BITMAP
C000
C000
C000
C000
C000
C000
C000
FF80
FF80
C000
C000
C000
C000
C000
C000
C000
ENDCHAR
STARTCHAR SF090000
ENCODING 9508
SWIDTH 1024 0
DWIDTH 16 0
BBX 8 16 0 -2
BITMAP
01
01
01
01
01
01
01
FF
01
01
01
01
01
01
01
01
ENDCHAR
STARTCHAR uni2525
ENCODING 9509
SWIDTH 1024 0
DWIDTH 16 0
BBX 8 16 0 -2
BITMAP
01
01
01
01
01
01
01
FF
FF
01
01
01
01
01
01
01
ENDCHAR
STARTCHAR uni2526
ENCODING 9510
SWIDTH 1024 0
DWIDTH 16 0
BBX 9 16 0 -2
BITMAP
0180
0180
0180
0180
0180
0180
0180
FF80
0100
0100
0100
0100
0100
0100
0100
0100
ENDCHAR
STARTCHAR uni2527
ENCODING 9511
SWIDTH 1024 0
DWIDTH 16 0
BBX 9 16 0 -2
BITMAP
0100
0100
0100
0100
0100
0100
0100
FF80
0180
0180
0180
0180
0180
0180
0180
0180
ENDCHAR
STARTCHAR uni2528
ENCODING 9512
SWIDTH 1024 0
DWIDTH 16 0
BBX 9 16 0 -2
BITMAP
0180
0180
0180
0180
0180
0180
0180
FF80
0180
0180
0180
0180
0180
0180
0180
0180
ENDCHAR
STARTCHAR uni2529
ENCODING 9513
SWIDTH 1024 0
DWIDTH 16 0
BBX 9 16 0 -2
BITMAP
0180
0180
0180
0180
0180
0180
0180
FF80
FF80
0100
0100
0100
0100
0100
0100
0100
ENDCHAR
STARTCHAR uni252A
ENCODING 9514
SWIDTH 1024 0
DWIDTH 16 0
BBX 9 16 0 -2
BITMAP
0100
0100
0100
0100
0100
0100
0100
FF80
FF80
0180
0180
0180
0180
0180
0180
0180
ENDCHAR
STARTCHAR uni252B
ENCODING 9515
SWIDTH 1024 0
DWIDTH 16 0
BBX 9 16 0 -2
BITMAP
0180
0180
0180
0180
0180
0180
0180
FF80
FF80
0180
0180
0180
0180
0180
0180
0180
ENDCHAR
STARTCHAR SF060000
ENCODING 9516
SWIDTH 1024 0
DWIDTH 16 0
BBX 16 9 0 -2
BITMAP
FFFF
0100
0100
0100
0100
0100
0100
0100
0100
ENDCHAR
STARTCHAR uni252D
ENCODING 9517
SWIDTH 1024 0
DWIDTH 16 0
BBX 16 9 0 -2
BITMAP
FFFF
FF00
0100
0100
0100
0100
0100
0100
0100
ENDCHAR
STARTCHAR uni252E
ENCODING 9518
SWIDTH 1024 0
DWIDTH 16 0
BBX 16 9 0 -2
BITMAP
FFFF
01FF
0100
0100
0100
0100
0100
0100
0100
ENDCHAR
STARTCHAR uni252F
ENCODING 9519
SWIDTH 1024 0
DWIDTH 16 0
BBX 16 9 0 -2
BITMAP
FFFF
FFFF
0100
0100
0100
0100
0100
0100
0100
ENDCHAR
STARTCHAR uni2530
ENCODING 9520
SWIDTH 1024 0
DWIDTH 16 0
BBX 16 9 0 -2
BITMAP
FFFF
0300
0300
0300
0300
0300
0300
0300
0300
ENDCHAR
STARTCHAR uni2531
ENCODING 9521
SWIDTH 1024 0
DWIDTH 16 0
BBX 16 9 0 -2
BITMAP
FFFF
FF00
0300
0300
0300
0300
0300
0300
0300
ENDCHAR
STARTCHAR uni2532
ENCODING 9522
SWIDTH 1024 0
DWIDTH 16 0
BBX 16 9 0 -2
BITMAP
FFFF
01FF
0180
0180
0180
0180
0180
0180
0180
ENDCHAR
STARTCHAR uni2533
ENCODING 9523
SWIDTH 1024 0
DWIDTH 16 0
BBX 16 9 0 -2
BITMAP
FFFF
FFFF
0180
0180
0180
0180
0180
0180
0180
ENDCHAR
STARTCHAR SF070000
ENCODING 9524
SWIDTH 1024 0
DWIDTH 16 0
BBX 16 8 0 6
BITMAP
0100
0100
0100
0100
0100
0100
0100
FFFF
ENDCHAR
STARTCHAR uni2535
ENCODING 9525
SWIDTH 1024 0
DWIDTH 16 0
BBX 16 9 0 5
BITMAP
0100
0100
0100
0100
0100
0100
0100
FFFF
FF00
ENDCHAR
STARTCHAR uni2536
ENCODING 9526
SWIDTH 1024 0
DWIDTH 16 0
BBX 16 9 0 5
BITMAP
0100
0100
0100
0100
0100
0100
0100
FFFF
01FF
ENDCHAR
STARTCHAR uni2537
ENCODING 9527
SWIDTH 1024 0
DWIDTH 16 0
BBX 16 9 0 5
BITMAP
0100
0100
0100
0100
0100
0100
0100
FFFF
FFFF
ENDCHAR
STARTCHAR uni2538
ENCODING 9528
SWIDTH 1024 0
DWIDTH 16 0
BBX 16 8 0 6
BITMAP
0180
0180
0180
0180
0180
0180
0180
FFFF
ENDCHAR
STARTCHAR uni2539
ENCODING 9529
SWIDTH 1024 0
DWIDTH 16 0
BBX 16 9 0 5
BITMAP
0180
0180
0180
0180
0180
0180
0180
FFFF
FF80
ENDCHAR
STARTCHAR uni253A
ENCODING 9530
SWIDTH 1024 0
DWIDTH 16 0
BBX 16 9 0 5
BITMAP
0180
0180
0180
0180
0180
0180
0180
FFFF
01FF
ENDCHAR
STARTCHAR uni253B
ENCODING 9531
SWIDTH 1024 0
DWIDTH 16 0
BBX 16 9 0 5
BITMAP
0180
0180
0180
0180
0180
0180
0180
FFFF
FFFF
ENDCHAR
STARTCHAR SF050000
ENCODING 9532
SWIDTH 1024 0
DWIDTH 16 0
BBX 16 16 0 -2
BITMAP
0100
0100
0100
0100
0100
0100
0100
FFFF
0100
0100
0100
0100
0100
0100
0100
0100
ENDCHAR
STARTCHAR uni253D
ENCODING 9533
SWIDTH 1024 0
DWIDTH 16 0
BBX 16 16 0 -2
BITMAP
0100
0100
0100
0100
0100
0100
0100
FFFF
FF00
0100
0100
0100
0100
0100
0100
0100
ENDCHAR
STARTCHAR uni253E
ENCODING 9534
SWIDTH 1024 0
DWIDTH 16 0
BBX 16 16 0 -2
BITMAP
0100
0100
0100
0100
0100
0100
0100
FFFF
01FF
0100
0100
0100
0100
0100
0100
0100
ENDCHAR
STARTCHAR uni253F
ENCODING 9535
SWIDTH 1024 0
DWIDTH 16 0
BBX 16 16 0 -2
BITMAP
0100
0100
0100
0100
0100
0100
0100
FFFF
FFFF
0100
0100
0100
0100
0100
0100
0100
ENDCHAR
STARTCHAR uni2540
ENCODING 9536
SWIDTH 1024 0
DWIDTH 16 0
BBX 16 16 0 -2
BITMAP
0180
0180
0180
0180
0180
0180
0180
FFFF
0100
0100
0100
0100
0100
0100
0100
0100
ENDCHAR
STARTCHAR uni2541
ENCODING 9537
SWIDTH 1024 0
DWIDTH 16 0
BBX 16 16 0 -2
BITMAP
0100
0100
0100
0100
0100
0100
0100
FFFF
0180
0180
0180
0180
0180
0180
0180
0180
ENDCHAR
STARTCHAR uni2542
ENCODING 9538
SWIDTH 1024 0
DWIDTH 16 0
BBX 16 16 0 -2
BITMAP
0180
0180
0180
0180
0180
0180
0180
FFFF
0180
0180
0180
0180
0180
0180
0180
0180
ENDCHAR
STARTCHAR uni2543
ENCODING 9539
SWIDTH 1024 0
DWIDTH 16 0
BBX 16 16 0 -2
BITMAP
0180
0180
0180
0180
0180
0180
0180
FFFF
FF80
0100
0100
0100
0100
0100
0100
0100
ENDCHAR
STARTCHAR uni2544
ENCODING 9540
SWIDTH 1024 0
DWIDTH 16 0
BBX 16 16 0 -2
BITMAP
0180
0180
0180
0180
0180
0180
0180
FFFF
01FF
0100
0100
0100
0100
0100
0100
0100
ENDCHAR
STARTCHAR uni2545
ENCODING 9541
SWIDTH 1024 0
DWIDTH 16 0
BBX 16 16 0 -2
BITMAP
0100
0100
0100
0100
0100
0100
0100
FFFF
FF80
0180
0180
0180
0180
0180
0180
0180
ENDCHAR
STARTCHAR uni2546
ENCODING 9542
SWIDTH 1024 0
DWIDTH 16 0
BBX 16 16 0 -2
BITMAP
0100
0100
0100
0100
0100
0100
0100
FFFF
01FF
0180
0180
0180
0180
0180
0180
0180
ENDCHAR
STARTCHAR uni2547
ENCODING 9543
SWIDTH 1024 0
DWIDTH 16 0
BBX 16 16 0 -2
BITMAP
0180
0180
0180
0180
0180
0180
0180
FFFF
FFFF
0100
0100
0100
0100
0100
0100
0100
ENDCHAR
STARTCHAR uni2548
ENCODING 9544
SWIDTH 1024 0
DWIDTH 16 0
BBX 16 16 0 -2
BITMAP
0100
0100
0100
0100
0100
0100
0100
FFFF
FFFF
0180
0180
0180
0180
0180
0180
0180
ENDCHAR
STARTCHAR uni2549
ENCODING 9545
SWIDTH 1024 0
DWIDTH 16 0
BBX 13 14 1 -1
BITMAP
0600
0600
0600
0600
0600
0600
FFF8
FE00
0600
0600
0600
0600
0600
0600
ENDCHAR
STARTCHAR uni254A
ENCODING 9546
SWIDTH 1024 0
DWIDTH 16 0
BBX 16 16 0 -2
BITMAP
0180
0180
0180
0180
0180
0180
0180
FFFF
01FF
0180
0180
0180
0180
0180
0180
0180
ENDCHAR
STARTCHAR uni254B
ENCODING 9547
SWIDTH 1024 0
DWIDTH 16 0
BBX 16 16 0 -2
BITMAP
0180
0180
0180
0180
0180
0180
0180
FFFF
FFFF
0180
0180
0180
0180
0180
0180
0180
ENDCHAR
STARTCHAR SF430000
ENCODING 9552
SWIDTH 1024 0
DWIDTH 16 0
BBX 16 6 0 3
BITMAP
FFFF
0000
0000
0000
0000
FFFF
ENDCHAR
STARTCHAR SF360000
ENCODING 9566
SWIDTH 1024 0
DWIDTH 16 0
BBX 8 15 8 -1
BITMAP
80
80
80
80
80
FF
80
80
80
80
FF
80
80
80
80
ENDCHAR
STARTCHAR SF190000
ENCODING 9569
SWIDTH 1024 0
DWIDTH 16 0
BBX 9 15 0 -1
BITMAP
0080
0080
0080
0080
0080
FF80
0080
0080
0080
0080
FF80
0080
0080
0080
0080
ENDCHAR
STARTCHAR SF540000
ENCODING 9578
SWIDTH 1024 0
DWIDTH 16 0
BBX 16 15 0 -1
BITMAP
0080
0080
0080
0080
0080
FFFF
0080
0080
0080
0080
FFFF
0080
0080
0080
0080
ENDCHAR
STARTCHAR uni256D
ENCODING 9581
SWIDTH 1024 0
DWIDTH 16 0
BBX 8 8 8 -1
BITMAP
07
18
20
40
40
80
80
80
ENDCHAR
STARTCHAR uni256E
ENCODING 9582
SWIDTH 1024 0
DWIDTH 16 0
BBX 9 8 0 -1
BITMAP
F000
0C00
0200
0100
0100
0080
0080
0080
ENDCHAR
STARTCHAR uni256F
ENCODING 9583
SWIDTH 1024 0
DWIDTH 16 0
BBX 9 8 0 6
BITMAP
0080
0080
0080
0100
0100
0200
0C00
F000
ENDCHAR
STARTCHAR uni2570
ENCODING 9584
SWIDTH 1024 0
DWIDTH 16 0
BBX 8 8 8 6
BITMAP
80
80
80
40
40
20
18
07
ENDCHAR
STARTCHAR uni2571
ENCODING 9585
SWIDTH 1024 0
DWIDTH 16 0
BBX 15 15 1 -1
BITMAP
0002
0004
0008
0010
0020
0040
0080
0100
0200
0400
0800
1000
2000
4000
8000
ENDCHAR
STARTCHAR uni2572
ENCODING 9586
SWIDTH 1024 0
DWIDTH 16 0
BBX 15 15 0 -1
BITMAP
8000
4000
2000
1000
0800
0400
0200
0100
0080
0040
0020
0010
0008
0004
0002
ENDCHAR
STARTCHAR uni2573
ENCODING 9587
SWIDTH 1024 0
DWIDTH 16 0
BBX 16 15 0 -1
BITMAP
8001
4002
2004
1008
0810
0420
0240
0180
0180
0240
0420
0810
1008
2004
4002
ENDCHAR
STARTCHAR uni2581
ENCODING 9601
SWIDTH 1024 0
DWIDTH 16 0
BBX 16 1 0 -1
BITMAP
FFFF
ENDCHAR
STARTCHAR uni2582
ENCODING 9602
SWIDTH 1024 0
DWIDTH 16 0
BBX 16 3 0 -1
BITMAP
FFFF
FFFF
FFFF
ENDCHAR
STARTCHAR uni2583
ENCODING 9603
SWIDTH 1024 0
DWIDTH 16 0
BBX 16 5 0 -1
BITMAP
FFFF
FFFF
FFFF
FFFF
FFFF
ENDCHAR
STARTCHAR dnblock
ENCODING 9604
SWIDTH 1024 0
DWIDTH 16 0
BBX 16 7 0 -1
BITMAP
FFFF
FFFF
FFFF
FFFF
FFFF
FFFF
FFFF
ENDCHAR
STARTCHAR uni2585
ENCODING 9605
SWIDTH 1024 0
DWIDTH 16 0
BBX 16 9 0 -1
BITMAP
FFFF
FFFF
FFFF
FFFF
FFFF
FFFF
FFFF
FFFF
FFFF
ENDCHAR
STARTCHAR uni2586
ENCODING 9606
SWIDTH 1024 0
DWIDTH 16 0
BBX 16 11 0 -1
BITMAP
FFFF
FFFF
FFFF
FFFF
FFFF
FFFF
FFFF
FFFF
FFFF
FFFF
FFFF
ENDCHAR
STARTCHAR uni2587
ENCODING 9607
SWIDTH 1024 0
DWIDTH 16 0
BBX 16 13 0 -1
BITMAP
FFFF
FFFF
FFFF
FFFF
FFFF
FFFF
FFFF
FFFF
FFFF
FFFF
FFFF
FFFF
FFFF
ENDCHAR
STARTCHAR block
ENCODING 9608
SWIDTH 1024 0
DWIDTH 16 0
BBX 16 15 0 -1
BITMAP
FFFF
FFFF
FFFF
FFFF
FFFF
FFFF
FFFF
FFFF
FFFF
FFFF
FFFF
FFFF
FFFF
FFFF
FFFF
ENDCHAR
STARTCHAR uni2589
ENCODING 9609
SWIDTH 1024 0
DWIDTH 16 0
BBX 14 15 0 -1
BITMAP
FFFC
FFFC
FFFC
FFFC
FFFC
FFFC
FFFC
FFFC
FFFC
FFFC
FFFC
FFFC
FFFC
FFFC
FFFC
ENDCHAR
STARTCHAR uni258A
ENCODING 9610
SWIDTH 1024 0
DWIDTH 16 0
BBX 12 15 0 -1
BITMAP
FFF0
FFF0
FFF0
FFF0
FFF0
FFF0
FFF0
FFF0
FFF0
FFF0
FFF0
FFF0
FFF0
FFF0
FFF0
ENDCHAR
STARTCHAR uni258B
ENCODING 9611
SWIDTH 1024 0
DWIDTH 16 0
BBX 10 15 0 -1
BITMAP
FFC0
FFC0
FFC0
FFC0
FFC0
FFC0
FFC0
FFC0
FFC0
FFC0
FFC0
FFC0
FFC0
FFC0
FFC0
ENDCHAR
STARTCHAR lfblock
ENCODING 9612
SWIDTH 1024 0
DWIDTH 16 0
BBX 8 15 0 -1
BITMAP
FF
FF
FF
FF
FF
FF
FF
FF
FF
FF
FF
FF
FF
FF
FF
ENDCHAR
STARTCHAR uni258D
ENCODING 9613
SWIDTH 1024 0
DWIDTH 16 0
BBX 6 15 0 -1
BITMAP
FC
FC
FC
FC
FC
FC
FC
FC
FC
FC
FC
FC
FC
FC
FC
ENDCHAR
STARTCHAR uni258E
ENCODING 9614
SWIDTH 1024 0
DWIDTH 16 0
BBX 4 15 0 -1
BITMAP
F0
F0
F0
F0
F0
F0
F0
F0
F0
F0
F0
F0
F0
F0
F0
ENDCHAR
STARTCHAR uni258F
ENCODING 9615
SWIDTH 1024 0
DWIDTH 16 0
BBX 2 15 0 -1
BITMAP
C0
C0
C0
C0
C0
C0
C0
C0
C0
C0
C0
C0
C0
C0
C0
ENDCHAR
STARTCHAR shade
ENCODING 9618
SWIDTH 1024 0
DWIDTH 16 0
BBX 11 11 2 1
BITMAP
FFE0
D6A0
8020
AAA0
8020
CAA0
8020
AAA0
C120
94A0
FFE0
ENDCHAR
STARTCHAR uni2594
ENCODING 9620
SWIDTH 1024 0
DWIDTH 16 0
BBX 16 2 0 12
BITMAP
FFFF
FFFF
ENDCHAR
STARTCHAR uni2595
ENCODING 9621
SWIDTH 1024 0
DWIDTH 16 0
BBX 2 15 14 -1
BITMAP
C0
C0
C0
C0
C0
C0
C0
C0
C0
C0
C0
C0
C0
C0
C0
ENDCHAR
STARTCHAR filledbox
ENCODING 9632
SWIDTH 1024 0
DWIDTH 16 0
BBX 12 12 3 0
BITMAP
FFF0
FFF0
FFF0
FFF0
FFF0
FFF0
FFF0
FFF0
FFF0
FFF0
FFF0
FFF0
ENDCHAR
STARTCHAR H22073
ENCODING 9633
SWIDTH 1024 0
DWIDTH 16 0
BBX 12 12 3 0
BITMAP
FFF0
8010
8010
8010
8010
8010
8010
8010
8010
8010
8010
FFF0
ENDCHAR
STARTCHAR uni25A3
ENCODING 9635
SWIDTH 1024 0
DWIDTH 16 0
BBX 11 11 2 1
BITMAP
FFE0
8020
8020
9F20
9F20
9F20
9F20
9F20
8020
8020
FFE0
ENDCHAR
STARTCHAR uni25A4
ENCODING 9636
SWIDTH 1024 0
DWIDTH 16 0
BBX 11 11 2 1
BITMAP
FFE0
8020
FFE0
8020
FFE0
8020
FFE0
8020
FFE0
8020
FFE0
ENDCHAR
STARTCHAR uni25A5
ENCODING 9637
SWIDTH 1024 0
DWIDTH 16 0
BBX 11 11 2 1
BITMAP
FFE0
AAA0
AAA0
AAA0
AAA0
AAA0
AAA0
AAA0
AAA0
AAA0
FFE0
ENDCHAR
STARTCHAR uni25A6
ENCODING 9638
SWIDTH 1024 0
DWIDTH 16 0
BBX 11 11 2 1
BITMAP
FFE0
AAA0
FFE0
AAA0
FFE0
AAA0
FFE0
AAA0
FFE0
AAA0
FFE0
ENDCHAR
STARTCHAR uni25A7
ENCODING 9639
SWIDTH 1024 0
DWIDTH 16 0
BBX 11 11 2 1
BITMAP
FFE0
C220
A120
90A0
8860
8420
C220
A120
90A0
8860
FFE0
ENDCHAR
STARTCHAR uni25A8
ENCODING 9640
SWIDTH 1024 0
DWIDTH 16 0
BBX 11 11 2 1
BITMAP
FFE0
8860
90A0
A120
C220
8420
8860
90A0
A120
C220
FFE0
ENDCHAR
STARTCHAR uni25A9
ENCODING 9641
SWIDTH 1024 0
DWIDTH 16 0
BBX 11 11 2 1
BITMAP
FFE0
CA60
B1A0
B1A0
CA60
8420
CA60
B1A0
B1A0
CA60
FFE0
ENDCHAR
STARTCHAR triagup
ENCODING 9650
SWIDTH 1024 0
DWIDTH 16 0
BBX 15 13 1 0
BITMAP
0100
0380
0380
07C0
07C0
0FE0
0FE0
1FF0
1FF0
3FF8
3FF8
7FFC
FFFE
ENDCHAR
STARTCHAR uni25B3
ENCODING 9651
SWIDTH 1024 0
DWIDTH 16 0
BBX 15 13 1 0
BITMAP
0100
0380
0280
0440
0440
0820
0820
1010
1010
2008
2008
4004
FFFE
ENDCHAR
STARTCHAR uni25B6
ENCODING 9654
SWIDTH 1024 0
DWIDTH 16 0
BBX 13 13 1 0
BITMAP
8000
E000
F800
FE00
FF80
FFE0
FFF8
FFE0
FF80
FE00
F800
E000
8000
ENDCHAR
STARTCHAR uni25B7
ENCODING 9655
SWIDTH 1024 0
DWIDTH 16 0
BBX 13 13 1 0
BITMAP
8000
E000
9800
8600
8180
8060
8018
8060
8180
8600
9800
E000
8000
ENDCHAR
STARTCHAR triagdn
ENCODING 9660
SWIDTH 1024 0
DWIDTH 16 0
BBX 14 12 1 0
BITMAP
FFFC
7FF8
7FF8
3FF0
3FE0
1FE0
1FC0
0FC0
0F80
0700
0700
0200
ENDCHAR
STARTCHAR uni25BD
ENCODING 9661
SWIDTH 1024 0
DWIDTH 16 0
BBX 14 12 1 0
BITMAP
FFFC
4008
4010
2010
2020
1020
1040
0880
0880
0500
0500
0200
ENDCHAR
STARTCHAR uni25C0
ENCODING 9664
SWIDTH 1024 0
DWIDTH 16 0
BBX 13 13 1 0
BITMAP
0008
0038
00F8
03F8
0FF8
3FF8
FFF8
3FF8
0FF8
03F8
00F8
0038
0008
ENDCHAR
STARTCHAR uni25C1
ENCODING 9665
SWIDTH 1024 0
DWIDTH 16 0
BBX 13 13 1 0
BITMAP
0008
0038
00C8
0308
0C08
3008
C008
3008
0C08
0308
00C8
0038
0008
ENDCHAR
STARTCHAR uni25C6
ENCODING 9670
SWIDTH 1024 0
DWIDTH 16 0
BBX 15 15 1 -1
BITMAP
0100
0380
07C0
0FE0
1FF0
3FF8
7FFC
FFFE
7FFC
3FF8
1FF0
0FE0
07C0
0380
0100
ENDCHAR
STARTCHAR uni25C7
ENCODING 9671
SWIDTH 1024 0
DWIDTH 16 0
BBX 15 15 1 -1
BITMAP
0100
0280
0440
0820
1010
2008
4004
8002
4004
2008
1010
0820
0440
0280
0100
ENDCHAR
STARTCHAR uni25C8
ENCODING 9672
SWIDTH 1024 0
DWIDTH 16 0
BBX 13 13 1 0
BITMAP
0200
0500
0880
1240
2720
4F90
9FC8
4F90
2720
1240
0880
0500
0200
ENDCHAR
STARTCHAR uni25C9
ENCODING 9673
SWIDTH 1024 0
DWIDTH 16 0
BBX 14 12 1 1
BITMAP
0780
1860
2010
4008
8304
8784
8784
8304
4008
2010
1860
0780
ENDCHAR
STARTCHAR circle
ENCODING 9675
SWIDTH 1024 0
DWIDTH 16 0
BBX 15 15 1 -1
BITMAP
07C0
1830
2008
4004
4004
8002
8002
8002
8002
8002
4004
4004
2008
1830
07C0
ENDCHAR
STARTCHAR uni25CE
ENCODING 9678
SWIDTH 1024 0
DWIDTH 16 0
BBX 15 15 1 -1
BITMAP
07C0
1830
2388
4C64
5014
9012
A00A
A00A
A00A
9012
5014
4C64
2388
1830
07C0
ENDCHAR
STARTCHAR H18533
ENCODING 9679
SWIDTH 1024 0
DWIDTH 16 0
BBX 15 15 1 -1
BITMAP
07C0
1FF0
3FF8
7FFC
7FFC
FFFE
FFFE
FFFE
FFFE
FFFE
7FFC
7FFC
3FF8
1FF0
07C0
ENDCHAR
STARTCHAR uni25D0
ENCODING 9680
SWIDTH 1024 0
DWIDTH 16 0
BBX 14 12 1 1
BITMAP
0780
1E60
3E10
7E08
FE04
FE04
FE04
FE04
7E08
3E10
1E60
0780
ENDCHAR
STARTCHAR uni25D1
ENCODING 9681
SWIDTH 1024 0
DWIDTH 16 0
BBX 14 12 1 1
BITMAP
0780
19E0
21F0
41F8
81FC
81FC
81FC
81FC
41F8
21F0
19E0
0780
ENDCHAR
STARTCHAR uni25E2
ENCODING 9698
SWIDTH 1024 0
DWIDTH 16 0
BBX 15 15 1 -1
BITMAP
0002
0006
000E
001E
003E
007E
00FE
01FE
03FE
07FE
0FFE
1FFE
3FFE
7FFE
FFFE
ENDCHAR
STARTCHAR uni25E3
ENCODING 9699
SWIDTH 1024 0
DWIDTH 16 0
BBX 15 15 0 -1
BITMAP
8000
C000
E000
F000
F800
FC00
FE00
FF00
FF80
FFC0
FFE0
FFF0
FFF8
FFFC
FFFE
ENDCHAR
STARTCHAR uni25E4
ENCODING 9700
SWIDTH 1024 0
DWIDTH 16 0
BBX 16 15 0 -1
BITMAP
FFFF
FFFE
FFFC
FFF8
FFF0
FFE0
FFC0
FF80
FF00
FE00
FC00
F800
F000
E000
C000
ENDCHAR
STARTCHAR uni25E5
ENCODING 9701
SWIDTH 1024 0
DWIDTH 16 0
BBX 16 15 0 -1
BITMAP
FFFF
7FFF
3FFF
1FFF
0FFF
07FF
03FF
01FF
00FF
007F
003F
001F
000F
0007
0003
ENDCHAR
STARTCHAR uni25EF
ENCODING 9711
SWIDTH 1024 0
DWIDTH 16 0
BBX 16 16 0 -2
BITMAP
03C0
0C30
1008
2004
4002
4002
8001
8001
8001
8001
4002
4002
2004
1008
0C30
03C0
ENDCHAR
STARTCHAR uni2605
ENCODING 9733
SWIDTH 1024 0
DWIDTH 16 0
BBX 15 15 1 -1
BITMAP
0100
0100
0380
0380
07C0
FFFE
7FFC
3FF8
1FF0
0FE0
1FF0
1EF0
3C78
3018
4004
ENDCHAR
STARTCHAR uni2606
ENCODING 9734
SWIDTH 1024 0
DWIDTH 16 0
BBX 15 15 1 -1
BITMAP
0100
0100
0280
0280
0440
F83E
4004
2008
1010
0820
1110
1290
2C68
3018
4004
ENDCHAR
STARTCHAR uni2609
ENCODING 9737
SWIDTH 1024 0
DWIDTH 16 0
BBX 13 11 2 1
BITMAP
1FC0
2020
4010
8008
8708
8F88
8708
8008
4010
2020
1FC0
ENDCHAR
STARTCHAR uni260E
ENCODING 9742
SWIDTH 1024 0
DWIDTH 16 0
BBX 16 11 0 1
BITMAP
3FFC
FFFF
F24F
6246
07E0
1FF8
3E7C
7C3E
7E7E
7FFE
7FFE
ENDCHAR
STARTCHAR uni260F
ENCODING 9743
SWIDTH 1024 0
DWIDTH 16 0
BBX 16 10 0 2
BITMAP
7FFE
8FF1
9249
67E6
0420
1BD8
2184
43C2
4182
7FFE
ENDCHAR
STARTCHAR uni261C
ENCODING 9756
SWIDTH 1024 0
DWIDTH 16 0
BBX 15 13 0 0
BITMAP
000E
000A
7FFA
800A
7E0A
100A
0F0A
080A
070A
020A
01FA
000A
000E
ENDCHAR
STARTCHAR uni261E
ENCODING 9758
SWIDTH 1024 0
DWIDTH 16 0
BBX 15 13 0 0
BITMAP
E000
A000
BFFC
A002
A3FC
A020
A3C0
A040
A380
A080
BF00
A000
E000
ENDCHAR
STARTCHAR female
ENCODING 9792
SWIDTH 1024 0
DWIDTH 16 0
BBX 9 13 4 0
BITMAP
1C00
2200
2200
2200
1C00
0800
0800
FF80
0800
0800
0800
0800
0800
ENDCHAR
STARTCHAR uni2641
ENCODING 9793
SWIDTH 1024 0
DWIDTH 16 0
BBX 13 11 2 1
BITMAP
1FC0
2220
4210
8208
8208
FFF8
8208
8208
4210
2220
1FC0
ENDCHAR
STARTCHAR male
ENCODING 9794
SWIDTH 1024 0
DWIDTH 16 0
BBX 7 13 5 0
BITMAP
10
38
54
92
10
10
10
10
38
44
44
44
38
ENDCHAR
STARTCHAR spade
ENCODING 9824
SWIDTH 1024 0
DWIDTH 16 0
BBX 15 14 0 0
BITMAP
0100
0380
07C0
0FE0
1FF0
3FF8
7FFC
7FFC
FFFE
FFFE
FD7E
793C
0100
0100
ENDCHAR
STARTCHAR uni2661
ENCODING 9825
SWIDTH 1024 0
DWIDTH 16 0
BBX 15 13 0 0
BITMAP
3C78
4284
8102
8002
8002
8002
4004
2008
1010
0820
0440
0280
0100
ENDCHAR
STARTCHAR club
ENCODING 9827
SWIDTH 1024 0
DWIDTH 16 0
BBX 15 14 0 -1
BITMAP
07C0
0FE0
0FE0
0FE0
07C0
739C
FDBE
FFFE
FD7E
F93E
711C
0100
0100
0100
ENDCHAR
STARTCHAR uni2664
ENCODING 9828
SWIDTH 1024 0
DWIDTH 16 0
BBX 15 14 0 0
BITMAP
0100
0280
0440
0820
1010
2008
4004
4004
8102
8382
8542
793C
0100
0100
ENDCHAR
STARTCHAR heart
ENCODING 9829
SWIDTH 1024 0
DWIDTH 16 0
BBX 15 13 0 0
BITMAP
3C78
7EFC
FFFE
FFFE
FFFE
FFFE
7FFC
3FF8
1FF0
0FE0
07C0
0380
0100
ENDCHAR
STARTCHAR uni2667
ENCODING 9831
SWIDTH 1024 0
DWIDTH 16 0
BBX 15 14 0 -1
BITMAP
07C0
0820
0820
0820
0440
729C
8C62
8282
8542
8922
711C
0100
0100
0100
ENDCHAR
STARTCHAR uni2668
ENCODING 9832
SWIDTH 1024 0
DWIDTH 16 0
BBX 13 11 1 1
BITMAP
1240
2240
2480
2480
2480
1240
5250
9248
9248
A488
7FF0
ENDCHAR
STARTCHAR uni2669
ENCODING 9833
SWIDTH 1024 0
DWIDTH 16 0
BBX 5 13 5 0
BITMAP
08
08
08
08
08
08
08
08
08
18
78
F8
F0
ENDCHAR
STARTCHAR musicalnote
ENCODING 9834
SWIDTH 1024 0
DWIDTH 16 0
BBX 11 16 3 -2
BITMAP
0400
0400
0600
0700
0580
04C0
0460
0420
0420
0440
0480
0400
7C00
FC00
F800
7000
ENDCHAR
STARTCHAR uni266C
ENCODING 9836
SWIDTH 1024 0
DWIDTH 16 0
BBX 14 13 1 0
BITMAP
0FFC
0804
0804
0FFC
0804
0804
0804
0804
0804
180C
783C
F87C
F078
ENDCHAR
STARTCHAR uni266D
ENCODING 9837
SWIDTH 1024 0
DWIDTH 16 0
BBX 7 16 5 -2
BITMAP
80
80
80
80
80
80
BC
C6
86
86
86
8C
98
A0
C0
80
ENDCHAR
STARTCHAR uni266F
ENCODING 9839
SWIDTH 1024 0
DWIDTH 16 0
BBX 12 16 2 -2
BITMAP
0080
1080
1080
10F0
1FF0
FF80
F080
1080
1080
10F0
1FF0
FF80
F080
1080
1080
1000
ENDCHAR
STARTCHAR uni3000
ENCODING 12288
SWIDTH 1024 0
DWIDTH 16 0
BBX 1 1 15 -2
BITMAP
00
ENDCHAR
STARTCHAR uni3001
ENCODING 12289
SWIDTH 1024 0
DWIDTH 16 0
BBX 5 5 1 -2
BITMAP
80
60
70
38
18
ENDCHAR
STARTCHAR uni3002
ENCODING 12290
SWIDTH 1024 0
DWIDTH 16 0
BBX 6 5 1 -2
BITMAP
78
84
84
84
78
ENDCHAR
STARTCHAR uni3003
ENCODING 12291
SWIDTH 1024 0
DWIDTH 16 0
BBX 12 9 1 0
BITMAP
0420
0E70
0E70
0E70
1CE0
18C0
3180
6300
8400
ENDCHAR
STARTCHAR uni3004
ENCODING 12292
SWIDTH 1024 0
DWIDTH 16 0
BBX 16 15 0 -1
BITMAP
0100
0380
06C0
0C60
1830
301C
E007
0000
3FFC
0100
0100
0100
0100
0100
FFFF
ENDCHAR
STARTCHAR uni3005
ENCODING 12293
SWIDTH 1024 0
DWIDTH 16 0
BBX 11 13 2 0
BITMAP
0800
0800
0800
1FE0
1020
3060
2040
60C0
CD80
0700
0180
00C0
0040
ENDCHAR
STARTCHAR uni3006
ENCODING 12294
SWIDTH 1024 0
DWIDTH 16 0
BBX 14 14 1 -1
BITMAP
000C
0018
0030
0E60
13C0
2180
23C0
6660
4C00
5800
5000
7000
6000
C000
ENDCHAR
STARTCHAR uni3007
ENCODING 12295
SWIDTH 1024 0
DWIDTH 16 0
BBX 14 12 1 0
BITMAP
0FC0
3870
6018
4008
C00C
8004
8004
C00C
4008
6018
3870
0FC0
ENDCHAR
STARTCHAR uni3008
ENCODING 12296
SWIDTH 1024 0
DWIDTH 16 0
BBX 5 15 10 -2
BITMAP
08
10
10
20
20
40
40
80
40
40
20
20
10
10
08
ENDCHAR
STARTCHAR uni3009
ENCODING 12297
SWIDTH 1024 0
DWIDTH 16 0
BBX 5 15 1 -2
BITMAP
80
40
40
20
20
10
10
08
10
10
20
20
40
40
80
ENDCHAR
STARTCHAR uni300A
ENCODING 12298
SWIDTH 1024 0
DWIDTH 16 0
BBX 12 15 3 -2
BITMAP
0360
06C0
0D80
1B00
3600
6C00
D800
D800
6C00
3600
1B00
0D80
06C0
0360
01B0
ENDCHAR
STARTCHAR uni300B
ENCODING 12299
SWIDTH 1024 0
DWIDTH 16 0
BBX 12 15 1 -2
BITMAP
6C00
3600
1B00
0D80
06C0
0360
01B0
01B0
0360
06C0
0D80
1B00
3600
6C00
D800
ENDCHAR
STARTCHAR uni300C
ENCODING 12300
SWIDTH 1024 0
DWIDTH 16 0
BBX 7 10 8 3
BITMAP
FE
80
80
80
80
80
80
80
80
80
ENDCHAR
STARTCHAR uni300D
ENCODING 12301
SWIDTH 1024 0
DWIDTH 16 0
BBX 7 10 1 -2
BITMAP
02
02
02
02
02
02
02
02
02
FE
ENDCHAR
STARTCHAR uni300E
ENCODING 12302
SWIDTH 1024 0
DWIDTH 16 0
BBX 6 12 9 1
BITMAP
FC
84
BC
A0
A0
A0
A0
A0
A0
A0
A0
E0
ENDCHAR
STARTCHAR uni300F
ENCODING 12303
SWIDTH 1024 0
DWIDTH 16 0
BBX 7 11 1 -2
BITMAP
0E
0A
0A
0A
0A
0A
0A
0A
FA
82
FE
ENDCHAR
STARTCHAR uni3010
ENCODING 12304
SWIDTH 1024 0
DWIDTH 16 0
BBX 6 15 9 -2
BITMAP
FC
F8
F0
E0
E0
C0
C0
C0
C0
C0
E0
E0
F0
F8
FC
ENDCHAR
STARTCHAR uni3011
ENCODING 12305
SWIDTH 1024 0
DWIDTH 16 0
BBX 6 15 1 -2
BITMAP
FC
7C
3C
3C
1C
1C
1C
1C
1C
1C
1C
3C
3C
7C
FC
ENDCHAR
STARTCHAR uni3012
ENCODING 12306
SWIDTH 1024 0
DWIDTH 16 0
BBX 14 14 1 -1
BITMAP
FFFC
FFFC
0000
0000
FFFC
FFFC
0300
0300
0300
0300
0300
0300
0300
0300
ENDCHAR
STARTCHAR uni3013
ENCODING 12307
SWIDTH 1024 0
DWIDTH 16 0
BBX 14 11 1 1
BITMAP
FFFC
FFFC
FFFC
FFFC
0000
0000
0000
FFFC
FFFC
FFFC
FFFC
ENDCHAR
STARTCHAR uni3014
ENCODING 12308
SWIDTH 1024 0
DWIDTH 16 0
BBX 5 15 10 -2
BITMAP
38
60
C0
C0
C0
C0
C0
C0
C0
C0
C0
C0
C0
60
38
ENDCHAR
STARTCHAR uni3015
ENCODING 12309
SWIDTH 1024 0
DWIDTH 16 0
BBX 5 15 1 -2
BITMAP
E0
30
18
18
18
18
18
18
18
18
18
18
18
30
E0
ENDCHAR
STARTCHAR uni301C
ENCODING 12316
SWIDTH 1024 0
DWIDTH 16 0
BBX 14 5 0 3
BITMAP
1800
7E00
C30C
01F8
0060
ENDCHAR
STARTCHAR uni301D
ENCODING 12317
SWIDTH 1024 0
DWIDTH 16 0
BBX 8 4 0 9
BITMAP
EE
66
22
11
ENDCHAR
STARTCHAR uni301E
ENCODING 12318
SWIDTH 1024 0
DWIDTH 16 0
BBX 8 4 7 9
BITMAP
77
66
44
88
ENDCHAR
STARTCHAR uni3021
ENCODING 12321
SWIDTH 1024 0
DWIDTH 16 0
BBX 2 15 7 -2
BITMAP
C0
C0
C0
C0
C0
C0
C0
C0
C0
C0
C0
C0
C0
C0
40
ENDCHAR
STARTCHAR uni3022
ENCODING 12322
SWIDTH 1024 0
DWIDTH 16 0
BBX 6 15 5 -2
BITMAP
0C
4C
CC
CC
CC
CC
CC
CC
CC
CC
CC
CC
4C
0C
04
ENDCHAR
STARTCHAR uni3023
ENCODING 12323
SWIDTH 1024 0
DWIDTH 16 0
BBX 10 15 3 -2
BITMAP
00C0
40C0
C0C0
C4C0
CCC0
CCC0
CCC0
CCC0
CCC0
CCC0
CCC0
C4C0
40C0
00C0
0040
ENDCHAR
STARTCHAR uni3024
ENCODING 12324
SWIDTH 1024 0
DWIDTH 16 0
BBX 13 12 1 0
BITMAP
C018
6030
3060
18C0
0D80
0700
0700
0D80
18C0
3060
6030
C018
ENDCHAR
STARTCHAR uni3025
ENCODING 12325
SWIDTH 1024 0
DWIDTH 16 0
BBX 8 13 5 -1
BITMAP
33
33
66
6C
78
38
6C
C6
C6
C6
C6
CC
78
ENDCHAR
STARTCHAR uni3026
ENCODING 12326
SWIDTH 1024 0
DWIDTH 16 0
BBX 13 7 2 4
BITMAP
0400
0600
0600
0600
0620
FFF0
FFF8
ENDCHAR
STARTCHAR uni3027
ENCODING 12327
SWIDTH 1024 0
DWIDTH 16 0
BBX 14 10 1 2
BITMAP
0200
0300
0300
0310
FFF8
FFFC
0000
0040
3FE0
3FF0
ENDCHAR
STARTCHAR uni3028
ENCODING 12328
SWIDTH 1024 0
DWIDTH 16 0
BBX 15 14 0 -1
BITMAP
0200
0300
0300
0320
7FF0
7FF8
0000
0000
1FE0
1FE0
0000
0008
FFFC
FFFE
ENDCHAR
STARTCHAR uni3029
ENCODING 12329
SWIDTH 1024 0
DWIDTH 16 0
BBX 13 14 2 -1
BITMAP
0400
0C00
1800
3FE0
7FF0
6060
30C0
1980
0F00
0600
0F00
19C0
70F8
E030
ENDCHAR
STARTCHAR uni3041
ENCODING 12353
SWIDTH 1024 0
DWIDTH 16 0
BBX 11 12 2 -2
BITMAP
0800
0B80
FC00
0900
0900
3FC0
5220
9420
8820
F040
0180
0600
ENDCHAR
STARTCHAR uni3042
ENCODING 12354
SWIDTH 1024 0
DWIDTH 16 0
BBX 13 15 1 -2
BITMAP
0200
0200
03F0
7E00
0240
0240
0FE0
3490
4488
8288
8308
8608
7810
0060
0180
ENDCHAR
STARTCHAR uni3043
ENCODING 12355
SWIDTH 1024 0
DWIDTH 16 0
BBX 12 10 2 -2
BITMAP
C000
4040
4020
4020
4010
4410
4810
5000
3000
1000
ENDCHAR
STARTCHAR uni3044
ENCODING 12356
SWIDTH 1024 0
DWIDTH 16 0
BBX 13 13 1 -2
BITMAP
C020
4020
4010
4010
4008
4008
4008
4208
2408
2800
3000
1000
1000
ENDCHAR
STARTCHAR uni3045
ENCODING 12357
SWIDTH 1024 0
DWIDTH 16 0
BBX 12 12 2 -2
BITMAP
1000
0FC0
0000
07C0
9820
6010
0010
0010
0020
00C0
0300
0C00
ENDCHAR
STARTCHAR uni3046
ENCODING 12358
SWIDTH 1024 0
DWIDTH 16 0
BBX 13 15 1 -2
BITMAP
1000
0FE0
0000
0000
03E0
8C10
7008
0008
0008
0008
0008
0010
0060
0180
0E00
ENDCHAR
STARTCHAR uni3047
ENCODING 12359
SWIDTH 1024 0
DWIDTH 16 0
BBX 12 11 2 -1
BITMAP
1000
0F80
0000
8100
7FC0
0200
0400
0F00
1100
2100
41F0
ENDCHAR
STARTCHAR uni3048
ENCODING 12360
SWIDTH 1024 0
DWIDTH 16 0
BBX 14 14 1 -1
BITMAP
2000
1000
0F80
0000
0040
83E0
7C80
0100
0300
0500
0880
1080
2080
407C
ENDCHAR
STARTCHAR uni3049
ENCODING 12361
SWIDTH 1024 0
DWIDTH 16 0
BBX 12 11 2 -2
BITMAP
1840
0820
FFD0
0800
1F80
2840
4820
4820
4820
3040
0180
ENDCHAR
STARTCHAR uni304A
ENCODING 12362
SWIDTH 1024 0
DWIDTH 16 0
BBX 14 14 1 -1
BITMAP
1000
0810
09C8
FE04
083C
0800
0FE0
1810
2808
4808
8808
8808
7010
00E0
ENDCHAR
STARTCHAR uni304B
ENCODING 12363
SWIDTH 1024 0
DWIDTH 16 0
BBX 14 14 1 -1
BITMAP
0C00
0400
0410
8F88
7888
0888
1084
1084
10B4
208C
2104
4100
4E00
8000
ENDCHAR
STARTCHAR uni304C
ENCODING 12364
SWIDTH 1024 0
DWIDTH 16 0
BBX 14 14 1 -1
BITMAP
0808
0424
0410
0820
FF90
0888
0888
1084
1084
20BC
2084
4100
4D00
8200
ENDCHAR
STARTCHAR uni304D
ENCODING 12365
SWIDTH 1024 0
DWIDTH 16 0
BBX 15 14 1 -1
BITMAP
0200
0118
01E0
3F00
008E
01F0
FE40
0040
0020
8020
81E0
4000
3000
0FE0
ENDCHAR
STARTCHAR uni304E
ENCODING 12366
SWIDTH 1024 0
DWIDTH 16 0
BBX 15 14 1 -1
BITMAP
040C
0230
03C0
3D00
008E
00F0
0780
7840
0040
0020
83E0
4020
3000
0FC0
ENDCHAR
STARTCHAR uni304F
ENCODING 12367
SWIDTH 1024 0
DWIDTH 16 0
BBX 9 14 4 -1
BITMAP
0700
0200
0400
0800
3000
4000
8000
4000
2000
1000
0800
0600
0100
0080
ENDCHAR
STARTCHAR uni3050
ENCODING 12368
SWIDTH 1024 0
DWIDTH 16 0
BBX 13 14 3 -1
BITMAP
0290
0248
0400
0800
1000
2000
4000
8000
8000
6000
1800
0600
0100
0080
ENDCHAR
STARTCHAR uni3051
ENCODING 12369
SWIDTH 1024 0
DWIDTH 16 0
BBX 15 14 1 -1
BITMAP
40C0
4020
4020
4026
8FF8
8020
8020
8020
8820
9020
A040
6040
2080
2100
ENDCHAR
STARTCHAR uni3052
ENCODING 12370
SWIDTH 1024 0
DWIDTH 16 0
BBX 15 14 1 -1
BITMAP
2084
4052
4048
4040
8FFE
8040
8040
8040
9040
A040
A040
6040
6080
2300
ENDCHAR
STARTCHAR uni3053
ENCODING 12371
SWIDTH 1024 0
DWIDTH 16 0
BBX 14 12 1 0
BITMAP
2000
1FF0
0020
0040
0000
0000
0000
0000
0000
8000
4004
3FF8
ENDCHAR
STARTCHAR uni3054
ENCODING 12372
SWIDTH 1024 0
DWIDTH 16 0
BBX 15 13 1 0
BITMAP
0004
0012
3FE8
0040
0080
0000
0000
0000
0000
0000
8000
4004
3FF8
ENDCHAR
STARTCHAR uni3055
ENCODING 12373
SWIDTH 1024 0
DWIDTH 16 0
BBX 14 15 1 -2
BITMAP
0200
0100
009C
60E0
1F80
0040
0020
0020
8190
8070
4000
2000
1800
07F0
0008
ENDCHAR
STARTCHAR uni3056
ENCODING 12374
SWIDTH 1024 0
DWIDTH 16 0
BBX 14 14 1 -1
BITMAP
0408
0224
0110
41F8
3F80
0080
0040
0040
8020
81E0
8000
4000
3800
07F8
ENDCHAR
STARTCHAR uni3057
ENCODING 12375
SWIDTH 1024 0
DWIDTH 16 0
BBX 13 14 2 -1
BITMAP
C000
2000
2000
2000
2000
2000
2000
4000
4008
4010
4020
4040
2180
1E00
ENDCHAR
STARTCHAR uni3058
ENCODING 12376
SWIDTH 1024 0
DWIDTH 16 0
BBX 13 14 3 -1
BITMAP
8100
4880
4400
4000
4000
4000
4000
8000
8008
8010
8020
8040
8180
7E00
ENDCHAR
STARTCHAR uni3059
ENCODING 12377
SWIDTH 1024 0
DWIDTH 16 0
BBX 15 15 1 -2
BITMAP
01C0
0040
0040
9FFE
6040
0340
04C0
0840
0840
04C0
0340
0080
0100
0600
1800
ENDCHAR
STARTCHAR uni305A
ENCODING 12378
SWIDTH 1024 0
DWIDTH 16 0
BBX 14 15 1 -2
BITMAP
0308
00A4
0090
8FFC
7080
0080
0F80
1080
1180
0E80
0080
0080
0100
0200
1C00
ENDCHAR
STARTCHAR uni305B
ENCODING 12379
SWIDTH 1024 0
DWIDTH 16 0
BBX 14 13 1 0
BITMAP
0040
6020
1020
1020
11FC
FE20
1020
1020
1020
11A0
1060
1000
1FF8
ENDCHAR
STARTCHAR uni305C
ENCODING 12380
SWIDTH 1024 0
DWIDTH 16 0
BBX 14 14 1 -1
BITMAP
0028
2094
1040
1040
1040
11FC
FE40
1040
1040
1340
10C0
1000
1800
07F8
ENDCHAR
STARTCHAR uni305D
ENCODING 12381
SWIDTH 1024 0
DWIDTH 16 0
BBX 14 14 1 -1
BITMAP
01E0
3E40
0080
0100
0200
043C
1FC0
2800
C800
0800
0800
0800
0600
01F8
ENDCHAR
STARTCHAR uni305E
ENCODING 12382
SWIDTH 1024 0
DWIDTH 16 0
BBX 15 14 1 -1
BITMAP
01F4
3E4A
0080
0100
0200
043C
1FC0
2800
C800
0800
0800
0800
0600
01F8
ENDCHAR
STARTCHAR uni305F
ENCODING 12383
SWIDTH 1024 0
DWIDTH 16 0
BBX 14 14 1 -1
BITMAP
0800
0800
08C0
8F00
78FC
0800
1000
1000
1000
2000
2400
2400
43FC
8000
ENDCHAR
STARTCHAR uni3060
ENCODING 12384
SWIDTH 1024 0
DWIDTH 16 0
BBX 14 14 1 -1
BITMAP
0828
0814
08C0
8F00
78FC
0800
1000
1000
1000
2000
2400
2400
43FC
8000
ENDCHAR
STARTCHAR uni3061
ENCODING 12385
SWIDTH 1024 0
DWIDTH 16 0
BBX 13 15 2 -2
BITMAP
0C00
0400
85F0
7E00
0800
1000
17F0
3808
2008
4008
4008
0010
0020
01C0
0E00
ENDCHAR
STARTCHAR uni3062
ENCODING 12386
SWIDTH 1024 0
DWIDTH 16 0
BBX 15 15 1 -2
BITMAP
0C14
040A
85F0
7E00
0800
1000
17F0
3808
2008
4008
4008
0010
0020
01C0
0E00
ENDCHAR
STARTCHAR uni3063
ENCODING 12387
SWIDTH 1024 0
DWIDTH 16 0
BBX 11 9 3 -1
BITMAP
1F80
6040
8020
0020
0020
0040
0080
0300
1C00
ENDCHAR
STARTCHAR uni3064
ENCODING 12388
SWIDTH 1024 0
DWIDTH 16 0
BBX 14 12 1 -1
BITMAP
03F0
0C08
F004
0004
0004
0004
0004
0008
0008
0030
00C0
0F00
ENDCHAR
STARTCHAR uni3065
ENCODING 12389
SWIDTH 1024 0
DWIDTH 16 0
BBX 15 14 1 -1
BITMAP
0014
000A
03F0
0C08
F004
0004
0004
0004
0004
0008
0008
0030
00C0
0F00
ENDCHAR
STARTCHAR uni3066
ENCODING 12390
SWIDTH 1024 0
DWIDTH 16 0
BBX 13 12 1 0
BITMAP
0078
0F80
F400
0800
0800
1000
1000
1000
1000
0800
0400
03F0
ENDCHAR
STARTCHAR uni3067
ENCODING 12391
SWIDTH 1024 0
DWIDTH 16 0
BBX 14 12 1 0
BITMAP
0078
0F80
F428
0814
0800
1000
1000
1000
1000
0800
0400
03F0
ENDCHAR
STARTCHAR uni3068
ENCODING 12392
SWIDTH 1024 0
DWIDTH 16 0
BBX 11 14 3 -1
BITMAP
1800
0800
0800
0840
08C0
0B00
1C00
2000
4000
8000
8000
8000
4000
3FE0
ENDCHAR
STARTCHAR uni3069
ENCODING 12393
SWIDTH 1024 0
DWIDTH 16 0
BBX 14 14 2 -1
BITMAP
1800
0828
0814
0840
08C0
0B00
1C00
2000
4000
8000
8000
8000
4000
3FE0
ENDCHAR
STARTCHAR uni306A
ENCODING 12394
SWIDTH 1024 0
DWIDTH 16 0
BBX 14 14 1 -1
BITMAP
0800
0800
0EE0
F838
0820
0820
1020
1020
1020
2020
27E0
2830
4848
8784
ENDCHAR
STARTCHAR uni306B
ENCODING 12395
SWIDTH 1024 0
DWIDTH 16 0
BBX 14 15 1 -2
BITMAP
4000
2000
23F8
2000
4000
8000
8000
8000
8000
9800
A400
C200
43FC
4000
2000
ENDCHAR
STARTCHAR uni306C
ENCODING 12396
SWIDTH 1024 0
DWIDTH 16 0
BBX 14 15 1 -2
BITMAP
0200
0200
8200
87E0
5A10
2208
6204
5204
8A04
8404
86E8
8918
7118
00E4
0004
ENDCHAR
STARTCHAR uni306D
ENCODING 12397
SWIDTH 1024 0
DWIDTH 16 0
BBX 15 15 1 -2
BITMAP
1800
0800
08F0
0B08
FC08
8808
1008
3008
3008
51E8
9218
920C
71F2
1000
1000
ENDCHAR
STARTCHAR uni306E
ENCODING 12398
SWIDTH 1024 0
DWIDTH 16 0
BBX 14 14 1 -2
BITMAP
0FE0
3210
4208
8208
8204
8204
8204
8204
8404
4404
3808
0010
0060
0180
ENDCHAR
STARTCHAR uni306F
ENCODING 12399
SWIDTH 1024 0
DWIDTH 16 0
BBX 15 14 1 -1
BITMAP
20C0
2020
2020
203C
4FE0
4020
8020
8020
8020
8BE0
B438
C424
C3C2
4000
ENDCHAR
STARTCHAR uni3070
ENCODING 12400
SWIDTH 1024 0
DWIDTH 16 0
BBX 15 14 1 -1
BITMAP
20D4
202A
2020
203C
4FE0
4020
8020
8020
8020
8BE0
B438
C424
C3C2
4000
ENDCHAR
STARTCHAR uni3071
ENCODING 12401
SWIDTH 1024 0
DWIDTH 16 0
BBX 16 14 0 -1
BITMAP
20C6
2029
2026
203C
4FE0
4020
8020
8020
8020
8BE0
B438
C424
C3C2
4000
ENDCHAR
STARTCHAR uni3072
ENCODING 12402
SWIDTH 1024 0
DWIDTH 16 0
BBX 14 13 1 0
BITMAP
0200
8200
7C10
0410
0810
1010
2018
4018
4024
4020
4020
2040
1F80
ENDCHAR
STARTCHAR uni3073
ENCODING 12403
SWIDTH 1024 0
DWIDTH 16 0
BBX 15 13 1 0
BITMAP
0214
820A
7C10
0410
0810
1010
2018
4018
4024
4020
4020
2040
1F80
ENDCHAR
STARTCHAR uni3074
ENCODING 12404
SWIDTH 1024 0
DWIDTH 16 0
BBX 15 13 1 0
BITMAP
020C
8212
7C1C
0410
0810
1010
2018
4018
4024
4020
4020
2040
1F80
ENDCHAR
STARTCHAR uni3075
ENCODING 12405
SWIDTH 1024 0
DWIDTH 16 0
BBX 14 14 1 -1
BITMAP
0400
0200
0100
0280
0400
0800
0400
0220
0110
0888
1084
2084
4C80
8300
ENDCHAR
STARTCHAR uni3076
ENCODING 12406
SWIDTH 1024 0
DWIDTH 16 0
BBX 14 14 1 -1
BITMAP
0428
0214
0100
0280
0400
0800
0400
0220
0110
0888
1084
2084
4C80
8300
ENDCHAR
STARTCHAR uni3077
ENCODING 12407
SWIDTH 1024 0
DWIDTH 16 0
BBX 14 14 1 -1
BITMAP
0418
0224
0118
0280
0400
0800
0400
0220
0110
0888
1084
2084
4C80
8300
ENDCHAR
STARTCHAR uni3078
ENCODING 12408
SWIDTH 1024 0
DWIDTH 16 0
BBX 15 10 1 1
BITMAP
0600
0900
1080
2040
C040
0020
0010
0008
0004
0002
ENDCHAR
STARTCHAR uni3079
ENCODING 12409
SWIDTH 1024 0
DWIDTH 16 0
BBX 15 11 1 1
BITMAP
0028
0614
0900
1080
2040
C040
0020
0010
0008
0004
0002
ENDCHAR
STARTCHAR uni307A
ENCODING 12410
SWIDTH 1024 0
DWIDTH 16 0
BBX 15 11 1 1
BITMAP
0018
0624
0918
1080
2040
C040
0020
0010
0008
0004
0002
ENDCHAR
STARTCHAR uni307B
ENCODING 12411
SWIDTH 1024 0
DWIDTH 16 0
BBX 15 14 1 -1
BITMAP
4000
20F8
2320
4020
403C
8FE0
8020
8020
8020
93F0
A428
4424
43C2
4000
ENDCHAR
STARTCHAR uni307C
ENCODING 12412
SWIDTH 1024 0
DWIDTH 16 0
BBX 16 14 0 -1
BITMAP
400A
2075
27C0
4040
407C
8FC0
8040
8040
8040
93F0
A448
4444
4382
4000
ENDCHAR
STARTCHAR uni307D
ENCODING 12413
SWIDTH 1024 0
DWIDTH 16 0
BBX 16 14 0 -1
BITMAP
4006
2079
27C6
4040
407C
8FC0
8040
8040
8040
93E0
A458
4444
4382
4000
ENDCHAR
STARTCHAR uni307E
ENCODING 12414
SWIDTH 1024 0
DWIDTH 16 0
BBX 14 14 1 -1
BITMAP
0300
0100
01FC
FF00
0100
0100
01F8
7F00
0100
0100
1FC0
2130
210C
1E00
ENDCHAR
STARTCHAR uni307F
ENCODING 12415
SWIDTH 1024 0
DWIDTH 16 0
BBX 15 15 1 -2
BITMAP
0300
4500
3900
0130
0210
0210
0410
1FE0
6430
8428
8844
9042
6080
0100
0200
ENDCHAR
STARTCHAR uni3080
ENCODING 12416
SWIDTH 1024 0
DWIDTH 16 0
BBX 14 14 1 -1
BITMAP
3000
0820
0B10
FC08
0804
0804
7800
8808
8808
9808
6810
0810
0820
07C0
ENDCHAR
STARTCHAR uni3081
ENCODING 12417
SWIDTH 1024 0
DWIDTH 16 0
BBX 14 15 1 -2
BITMAP
0300
6100
2100
2100
2FC0
3230
5208
9204
8A04
8C04
8A04
9008
6030
00C0
0300
ENDCHAR
STARTCHAR uni3082
ENCODING 12418
SWIDTH 1024 0
DWIDTH 16 0
BBX 14 14 1 -1
BITMAP
0C00
0400
0400
4400
3FC0
0800
8808
7FE8
0804
0804
0804
0804
0808
07F0
ENDCHAR
STARTCHAR uni3083
ENCODING 12419
SWIDTH 1024 0
DWIDTH 16 0
BBX 13 11 1 -2
BITMAP
0100
2080
10F0
0B48
8C48
7408
0510
04E0
0200
0200
0200
ENDCHAR
STARTCHAR uni3084
ENCODING 12420
SWIDTH 1024 0
DWIDTH 16 0
BBX 14 15 1 -2
BITMAP
0200
2100
41F0
4288
4484
3804
E004
1008
13F0
0800
0800
0400
0400
0400
0200
ENDCHAR
STARTCHAR uni3085
ENCODING 12421
SWIDTH 1024 0
DWIDTH 16 0
BBX 12 11 2 -2
BITMAP
4600
4200
47E0
5A10
6210
8210
8210
8A60
8780
0400
1800
ENDCHAR
STARTCHAR uni3086
ENCODING 12422
SWIDTH 1024 0
DWIDTH 16 0
BBX 14 15 1 -2
BITMAP
0300
4080
20F0
2388
2484
4884
9084
A084
C084
8884
8488
43F0
2100
0600
0800
ENDCHAR
STARTCHAR uni3087
ENCODING 12423
SWIDTH 1024 0
DWIDTH 16 0
BBX 11 10 3 -1
BITMAP
0C00
0400
07E0
0400
0400
0400
7C00
8700
8CE0
7000
ENDCHAR
STARTCHAR uni3088
ENCODING 12424
SWIDTH 1024 0
DWIDTH 16 0
BBX 14 14 2 -1
BITMAP
0600
0200
0200
0218
03E0
0200
0200
0200
0200
7F00
82C0
8230
8408
7804
ENDCHAR
STARTCHAR uni3089
ENCODING 12425
SWIDTH 1024 0
DWIDTH 16 0
BBX 12 15 2 -2
BITMAP
1800
0780
6000
4000
4000
43C0
4C20
5010
6010
4010
8010
8010
0020
00C0
1F00
ENDCHAR
STARTCHAR uni308A
ENCODING 12426
SWIDTH 1024 0
DWIDTH 16 0
BBX 8 15 4 -2
BITMAP
42
41
81
81
81
81
91
A1
A1
C1
42
02
04
08
30
ENDCHAR
STARTCHAR uni308B
ENCODING 12427
SWIDTH 1024 0
DWIDTH 16 0
BBX 14 14 1 -1
BITMAP
00F0
2320
1C40
0080
0100
0200
07F0
0808
1004
2704
C884
0884
0898
07E0
ENDCHAR
STARTCHAR uni308C
ENCODING 12428
SWIDTH 1024 0
DWIDTH 16 0
BBX 15 14 1 -1
BITMAP
3000
0800
08E0
0920
7E20
8820
0820
0820
1820
2822
4822
A824
1818
0800
ENDCHAR
STARTCHAR uni308D
ENCODING 12429
SWIDTH 1024 0
DWIDTH 16 0
BBX 14 15 1 -2
BITMAP
00C0
2340
1C80
0100
0200
04F0
0F08
1004
2004
4004
8004
0008
0010
0060
0780
ENDCHAR
STARTCHAR uni308E
ENCODING 12430
SWIDTH 1024 0
DWIDTH 16 0
BBX 11 11 3 -2
BITMAP
3000
2000
2780
FC40
3020
2020
6020
A020
A040
2080
2300
ENDCHAR
STARTCHAR uni308F
ENCODING 12431
SWIDTH 1024 0
DWIDTH 16 0
BBX 14 15 1 -2
BITMAP
2000
1000
0800
0800
18F0
2B08
CC04
1804
2804
4804
8804
8804
E808
1810
08E0
ENDCHAR
STARTCHAR uni3090
ENCODING 12432
SWIDTH 1024 0
DWIDTH 16 0
BBX 14 15 1 -2
BITMAP
0380
0C80
3100
0200
07C0
1A30
2408
4404
8804
8804
89C4
9224
6228
01F0
0020
ENDCHAR
STARTCHAR uni3091
ENCODING 12433
SWIDTH 1024 0
DWIDTH 16 0
BBX 14 15 1 -2
BITMAP
27C0
1880
0100
02E0
0F10
1008
2608
2908
09F0
0700
1038
3044
4884
8704
0008
ENDCHAR
STARTCHAR uni3092
ENCODING 12434
SWIDTH 1024 0
DWIDTH 16 0
BBX 15 14 1 -1
BITMAP
0200
0200
2270
1F80
0400
0600
090E
10B0
E1C0
0680
0880
1080
1000
0FFC
ENDCHAR
STARTCHAR uni3093
ENCODING 12435
SWIDTH 1024 0
DWIDTH 16 0
BBX 14 15 1 -2
BITMAP
0E00
0200
0400
0400
0800
0800
1000
1000
2F00
3084
2084
4088
4088
8090
0060
ENDCHAR
STARTCHAR uni309B
ENCODING 12443
SWIDTH 1024 0
DWIDTH 16 0
BBX 6 2 5 12
BITMAP
CC
CC
ENDCHAR
STARTCHAR uni309C
ENCODING 12444
SWIDTH 1024 0
DWIDTH 16 0
BBX 4 3 6 10
BITMAP
60
90
60
ENDCHAR
STARTCHAR uni309D
ENCODING 12445
SWIDTH 1024 0
DWIDTH 16 0
BBX 8 10 4 1
BITMAP
80
C0
60
30
1C
06
03
06
1C
30
ENDCHAR
STARTCHAR uni309E
ENCODING 12446
SWIDTH 1024 0
DWIDTH 16 0
BBX 9 10 4 1
BITMAP
8280
C280
6000
3000
1C00
0600
0300
0600
1C00
3000
ENDCHAR
STARTCHAR uni30A1
ENCODING 12449
SWIDTH 1024 0
DWIDTH 16 0
BBX 11 11 3 -2
BITMAP
1FE0
E040
0080
0900
0E00
0800
0800
1000
1000
2000
4000
ENDCHAR
STARTCHAR uni30A2
ENCODING 12450
SWIDTH 1024 0
DWIDTH 16 0
BBX 14 12 1 -1
BITMAP
8FFC
7008
0230
03C0
0200
0200
0200
0400
0400
0800
1000
2000
ENDCHAR
STARTCHAR uni30A3
ENCODING 12451
SWIDTH 1024 0
DWIDTH 16 0
BBX 8 11 4 -2
BITMAP
02
01
06
0C
14
24
C4
04
04
04
04
ENDCHAR
STARTCHAR uni30A4
ENCODING 12452
SWIDTH 1024 0
DWIDTH 16 0
BBX 11 14 2 -1
BITMAP
0060
0020
0040
0040
0080
0100
0300
0500
0900
3100
C100
0100
0100
0100
ENDCHAR
STARTCHAR uni30A5
ENCODING 12453
SWIDTH 1024 0
DWIDTH 16 0
BBX 9 11 3 -2
BITMAP
0800
0800
FF80
8880
8080
8100
8200
0200
0400
0800
1000
ENDCHAR
STARTCHAR uni30A6
ENCODING 12454
SWIDTH 1024 0
DWIDTH 16 0
BBX 10 15 3 -2
BITMAP
0800
0800
0800
FFC0
8840
8040
8040
8040
8080
8080
0100
0200
0400
1800
6000
ENDCHAR
STARTCHAR uni30A7
ENCODING 12455
SWIDTH 1024 0
DWIDTH 16 0
BBX 12 7 2 0
BITMAP
7FC0
0400
0400
0400
0400
0400
FFF0
ENDCHAR
STARTCHAR uni30A8
ENCODING 12456
SWIDTH 1024 0
DWIDTH 16 0
BBX 14 10 1 -1
BITMAP
20F8
1F00
0200
0200
0200
0200
0200
0200
87FC
7800
ENDCHAR
STARTCHAR uni30A9
ENCODING 12457
SWIDTH 1024 0
DWIDTH 16 0
BBX 11 10 3 -1
BITMAP
0400
0200
0200
FFE0
0600
0A00
1200
2200
C200
0600
ENDCHAR
STARTCHAR uni30AA
ENCODING 12458
SWIDTH 1024 0
DWIDTH 16 0
BBX 15 15 1 -2
BITMAP
0200
0100
0080
0080
80FE
7F80
0080
0180
0280
0480
0880
1080
2080
C380
0080
ENDCHAR
STARTCHAR uni30AB
ENCODING 12459
SWIDTH 1024 0
DWIDTH 16 0
BBX 13 15 1 -2
BITMAP
0600
0200
0200
03F8
FE08
0208
0208
0208
0208
0408
0410
0910
10E0
2000
C000
ENDCHAR
STARTCHAR uni30AC
ENCODING 12460
SWIDTH 1024 0
DWIDTH 16 0
BBX 14 15 1 -2
BITMAP
0208
0224
0210
0200
7FF8
0208
0208
0208
0408
0408
0808
1110
20F0
4000
8000
ENDCHAR
STARTCHAR uni30AD
ENCODING 12461
SWIDTH 1024 0
DWIDTH 16 0
BBX 15 14 1 -1
BITMAP
0800
0400
0200
0200
8FF8
7200
0200
0200
03FE
FD00
0100
0100
0100
0100
ENDCHAR
STARTCHAR uni30AE
ENCODING 12462
SWIDTH 1024 0
DWIDTH 16 0
BBX 15 14 1 -1
BITMAP
0800
0428
0214
0200
8FF8
7200
0200
0200
03FE
FD00
0100
0100
0100
0100
ENDCHAR
STARTCHAR uni30AF
ENCODING 12463
SWIDTH 1024 0
DWIDTH 16 0
BBX 13 15 1 -2
BITMAP
0200
0200
0200
07F8
0810
1010
2020
4020
8040
0080
0100
0200
0C00
3000
C000
ENDCHAR
STARTCHAR uni30B0
ENCODING 12464
SWIDTH 1024 0
DWIDTH 16 0
BBX 15 15 1 -2
BITMAP
0214
020A
0200
07F8
0810
1010
2020
4020
8040
0080
0100
0200
0C00
3000
C000
ENDCHAR
STARTCHAR uni30B1
ENCODING 12465
SWIDTH 1024 0
DWIDTH 16 0
BBX 14 15 1 -2
BITMAP
0C00
0400
0400
0800
1FFC
1040
2040
4040
8080
0080
0100
0200
0400
0800
1000
ENDCHAR
STARTCHAR uni30B2
ENCODING 12466
SWIDTH 1024 0
DWIDTH 16 0
BBX 14 15 1 -2
BITMAP
0C28
0414
0400
0800
1FFC
1040
2040
4040
8080
0080
0100
0200
0400
0800
1000
ENDCHAR
STARTCHAR uni30B3
ENCODING 12467
SWIDTH 1024 0
DWIDTH 16 0
BBX 13 10 1 0
BITMAP
4000
3FF0
0010
0010
0010
0010
0010
0020
0020
FFF8
ENDCHAR
STARTCHAR uni30B4
ENCODING 12468
SWIDTH 1024 0
DWIDTH 16 0
BBX 14 12 1 0
BITMAP
0028
0014
4000
3FF0
0010
0010
0010
0010
0010
0020
0020
FFF8
ENDCHAR
STARTCHAR uni30B5
ENCODING 12469
SWIDTH 1024 0
DWIDTH 16 0
BBX 14 15 1 -2
BITMAP
00C0
3040
0840
0840
087C
FFC0
0840
0840
0840
0840
0880
0080
0100
0200
0400
ENDCHAR
STARTCHAR uni30B6
ENCODING 12470
SWIDTH 1024 0
DWIDTH 16 0
BBX 15 15 1 -2
BITMAP
00D4
304A
0840
0840
087C
FFC0
0840
0840
0840
0840
0880
0080
0100
0200
0400
ENDCHAR
STARTCHAR uni30B7
ENCODING 12471
SWIDTH 1024 0
DWIDTH 16 0
BBX 13 13 2 -1
BITMAP
4000
2000
1000
8008
4010
2020
0040
0080
0100
0200
4400
4800
3000
ENDCHAR
STARTCHAR uni30B8
ENCODING 12472
SWIDTH 1024 0
DWIDTH 16 0
BBX 13 14 2 -1
BITMAP
0140
40A0
2000
1000
8008
4010
2020
0040
0080
0100
0200
4400
4800
3000
ENDCHAR
STARTCHAR uni30B9
ENCODING 12473
SWIDTH 1024 0
DWIDTH 16 0
BBX 14 13 1 -1
BITMAP
20F8
1F08
0010
0010
0020
0040
0080
01C0
0220
0410
0808
3004
C000
ENDCHAR
STARTCHAR uni30BA
ENCODING 12474
SWIDTH 1024 0
DWIDTH 16 0
BBX 16 14 0 -1
BITMAP
000A
20F5
1F10
0010
0020
0020
0040
0080
01C0
0220
0410
0808
3004
C000
ENDCHAR
STARTCHAR uni30BB
ENCODING 12475
SWIDTH 1024 0
DWIDTH 16 0
BBX 14 12 1 0
BITMAP
1000
0800
0800
09F8
1E10
E820
0840
0980
0800
0800
0800
0FFC
ENDCHAR
STARTCHAR uni30BC
ENCODING 12476
SWIDTH 1024 0
DWIDTH 16 0
BBX 14 13 1 0
BITMAP
0008
1014
0808
0800
09F8
1E10
E820
0840
0980
0800
0800
0800
0FFC
ENDCHAR
STARTCHAR uni30BD
ENCODING 12477
SWIDTH 1024 0
DWIDTH 16 0
BBX 10 13 3 -1
BITMAP
0040
8040
4040
2040
2080
2080
0100
0100
0200
0400
0800
1000
6000
ENDCHAR
STARTCHAR uni30BE
ENCODING 12478
SWIDTH 1024 0
DWIDTH 16 0
BBX 14 14 2 -1
BITMAP
0028
0014
8040
4040
2040
2080
2080
0100
0100
0200
0400
0800
1000
6000
ENDCHAR
STARTCHAR uni30BF
ENCODING 12479
SWIDTH 1024 0
DWIDTH 16 0
BBX 13 15 1 -2
BITMAP
0200
0200
03F8
0408
0810
1820
2440
4240
8180
0100
0280
0400
0800
3000
C000
ENDCHAR
STARTCHAR uni30C0
ENCODING 12480
SWIDTH 1024 0
DWIDTH 16 0
BBX 16 15 0 -2
BITMAP
020A
0205
03F8
0408
0810
1820
2440
4240
8180
0100
0280
0400
0800
3000
C000
ENDCHAR
STARTCHAR uni30C1
ENCODING 12481
SWIDTH 1024 0
DWIDTH 16 0
BBX 14 13 1 -1
BITMAP
0030
07C0
7900
0100
0100
07FC
F900
0100
0200
0200
0400
0800
3000
ENDCHAR
STARTCHAR uni30C2
ENCODING 12482
SWIDTH 1024 0
DWIDTH 16 0
BBX 16 13 0 -1
BITMAP
0030
07C2
7905
0102
0100
07FC
F900
0100
0200
0200
0400
0800
3000
ENDCHAR
STARTCHAR uni30C3
ENCODING 12483
SWIDTH 1024 0
DWIDTH 16 0
BBX 10 11 3 -2
BITMAP
1000
8840
4440
2440
2080
0080
0100
0200
0400
0800
3000
ENDCHAR
STARTCHAR uni30C4
ENCODING 12484
SWIDTH 1024 0
DWIDTH 16 0
BBX 13 14 2 -2
BITMAP
0838
8408
4408
4210
2210
2020
0020
0040
0080
0100
0200
0400
1800
6000
ENDCHAR
STARTCHAR uni30C5
ENCODING 12485
SWIDTH 1024 0
DWIDTH 16 0
BBX 15 15 1 -2
BITMAP
0014
080A
8430
4410
4210
2220
2020
0040
0040
0080
0100
0200
0400
1800
6000
ENDCHAR
STARTCHAR uni30C6
ENCODING 12486
SWIDTH 1024 0
DWIDTH 16 0
BBX 14 15 1 -2
BITMAP
2030
1FC0
0000
0000
9FFC
6100
0100
0100
0100
0200
0200
0400
0800
1000
6000
ENDCHAR
STARTCHAR uni30C7
ENCODING 12487
SWIDTH 1024 0
DWIDTH 16 0
BBX 16 15 0 -2
BITMAP
2030
1FCA
0005
0000
9FFC
6100
0100
0100
0100
0200
0200
0400
0800
1000
6000
ENDCHAR
STARTCHAR uni30C8
ENCODING 12488
SWIDTH 1024 0
DWIDTH 16 0
BBX 8 15 6 -2
BITMAP
C0
40
40
40
40
78
46
41
40
40
40
40
40
40
40
ENDCHAR
STARTCHAR uni30C9
ENCODING 12489
SWIDTH 1024 0
DWIDTH 16 0
BBX 9 15 6 -2
BITMAP
C500
4280
4000
4000
4000
7800
4600
4100
4000
4000
4000
4000
4000
4000
4000
ENDCHAR
STARTCHAR uni30CA
ENCODING 12490
SWIDTH 1024 0
DWIDTH 16 0
BBX 14 14 1 -1
BITMAP
0300
0100
0100
0100
81FC
7F00
0100
0100
0100
0200
0200
0400
0800
3000
ENDCHAR
STARTCHAR uni30CB
ENCODING 12491
SWIDTH 1024 0
DWIDTH 16 0
BBX 14 8 1 1
BITMAP
3FF0
0000
0000
0000
0000
0000
87FC
7800
ENDCHAR
STARTCHAR uni30CC
ENCODING 12492
SWIDTH 1024 0
DWIDTH 16 0
BBX 14 13 1 -2
BITMAP
3FF8
0010
0010
0020
0C20
0240
0180
0140
0220
0410
0808
3004
C000
ENDCHAR
STARTCHAR uni30CD
ENCODING 12493
SWIDTH 1024 0
DWIDTH 16 0
BBX 14 15 1 -2
BITMAP
0800
0400
0200
01E0
7E40
0080
0100
03C0
0630
1A08
E204
0204
0200
0200
0200
ENDCHAR
STARTCHAR uni30CE
ENCODING 12494
SWIDTH 1024 0
DWIDTH 16 0
BBX 12 14 2 -2
BITMAP
0060
0010
0010
0020
0020
0040
0040
0080
0100
0200
0400
0800
3000
C000
ENDCHAR
STARTCHAR uni30CF
ENCODING 12495
SWIDTH 1024 0
DWIDTH 16 0
BBX 14 13 1 -1
BITMAP
0080
0C80
0440
0420
0420
0810
0810
1008
1008
2004
2004
4004
8000
ENDCHAR
STARTCHAR uni30D0
ENCODING 12496
SWIDTH 1024 0
DWIDTH 16 0
BBX 14 14 1 -1
BITMAP
0028
0094
0C80
0440
0420
0420
0810
0810
1008
1008
2004
2004
4004
8000
ENDCHAR
ENDFONT
